<?xml version="1.0" encoding="UTF-8"?>
<svg width="123px" height="38px" viewBox="0 0 123 38" version="1.1" xmlns="http://www.w3.org/2000/svg" xmlns:xlink="http://www.w3.org/1999/xlink">
    <!-- Generator: Sketch 63.1 (92452) - https://sketch.com -->
    <title>Shape</title>
    <desc>Created with Sketch.</desc>
    <g id="About" stroke="none" stroke-width="1" fill="none" fill-rule="evenodd">
        <g transform="translate(-1066.000000, -3401.000000)" fill="#D9DDDF" id="Group-7">
            <g transform="translate(205.000000, 3345.000000)">
                <path d="M925.823502,65.5475475 C925.823502,66.9169169 924.709157,68.02002 923.325832,68.02002 C921.942507,68.02002 920.828162,66.9169169 920.828162,65.5475475 C920.828162,64.1781782 921.904082,63.0750751 923.325832,63.0750751 C924.747583,63.1131131 925.823502,64.2162162 925.823502,65.5475475 Z M915.525417,70.5305305 L915.525417,71.1391391 C915.525417,71.1391391 914.33422,69.6176176 911.798125,69.6176176 C907.609724,69.6176176 904.34354,72.7747748 904.34354,77.1491491 C904.34354,81.4854855 907.571298,84.6806807 911.798125,84.6806807 C914.372646,84.6806807 915.525417,83.1211211 915.525417,83.1211211 L915.525417,83.7677678 C915.525417,84.0720721 915.755971,84.3003003 916.063376,84.3003003 L919.175857,84.3003003 L919.175857,69.997998 L916.063376,69.997998 C915.755971,69.997998 915.525417,70.2642643 915.525417,70.5305305 Z M915.525417,79.6976977 C914.949031,80.5345345 913.796261,81.2572573 912.412936,81.2572573 C909.953691,81.2572573 908.070832,79.7357357 908.070832,77.1491491 C908.070832,74.5625626 909.953691,73.041041 912.412936,73.041041 C913.757835,73.041041 914.987457,73.8018018 915.525417,74.6006006 L915.525417,79.6976977 Z M921.481399,69.997998 L925.170265,69.997998 L925.170265,84.3003003 L921.481399,84.3003003 L921.481399,69.997998 Z M976.583841,69.6176176 C974.047746,69.6176176 972.856549,71.1391391 972.856549,71.1391391 L972.856549,63.1131131 L969.167683,63.1131131 L969.167683,84.3003003 L972.280164,84.3003003 C972.587569,84.3003003 972.818124,84.034034 972.818124,83.7677678 L972.818124,83.1211211 C972.818124,83.1211211 974.00932,84.6806807 976.545416,84.6806807 C980.733816,84.6806807 984,81.4854855 984,77.1491491 C984,72.8128128 980.733816,69.6176176 976.583841,69.6176176 L976.583841,69.6176176 Z M975.96903,81.2192192 C974.54728,81.2192192 973.432935,80.4964965 972.856549,79.6596597 L972.856549,74.5625626 C973.432935,73.8018018 974.662557,73.003003 975.96903,73.003003 C978.428275,73.003003 980.311134,74.5245245 980.311134,77.1111111 C980.311134,79.6976977 978.428275,81.2192192 975.96903,81.2192192 L975.96903,81.2192192 Z M967.246398,75.8178178 L967.246398,84.3383383 L963.557532,84.3383383 L963.557532,76.2362362 C963.557532,73.8778779 962.789018,72.9269269 960.714031,72.9269269 C959.599686,72.9269269 958.446915,73.4974975 957.716827,74.3343343 L957.716827,84.3003003 L954.02796,84.3003003 L954.02796,69.997998 L956.948313,69.997998 C957.255718,69.997998 957.486272,70.2642643 957.486272,70.5305305 L957.486272,71.1391391 C958.562192,70.036036 959.983942,69.6176176 961.405693,69.6176176 C963.019572,69.6176176 964.364471,70.0740741 965.440391,70.986987 C966.746864,72.0520521 967.246398,73.4214214 967.246398,75.8178178 L967.246398,75.8178178 Z M945.074774,69.6176176 C942.538678,69.6176176 941.347482,71.1391391 941.347482,71.1391391 L941.347482,63.1131131 L937.658615,63.1131131 L937.658615,84.3003003 L940.771096,84.3003003 C941.078502,84.3003003 941.309056,84.034034 941.309056,83.7677678 L941.309056,83.1211211 C941.309056,83.1211211 942.500253,84.6806807 945.036348,84.6806807 C949.224749,84.6806807 952.490932,81.4854855 952.490932,77.1491491 C952.529358,72.8128128 949.263174,69.6176176 945.074774,69.6176176 L945.074774,69.6176176 Z M944.459963,81.2192192 C943.038212,81.2192192 941.923867,80.4964965 941.347482,79.6596597 L941.347482,74.5625626 C941.923867,73.8018018 943.153489,73.003003 944.459963,73.003003 C946.919207,73.003003 948.802066,74.5245245 948.802066,77.1111111 C948.802066,79.6976977 946.919207,81.2192192 944.459963,81.2192192 L944.459963,81.2192192 Z M934.469283,69.6176176 C935.583628,69.6176176 936.160013,69.8078078 936.160013,69.8078078 L936.160013,73.1931932 C936.160013,73.1931932 933.085958,72.1661662 931.164673,74.3343343 L931.164673,84.3383383 L927.475807,84.3383383 L927.475807,69.997998 L930.588288,69.997998 C930.895694,69.997998 931.126248,70.2642643 931.126248,70.5305305 L931.126248,71.1391391 C931.81791,70.3403403 933.316512,69.6176176 934.469283,69.6176176 L934.469283,69.6176176 Z M896.158868,83.007007 C895.966739,82.5505506 895.774611,82.0560561 895.582482,81.6376376 C895.275077,80.952953 894.967671,80.3063063 894.698692,79.6976977 L894.660266,79.6596597 C892.008893,73.953954 889.169234,68.1721722 886.17203,62.4664665 L886.056753,62.2382382 C885.749348,61.6676677 885.441942,61.0590591 885.134537,60.4504505 C884.75028,59.7657658 884.366023,59.043043 883.751212,58.3583584 C882.52159,56.8368368 880.754008,56 878.871149,56 C876.949864,56 875.220708,56.8368368 873.95266,58.2822823 C873.376275,58.966967 872.953592,59.6896897 872.569335,60.3743744 C872.26193,60.982983 871.954524,61.5915916 871.647119,62.1621622 L871.531842,62.3903904 C868.573063,68.0960961 865.691137,73.8778779 863.039764,79.5835836 L863.001338,79.6596597 C862.732358,80.2682683 862.424953,80.9149149 862.117547,81.5995996 C861.925419,82.018018 861.73329,82.4744745 861.541162,82.968969 C861.041628,84.3763764 860.887925,85.7077077 861.080054,87.0770771 C861.502736,89.9299299 863.424021,92.3263263 866.075393,93.3913914 C867.074461,93.8098098 868.111955,94 869.187875,94 C869.49528,94 869.879537,93.961962 870.186943,93.9239239 C871.45499,93.7717718 872.761464,93.3533534 874.029512,92.6306306 C875.604965,91.7557558 877.103567,90.5005005 878.794298,88.6746747 C880.485028,90.5005005 882.022056,91.7557558 883.559083,92.6306306 C884.827131,93.3533534 886.133605,93.7717718 887.401653,93.9239239 C887.709058,93.961962 888.093315,94 888.400721,94 C889.47664,94 890.552559,93.8098098 891.509359,93.3913914 C894.199158,92.3263263 896.082016,89.8918919 896.504699,87.0770771 C896.812105,85.7457457 896.658402,84.4144144 896.158868,83.007007 L896.158868,83.007007 Z M878.832723,84.984985 C876.757736,82.3983984 875.412837,79.963964 874.951728,77.9099099 C874.7596,77.035035 874.721174,76.2742743 874.836451,75.5895896 C874.913303,74.980981 875.143857,74.4484484 875.451262,73.991992 C876.181351,72.964965 877.410973,72.3183183 878.832723,72.3183183 C880.254474,72.3183183 881.522522,72.9269269 882.214184,73.991992 C882.52159,74.4484484 882.752144,74.980981 882.828995,75.5895896 C882.944272,76.2742743 882.905847,77.0730731 882.713718,77.9099099 C882.25261,79.9259259 880.907711,82.3603604 878.832723,84.984985 L878.832723,84.984985 Z M894.160732,86.7727728 C893.891752,88.7507508 892.546853,90.4624625 890.667836,91.2232232 C889.74562,91.6036036 888.746552,91.7177177 887.747484,91.6036036 C886.786842,91.4894895 885.826199,91.1851852 884.827131,90.6146146 C883.443806,89.8538539 882.060481,88.6746747 880.446602,86.9249249 C882.982698,83.8438438 884.519726,81.029029 885.096111,78.5185185 C885.365091,77.3393393 885.403517,76.2742743 885.28824,75.2852853 C885.134537,74.3343343 884.788706,73.4594595 884.250746,72.6986987 C883.059549,70.986987 881.061413,69.997998 878.832723,69.997998 C876.604033,69.997998 874.605897,71.025025 873.414701,72.6986987 C872.876741,73.4594595 872.53091,74.3343343 872.377207,75.2852853 C872.223504,76.2742743 872.26193,77.3773774 872.569335,78.5185185 C873.145721,81.029029 874.721174,83.8818819 877.218844,86.962963 C875.643391,88.7127127 874.22164,89.8918919 872.838315,90.6526527 C871.839247,91.2232232 870.878605,91.5275275 869.917963,91.6416416 C868.880469,91.7557558 867.881401,91.6036036 866.99761,91.2612613 C865.114751,90.5005005 863.769852,88.7887888 863.500872,86.8108108 C863.385595,85.8598599 863.462446,84.9089089 863.846703,83.8438438 C863.96198,83.4634635 864.154109,83.0830831 864.346237,82.6266266 C864.615217,82.018018 864.922623,81.3713714 865.230028,80.7247247 L865.268454,80.6486486 C867.919827,74.980981 870.763328,69.1991992 873.722106,63.5695696 L873.837383,63.3413413 C874.144789,62.7707708 874.452194,62.1621622 874.7596,61.5915916 C875.067005,60.982983 875.412837,60.4124124 875.835519,59.9179179 C876.642459,59.005005 877.718378,58.5105105 878.909575,58.5105105 C880.100771,58.5105105 881.17669,59.005005 881.98363,59.9179179 C882.406313,60.4124124 882.752144,60.982983 883.059549,61.5915916 C883.366955,62.1621622 883.67436,62.7707708 883.981766,63.3413413 L884.097043,63.5695696 C887.017396,69.2372372 889.860897,75.019019 892.508427,80.6866867 L892.508427,80.7247247 C892.815833,81.3333333 893.084812,82.018018 893.392218,82.6266266 C893.584346,83.0830831 893.776475,83.4634635 893.891752,83.8438438 C894.199158,84.8328328 894.314435,85.7837838 894.160732,86.7727728 Z" id="Shape"></path>
            </g>
        </g>
    </g>
</svg>