<?xml version="1.0" encoding="UTF-8"?>
<svg width="39px" height="32px" viewBox="0 0 39 32" version="1.1" xmlns="http://www.w3.org/2000/svg" xmlns:xlink="http://www.w3.org/1999/xlink">
    <!-- Generator: Sketch 63.1 (92452) - https://sketch.com -->
    <title>Combined Shape</title>
    <desc>Created with Sketch.</desc>
    <g id="Home" stroke="none" stroke-width="1" fill="none" fill-rule="evenodd">
        <g id="Home-page" transform="translate(-690.000000, -1777.000000)" fill="#09242D" fill-rule="nonzero">
            <g id="Group-4" transform="translate(205.000000, 1550.000000)">
                <g id="item-copy" transform="translate(440.000000, 182.000000)">
                    <g id="graphic" transform="translate(45.000000, 45.000000)">
                        <path d="M25.7,-1.83556873e-14 C26.8666667,-1.83556873e-14 28,0.5 28.8,1.36666667 C29.6,2.23333333 29.9666667,3.43333333 29.8666667,4.6 L29.0333333,12.5666667 C29,13 29.1333333,13.4 29.4,13.7333333 C29.7,14.0333333 30.0666667,14.2333333 30.5,14.2333333 L35,14.2333333 C36.9333333,14.2333333 38.5,15.8 38.5,17.7333333 L38.5,21 C38.495614,21.0745614 38.4843029,21.1468144 38.466674,21.2160756 L38.4666667,31 C38.4666667,31.5666667 38.0333333,32 37.4666667,32 L17.5333333,32 C16.9666667,32 16.5333333,31.5666667 16.5333333,31 L16.5333333,27.6 C16.5333333,27.0333333 16.9666667,26.6 17.5333333,26.6 C18.1,26.6 18.5333333,27.0333333 18.5333333,27.6 L18.5333333,30 L36.4666667,30 L36.4656667,22 L14.8326667,22 L14.8333333,26.3666667 C14.8333333,29.4666667 12.3,32 9.2,32 L6.16666667,32 C5.6,32 5.16666667,31.5666667 5.16666667,31 C5.16666667,30.4333333 5.6,30 6.16666667,30 L9.2,30 C11.2,30 12.8333333,28.3666667 12.8333333,26.3666667 L12.8333333,17.7333333 C12.8333333,15.8 14.4,14.2333333 16.3333333,14.2333333 L20.7333333,14.2333333 C21.1666667,14.2333333 21.5333333,14.0666667 21.8333333,13.7666667 C22.1333333,13.4666667 22.2666667,13.0333333 22.2333333,12.6 L21.5333333,4.53333333 C21.4333333,3.36666667 21.8333333,2.2 22.6333333,1.33333333 C23.4333333,0.466666667 24.5333333,-1.83556873e-14 25.7,-1.83556873e-14 Z M1.86666667,30.3 C2.06666667,30.5 2.16666667,30.7333333 2.16666667,31 C2.16666667,31.2666667 2.06666667,31.5333333 1.86666667,31.7 C1.7,31.9 1.43333333,32 1.16666667,32 C0.9,32 0.633333333,31.9 0.466666667,31.7 C0.266666667,31.5 0.166666667,31.2666667 0.166666667,31 C0.166666667,30.7333333 0.266666667,30.4666667 0.466666667,30.3 C0.833333333,29.9333333 1.5,29.9333333 1.86666667,30.3 Z M25.6333333,2 C25.0333333,2 24.4666667,2.23333333 24.0333333,2.7 C23.6,3.16666667 23.4,3.76666667 23.4666667,4.36666667 L24.1666667,12.4333333 C24.2666667,13.4 23.9333333,14.4 23.2666667,15.1 C22.6,15.8333333 21.6666667,16.2333333 20.7,16.2333333 L16.3333333,16.2333333 C15.5,16.2333333 14.8333333,16.9 14.8333333,17.7333333 L14.8333333,20 L36.4666667,20 L36.4666667,17.7333333 C36.4666667,16.9 35.8,16.2333333 34.9666667,16.2333333 L30.4,16.2333333 C29.4333333,16.2333333 28.4666667,15.8 27.8,15.0666667 C27.1333333,14.3333333 26.8,13.3333333 26.9333333,12.3666667 L27.7666667,4.4 C27.8333333,3.76666667 27.6333333,3.16666667 27.2333333,2.7 C26.8333333,2.23333333 26.2666667,2 25.6333333,2 Z M25.6666667,3.56666667 C26.1821324,3.56666667 26.6,3.98453423 26.6,4.5 C26.6,5.01546577 26.1821324,5.43333333 25.6666667,5.43333333 C25.3332188,5.43333333 25.0251002,5.25544102 24.8583763,4.96666668 C24.6916523,4.67789233 24.6916523,4.32210767 24.8583763,4.03333332 C25.0251002,3.74455898 25.3332188,3.56666667 25.6666667,3.56666667 Z" id="Combined-Shape"></path>
                    </g>
                </g>
            </g>
        </g>
    </g>
</svg>