<?xml version="1.0" encoding="UTF-8"?>
<svg width="95px" height="49px" viewBox="0 0 95 49" version="1.1" xmlns="http://www.w3.org/2000/svg" xmlns:xlink="http://www.w3.org/1999/xlink">
    <!-- Generator: Sketch 63.1 (92452) - https://sketch.com -->
    <title>Shape</title>
    <desc>Created with Sketch.</desc>
    <g id="About" stroke="none" stroke-width="1" fill="none" fill-rule="evenodd">
        <g transform="translate(-861.000000, -3396.000000)" fill="#D9DDDF" id="Group-7">
            <g transform="translate(205.000000, 3345.000000)">
                <path d="M748.778942,97.5890376 L749.251236,97.5890376 L749.902236,99.3379222 L749.915001,99.3379222 L750.540471,97.5890376 L751,97.5890376 L751,99.7126832 L750.693647,99.7126832 L750.693647,97.9762906 L750.680883,97.9762906 L750.029883,99.7126832 L749.736295,99.7126832 L749.09806,97.9762906 L749.085295,97.9762906 L749.085295,99.7126832 L748.778942,99.7126832 L748.778942,97.5890376 L748.778942,97.5890376 Z M748.625766,97.5890376 L748.625766,97.8388783 L747.885413,97.8388783 L747.885413,99.7126832 L747.579061,99.7126832 L747.579061,97.8388783 L746.838708,97.8388783 L746.838708,97.5890376 L748.625766,97.5890376 L748.625766,97.5890376 Z M751,66.1965583 C751,65.0847674 750.080942,64.185341 748.944883,64.185341 C747.808825,64.185341 746.877002,65.0847674 746.877002,66.1965583 L746.877002,70.4438496 C746.877002,71.5556405 747.808825,72.467559 748.944883,72.467559 C750.080942,72.467559 751,71.5556405 751,70.4438496 L751,66.1965583 Z M739.664947,60.6376036 C739.664947,59.5195666 738.745888,58.6151434 737.571536,58.6151434 C736.435478,58.6151434 735.516419,59.5195666 735.516419,60.6376036 L735.516419,70.4438496 C735.516419,71.5556405 736.435478,72.467559 737.571536,72.467559 C738.745888,72.467559 739.664947,71.5556405 739.664947,70.4438496 L739.664947,60.6376036 Z M728.291599,53.0174634 C728.291599,51.9044232 727.372541,51 726.236483,51 C725.100425,51 724.168602,51.9044232 724.168602,53.0174634 L724.168602,74.4662843 C724.168602,75.5905672 725.100425,76.4899936 726.236483,76.4899936 C727.372541,76.4899936 728.291599,75.5905672 728.291599,74.4662843 L728.291599,53.0174634 Z M716.931017,60.6376036 C716.931017,59.5195666 716.011959,58.6151434 714.863136,58.6151434 C713.727077,58.6151434 712.808019,59.5195666 712.808019,60.6376036 L712.808019,70.4438496 C712.808019,71.5556405 713.727077,72.467559 714.863136,72.467559 C716.011959,72.467559 716.931017,71.5556405 716.931017,70.4438496 L716.931017,60.6376036 Z M705.570434,66.1965583 C705.570434,65.0847674 704.638611,64.185341 703.502553,64.185341 C702.366495,64.185341 701.434672,65.0847674 701.434672,66.1965583 L701.434672,70.4438496 C701.434672,71.5556405 702.366495,72.467559 703.502553,72.467559 C704.638611,72.467559 705.570434,71.5556405 705.570434,70.4438496 L705.570434,66.1965583 Z M694.222616,60.6376036 C694.222616,59.5195666 693.290793,58.6151434 692.154735,58.6151434 C691.005912,58.6151434 690.074089,59.5195666 690.074089,60.6376036 L690.074089,70.4438496 C690.074089,71.5556405 691.005912,72.467559 692.154735,72.467559 C693.290793,72.467559 694.222616,71.5556405 694.222616,70.4438496 L694.222616,60.6376036 Z M682.862034,53.0174634 C682.862034,51.9044232 681.930211,51 680.794152,51 C679.645329,51 678.726271,51.9044232 678.726271,53.0174634 L678.726271,74.4662843 C678.726271,75.5905672 679.645329,76.4899936 680.794152,76.4899936 C681.930211,76.4899936 682.862034,75.5905672 682.862034,74.4662843 L682.862034,53.0174634 Z M671.501451,60.6376036 C671.501451,59.5195666 670.569628,58.6151434 669.43357,58.6151434 C668.284747,58.6151434 667.365688,59.5195666 667.365688,60.6376036 L667.365688,70.4438496 C667.365688,71.5556405 668.284747,72.467559 669.43357,72.467559 C670.569628,72.467559 671.501451,71.5556405 671.501451,70.4438496 L671.501451,60.6376036 Z M660.135763,66.1965583 C660.135763,65.0847674 659.207769,64.185341 658.069158,64.185341 C656.92927,64.185341 656,65.0847674 656,66.1965583 L656,70.4438496 C656,71.5556405 656.92927,72.467559 658.069158,72.467559 C659.207769,72.467559 660.135763,71.5556405 660.135763,70.4438496 L660.135763,66.1965583 Z M702.838789,87.2331421 C702.774965,87.2206501 701.013437,86.7459528 699.571025,86.7459528 C697.911615,86.7459528 697.005321,87.2831103 697.005321,88.0701083 C697.005321,89.0444869 698.230732,89.3942639 698.907261,89.6066284 L700.056084,89.9564054 C702.7622,90.8058636 704.000376,92.6172084 704.000376,94.5784576 C704.000376,98.6383684 700.349672,100 697.158497,100 C694.950204,100 692.869558,99.612747 692.665323,99.5627788 L692.665323,95.840153 C693.035499,95.9400892 694.784263,96.4522626 696.59685,96.4522626 C698.664732,96.4522626 699.622084,95.852645 699.622084,94.9407266 C699.622084,94.1162524 698.805144,93.6415551 697.771203,93.3292543 C697.515909,93.2418101 697.132968,93.1293818 696.877674,93.0419375 C694.554499,92.3298917 692.627029,90.9932441 692.627029,88.319949 C692.627029,85.296877 694.93744,83.2731676 698.779614,83.2731676 C700.796437,83.2731676 702.711142,83.7478649 702.838789,83.785341 L702.838789,87.2331421 L702.838789,87.2331421 Z M733.729361,87.3955386 C731.25301,87.3955386 729.427658,89.2943276 729.427658,91.6428298 C729.427658,93.9913321 731.25301,95.8901211 733.729361,95.8901211 C736.205713,95.8901211 738.04383,93.9913321 738.04383,91.6428298 C738.04383,89.2943276 736.205713,87.3955386 733.729361,87.3955386 L733.729361,87.3955386 Z M742.447651,91.6428298 C742.447651,96.2648821 738.809712,100 733.729361,100 C728.649011,100 725.011072,96.2648821 725.011072,91.6428298 C725.011072,87.0207776 728.649011,83.2731676 733.729361,83.2731676 C738.809712,83.2731676 742.447651,87.0207776 742.447651,91.6428298 L742.447651,91.6428298 Z M677.143448,88.1950287 C676.977507,88.1075844 675.637214,87.3330784 673.645921,87.3330784 C670.939804,87.3330784 669.076158,89.1694073 669.076158,91.6428298 C669.076158,94.0413002 670.863216,95.9525813 673.645921,95.9525813 C675.59892,95.9525813 676.964743,95.1905672 677.143448,95.090631 L677.143448,99.4253665 C676.620096,99.5752709 675.203214,100 673.339568,100 C668.654923,100 664.553625,96.8395156 664.553625,91.6428298 C664.553625,86.808413 668.271982,83.2731676 673.339568,83.2731676 C675.305332,83.2731676 676.747743,83.7353728 677.143448,83.8602932 L677.143448,88.1950287 L677.143448,88.1950287 Z M720.620015,88.1950287 C720.454074,88.1075844 719.113781,87.3330784 717.122487,87.3330784 C714.429136,87.3330784 712.56549,89.1694073 712.56549,91.6428298 C712.56549,94.0413002 714.352548,95.9525813 717.122487,95.9525813 C719.075486,95.9525813 720.441309,95.1905672 720.620015,95.090631 L720.620015,99.4253665 C720.109427,99.5752709 718.679781,100 716.828899,100 C712.144255,100 708.034021,96.8395156 708.034021,91.6428298 C708.034021,86.808413 711.748549,83.2731676 716.828899,83.2731676 C718.781898,83.2731676 720.237074,83.7353728 720.620015,83.8602932 L720.620015,88.1950287 Z M687.036091,99.7126832 L682.874798,99.7126832 L682.874798,83.5604844 L687.036091,83.5604844 L687.036091,99.7126832 Z" id="Shape"></path>
            </g>
        </g>
    </g>
</svg>