<?xml version="1.0" encoding="UTF-8"?>
<svg width="80px" height="38px" viewBox="0 0 80 38" version="1.1" xmlns="http://www.w3.org/2000/svg" xmlns:xlink="http://www.w3.org/1999/xlink">
    <!-- Generator: Sketch 63.1 (92452) - https://sketch.com -->
    <title>Shape</title>
    <desc>Created with Sketch.</desc>
    <g id="About" stroke="none" stroke-width="1" fill="none" fill-rule="evenodd">
        <g transform="translate(-451.000000, -3402.000000)" fill="#D9DDDF" id="Group-7">
            <g transform="translate(205.000000, 3345.000000)">
                <path d="M278.929674,94.9805353 C275.611864,94.7491282 272.803774,91.9629864 272.803774,88.0383216 L272.803774,69.3591388 C272.803774,68.68343 272.303322,68.100284 271.57118,68.100284 L265.732577,68.100284 C253.091537,68.0817715 254.21292,84.2247323 264.972632,84.2432448 L271.441433,84.2432448 L271.441433,88.9361813 L264.750209,88.9361813 C260.459298,88.9361813 257.280503,87.334844 255.139682,84.9559788 C252.989593,82.5678573 251.914489,79.3651827 251.914489,76.1625082 C251.905281,72.9598336 252.971058,69.7756716 255.167485,67.3875501 C257.363912,65.0086849 260.681721,63.4073476 265.232125,63.4073476 L276.25133,63.4073476 C276.974205,63.4073476 277.576601,64.036775 277.576601,64.7587652 L277.576601,87.5384823 C277.567333,88.7140304 278.234602,89.6211464 279.096491,89.8895786 C279.95838,90.1580109 280.968551,89.8155283 281.561679,88.9639501 L281.589482,88.9361813 C284.721939,83.8174557 297.159091,63.8886744 297.177626,63.8516493 C297.520528,63.3703225 297.928304,63.2777596 298.224868,63.3795787 C298.521432,63.4813979 298.817996,63.7961116 298.817996,64.5921521 L298.817996,87.5384823 C298.808728,88.7140304 299.475997,89.6211464 300.337886,89.8895786 C301.199775,90.1580109 302.191411,89.8155283 302.784539,88.9639501 L302.784539,88.9361813 L302.830877,88.9361813 C305.963334,83.8174557 318.400486,63.8886744 318.419021,63.8516493 C318.752656,63.3703225 319.151164,63.2777596 319.466263,63.3795787 C319.781362,63.4813979 320.087194,63.777599 320.087194,64.5643832 L320.087194,94.8602036 L315.360705,94.8602036 L315.360705,77.1806995 C315.360705,77.1806995 312.543348,81.9847113 307.724183,90.2690863 C302.997694,98.3775918 294.072972,95.0175604 294.072972,88.0383216 L294.072972,77.1806995 C294.072972,77.1806995 291.301952,81.9847113 286.47352,90.2690863 C284.397572,93.8142434 281.515341,95.1749173 278.929674,94.9805353 L278.929674,94.9805353 Z M265.575027,94.8602036 C239.292044,94.8602036 239.54227,57.4463001 265.927197,57.4277876 L276.25133,57.4277876 C280.690523,57.4277876 283.517148,60.0473162 283.517148,64.8976095 L283.517148,74.3853015 C283.517148,74.3853015 289.309413,64.8143029 291.589249,61.0655075 C295.453848,54.6879272 304.786346,55.946782 304.758543,63.907187 L304.758543,74.3853015 C304.758543,74.3853015 310.532273,64.8143029 312.802841,61.0655075 C316.66744,54.6879272 326.027741,55.946782 326,63.907187 L326,94.8694599 L321.27345,94.8694599 L321.27345,64.5736395 C321.282717,63.4073476 320.671054,62.5465131 319.8277,62.2780808 C318.984347,62.0003923 318.020514,62.3521311 317.427386,63.1759405 L317.40885,63.1759405 L317.40885,63.2222219 C317.40885,63.2222219 304.962431,83.0954655 301.792903,88.2789851 C301.783636,88.2882413 301.774368,88.2697288 301.7651,88.2789851 C301.755833,88.2789851 301.774368,88.3067539 301.7651,88.3067539 C301.440734,88.7417993 301.014423,88.8343621 300.671521,88.732543 C300.319351,88.6214676 299.976449,88.3160102 299.985717,87.5477385 L299.985717,64.6014083 C299.994984,63.4443727 299.392589,62.5372568 298.558502,62.250312 C297.724416,61.9726234 296.769851,62.3428748 296.185991,63.1759405 L296.185991,63.2037093 L296.158188,63.2037093 C296.158188,63.2037093 283.7025,83.1139781 280.542241,88.2882413 C280.208606,88.7603119 279.782295,88.8713873 279.430126,88.7603119 C279.077956,88.6492364 278.735054,88.343779 278.744321,87.5755074 L278.744321,87.5477385 L278.744321,64.7680215 C278.744321,63.388835 277.604404,62.2317994 276.223528,62.2317994 L265.21359,62.2317994 C260.37589,62.2317994 256.715178,63.971981 254.296328,66.5915096 C251.877478,69.2110382 250.681955,72.6914013 250.681955,76.1717644 C250.691222,79.6428713 251.877478,83.1510032 254.240722,85.7705319 C256.603967,88.3900605 260.144199,90.130242 264.731673,90.130242 L271.422898,90.130242 L271.422898,94.8694599 L265.575027,94.8602036 L265.575027,94.8602036 Z" id="Shape" transform="translate(286.000000, 76.000000) scale(-1, 1) rotate(-180.000000) translate(-286.000000, -76.000000) "></path>
            </g>
        </g>
    </g>
</svg>