<?xml version="1.0" encoding="UTF-8"?>
<svg width="99px" height="40px" viewBox="0 0 99 40" version="1.1" xmlns="http://www.w3.org/2000/svg" xmlns:xlink="http://www.w3.org/1999/xlink">
    <!-- Generator: Sketch 63.1 (92452) - https://sketch.com -->
    <title>Combined Shape</title>
    <desc>Created with Sketch.</desc>
    <g id="About" stroke="none" stroke-width="1" fill="none" fill-rule="evenodd">
        <g transform="translate(-242.000000, -3400.000000)" fill="#D9DDDF" id="Group-7">
            <g transform="translate(205.000000, 3345.000000)">
                <path d="M49.797891,63.7176987 C42.8189807,63.7176987 37,66.701609 37,75.7118479 C37,82.8498294 40.9050967,87.3549488 49.9718805,87.3549488 C60.6432337,87.3549488 61.3198594,80.2559727 61.3198594,80.2559727 L56.1581722,80.2559727 C56.1581722,80.2559727 55.056239,84.0784983 49.6625659,84.0784983 C45.2741652,84.0784983 42.1036907,81.094588 42.1036907,76.8820088 L61.8804921,76.8820088 L61.8804921,74.2491468 C61.8804921,70.1145783 59.2706503,63.7176987 49.797891,63.7176987 L49.797891,63.7176987 Z M66.9068541,55 L66.9068541,67.5402243 C66.9068541,67.5402243 69.0527241,63.7957094 75.9349736,63.7957094 C83.3005272,63.7957094 87.6502636,69.0419308 87.6502636,75.5558264 C87.6502636,76.3372091 87.5912712,77.0923576 87.4767528,77.8173952 C88.6719194,74.4614901 92.7782017,72.8059483 99.5395431,72.8059483 L99.5395431,72.8059483 L105.667838,72.8059483 L105.667838,71.7137981 C105.667838,68.6518771 103,67.0526572 99.5395431,67.0526572 C94.2231986,67.0526572 93.9525483,70.4461238 93.9525483,70.4461238 L93.9525483,70.4461238 L88.7328647,70.4461238 C88.7328647,69.5099951 89.4094903,63.7176987 99.9068541,63.7176987 C103.494483,63.7176987 107.431279,64.4809024 109.415789,67.4765997 L107.910369,64.6343247 L113.787346,64.6343247 L122.235501,81.6991711 L130.664323,64.6343247 L136,64.6343247 L120.669596,95 L115.082601,95 L119.509666,86.5358362 L110.047502,68.6675002 C110.476686,69.7014594 110.717511,70.9389124 110.713533,72.4158947 L110.713533,72.4158947 L110.713533,83.3764018 C110.713533,84.6440761 110.887522,86.6333496 110.887522,86.6333496 L110.887522,86.6333496 L106.247803,86.6333496 C106.247803,86.6333496 106.13181,85.0341297 106.13181,83.4154071 C106.13181,83.4154071 103.773286,87.4914676 96.4463972,87.4914676 C91.0913884,87.4914676 87.1089631,84.8781082 87.1089631,80.0804486 C87.1089631,79.8214064 87.1210776,79.5693557 87.1452399,79.3242849 C85.75498,84.251866 81.5780904,87.4524622 75.9349736,87.4524622 C69.3040422,87.4524622 66.8681898,83.6104339 66.8681898,83.6104339 C66.8681898,85.0536324 66.6942004,86.6528523 66.6942004,86.6528523 L66.6942004,86.6528523 L61.7644991,86.6528523 C61.7644991,86.6528523 61.8804921,84.4295466 61.8804921,82.8498294 L61.8804921,82.8498294 L61.8804921,55 L66.9068541,55 Z M105.68717,76.0823988 C97.741652,76.0823988 92.3479789,76.1214042 92.3479789,80.0804486 C92.3479789,82.2647489 93.9525483,84.156509 97.7029877,84.156509 C104.527241,84.156509 105.68717,79.4368601 105.68717,77.5451 L105.68717,77.5451 Z M74.6783831,67.2281814 C69.3620387,67.2281814 66.9261863,71.479766 66.9261863,75.5753291 C66.9261863,80.0024378 69.6520211,83.9809849 74.7170475,83.9809849 C78.9507909,83.9809849 82.43058,80.6460263 82.43058,75.5363237 C82.43058,70.7776694 79.4147627,67.2281814 74.6783831,67.2281814 Z M49.6239016,67.0916626 C53.7996485,67.0916626 56.6608084,69.6660166 56.6608084,73.5470502 L42.238941,73.5470502 C42.2196837,69.4319844 45.9507909,67.0916626 49.6239016,67.0916626 Z" id="Combined-Shape"></path>
            </g>
        </g>
    </g>
</svg>