<?xml version="1.0" encoding="UTF-8"?>
<svg width="110px" height="35px" viewBox="0 0 110 35" version="1.1" xmlns="http://www.w3.org/2000/svg" xmlns:xlink="http://www.w3.org/1999/xlink">
    <!-- Generator: Sketch 63.1 (92452) - https://sketch.com -->
    <title>Shape</title>
    <desc>Created with Sketch.</desc>
    <g id="About" stroke="none" stroke-width="1" fill="none" fill-rule="evenodd">
        <g transform="translate(-641.000000, -3405.000000)" fill="#D9DDDF" id="Group-7">
            <g transform="translate(205.000000, 3345.000000)">
                <path d="M450.124023,87.1523179 C454.265998,87.1523179 457.387191,85.830574 459.830504,83.3471302 C462.345679,80.8912804 463.126543,77.4530905 463.126543,74.6716336 C463.126543,73.807947 463.058642,73.0160044 462.92284,72.3509934 L450.124023,72.3509934 L450.124023,76.0596026 L459.222222,76.0596026 C458.950617,78.1456954 458.234825,79.6688742 457.152932,80.7284768 C455.826595,82.0171082 453.75787,83.4437086 450.124023,83.4437086 C444.52302,83.4437086 440.142541,79.0397351 440.142541,73.5761589 C440.142541,68.1125828 444.52302,63.7058499 450.124023,63.7058499 C453.143364,63.7058499 455.353832,64.8675497 456.980633,66.3576159 L459.66358,63.7417219 C457.387191,61.6252759 454.36785,60 450.124023,60 C442.449769,60 436,66.0899558 436,73.5761589 C436,81.0596026 442.449769,87.1523179 450.124023,87.1523179 Z M473.484311,87.1523179 C478.438272,87.1523179 482.478395,83.4437086 482.478395,78.4078366 C482.478395,73.3443709 478.438272,69.6688742 473.484311,69.6688742 C468.521862,69.6688742 464.481739,73.3443709 464.481739,78.4078366 C464.481739,83.4437086 468.521862,87.1523179 473.484311,87.1523179 Z M473.484311,83.7086093 C470.765432,83.7086093 468.42001,81.5231788 468.42001,78.4078366 C468.42001,75.2649007 470.765432,73.1153422 473.484311,73.1153422 C476.197531,73.1153422 478.540123,75.2649007 478.540123,78.4078366 C478.540123,81.5231788 476.197531,83.7086093 473.484311,83.7086093 L473.484311,83.7086093 Z M493.104938,87.1523179 C498.061728,87.1523179 502.101852,83.4437086 502.101852,78.4078366 C502.101852,73.3443709 498.061728,69.6688742 493.104938,69.6688742 C488.145319,69.6688742 484.105195,73.3443709 484.105195,78.4078366 C484.105195,83.4437086 488.145319,87.1523179 493.104938,87.1523179 Z M493.104938,83.7086093 C490.388889,83.7086093 488.043467,81.5231788 488.043467,78.4078366 C488.043467,75.2649007 490.388889,73.1153422 493.104938,73.1153422 C495.820988,73.1153422 498.16358,75.2649007 498.16358,78.4078366 C498.16358,81.5231788 495.820988,83.7086093 493.104938,83.7086093 L493.104938,83.7086093 Z M512.388889,95 C517.003344,95 520.913323,92.3537528 520.913323,85.8940397 L520.913323,70.1986755 L517.175926,70.1986755 L517.175926,71.6225166 L517.040123,71.6225166 C516.154578,70.5960265 514.457047,69.6688742 512.323817,69.6688742 C507.839506,69.6688742 503.734311,73.5099338 503.734311,78.4437086 C503.734311,83.3471302 507.839506,87.1523179 512.323817,87.1523179 C514.457047,87.1523179 516.154578,86.2251656 517.040123,85.1655629 L517.175926,85.1655629 L517.175926,86.4238411 C517.175926,89.7709713 515.342593,91.5562914 512.388889,91.5562914 C509.981224,91.5562914 508.484568,89.8703091 507.870628,88.4409492 L504.444444,89.8344371 C505.431842,92.1550773 508.04321,95 512.388889,95 L512.388889,95 Z M512.657665,83.7086093 C509.944444,83.7086093 507.666924,81.4928256 507.666924,78.4437086 C507.666924,75.3642384 509.944444,73.1153422 512.657665,73.1153422 C515.342593,73.1153422 517.447531,75.3642384 517.447531,78.4437086 C517.447531,81.4928256 515.342593,83.7086093 512.657665,83.7086093 Z M527.564815,60.9271523 L523.626543,60.9271523 L523.626543,86.6225166 L527.564815,86.6225166 L527.564815,60.9271523 Z M538.361111,87.1523179 C542.466307,87.1523179 544.845679,84.7047461 545.830247,83.2781457 L542.771862,81.2941501 C541.756173,82.745585 540.364198,83.7086093 538.361111,83.7086093 C536.358025,83.7086093 534.92927,82.8145695 534.015432,81.0596026 L546,76.2224062 L545.592593,75.2317881 C544.845679,73.2781457 542.568158,69.6688742 537.919753,69.6688742 C533.302469,69.6688742 529.466049,73.2146799 529.466049,78.4078366 C529.466049,83.3112583 533.268519,87.1523179 538.361111,87.1523179 L538.361111,87.1523179 Z M533.37037,78.1456954 C533.268519,74.7709713 536.052469,73.0463576 538.055556,73.0463576 C539.617284,73.0463576 540.941358,73.807947 541.385545,74.9006623 L533.37037,78.1456954 Z" id="Shape"></path>
            </g>
        </g>
    </g>
</svg>