<?xml version="1.0" encoding="UTF-8"?>
<svg width="144px" height="13px" viewBox="0 0 144 13" version="1.1" xmlns="http://www.w3.org/2000/svg" xmlns:xlink="http://www.w3.org/1999/xlink">
    <!-- Generator: Sketch 63.1 (92452) - https://sketch.com -->
    <title>CREATIVEMINDS</title>
    <desc>Created with Sketch.</desc>
    <g id="Home" stroke="none" stroke-width="1" fill="none" fill-rule="evenodd">
        <g id="Home-page" transform="translate(-205.000000, -59.000000)" fill="#102136" fill-rule="nonzero">
            <g id="top-section">
                <g id="header">
                    <path d="M211.688,71.192 C212.658667,71.192 213.538667,71.0213333 214.328,70.68 C215.117333,70.3386667 215.778667,69.8426667 216.312,69.192 L216.312,69.192 L214.648,67.656 C213.890667,68.5413333 212.952,68.984 211.832,68.984 C211.138667,68.984 210.52,68.832 209.976,68.528 C209.432,68.224 209.008,67.8 208.704,67.256 C208.4,66.712 208.248,66.0933333 208.248,65.4 C208.248,64.7066667 208.4,64.088 208.704,63.544 C209.008,63 209.432,62.576 209.976,62.272 C210.52,61.968 211.138667,61.816 211.832,61.816 C212.952,61.816 213.890667,62.2533333 214.648,63.128 L214.648,63.128 L216.312,61.592 C215.778667,60.952 215.12,60.4613333 214.336,60.12 C213.552,59.7786667 212.674667,59.608 211.704,59.608 C210.552,59.608 209.514667,59.856 208.592,60.352 C207.669333,60.848 206.944,61.536 206.416,62.416 C205.888,63.296 205.624,64.2906667 205.624,65.4 C205.624,66.5093333 205.888,67.504 206.416,68.384 C206.944,69.264 207.669333,69.952 208.592,70.448 C209.514667,70.944 210.546667,71.192 211.688,71.192 Z M220.648,71 L220.648,67.88 L223.032,67.88 L225.192,71 L227.976,71 L225.464,67.4 C226.2,67.08 226.768,66.6186667 227.168,66.016 C227.568,65.4133333 227.768,64.696 227.768,63.864 C227.768,63.032 227.570667,62.312 227.176,61.704 C226.781333,61.096 226.218667,60.6266667 225.488,60.296 C224.757333,59.9653333 223.896,59.8 222.904,59.8 L222.904,59.8 L218.056,59.8 L218.056,71 L220.648,71 Z M222.76,65.816 L220.648,65.816 L220.648,61.912 L222.76,61.912 C223.538667,61.912 224.130667,62.08 224.536,62.416 C224.941333,62.752 225.144,63.2346667 225.144,63.864 C225.144,64.4826667 224.941333,64.9626667 224.536,65.304 C224.130667,65.6453333 223.538667,65.816 222.76,65.816 L222.76,65.816 Z M238.488,71 L238.488,68.92 L232.392,68.92 L232.392,66.328 L237.592,66.328 L237.592,64.312 L232.392,64.312 L232.392,61.88 L238.28,61.88 L238.28,59.8 L229.816,59.8 L229.816,71 L238.488,71 Z M241.736,71 L242.728,68.6 L247.928,68.6 L248.92,71 L251.64,71 L246.632,59.8 L244.072,59.8 L239.08,71 L241.736,71 Z M247.112,66.632 L243.56,66.632 L245.336,62.344 L247.112,66.632 Z M257.16,71 L257.16,61.912 L260.744,61.912 L260.744,59.8 L250.984,59.8 L250.984,61.912 L254.568,61.912 L254.568,71 L257.16,71 Z M264.728,71 L264.728,59.8 L262.136,59.8 L262.136,71 L264.728,71 Z M273.24,71 L278.088,59.8 L275.512,59.8 L272.056,67.8 L268.648,59.8 L265.848,59.8 L270.68,71 L273.24,71 Z M287.688,71 L287.688,68.92 L281.592,68.92 L281.592,66.328 L286.792,66.328 L286.792,64.312 L281.592,64.312 L281.592,61.88 L287.48,61.88 L287.48,59.8 L279.016,59.8 L279.016,71 L287.688,71 Z M295.704,71 L295.704,61.448 L300.392,69.512 L300.792,69.512 L305.48,61.416 L305.496,71 L306.296,71 L306.28,59.8 L305.608,59.8 L300.6,68.456 L295.592,59.8 L294.904,59.8 L294.904,71 L295.704,71 Z M311.016,71 L311.016,59.8 L310.2,59.8 L310.2,71 L311.016,71 Z M315.736,71 L315.736,61.272 L323.368,71 L324.04,71 L324.04,59.8 L323.224,59.8 L323.224,69.528 L315.608,59.8 L314.92,59.8 L314.92,71 L315.736,71 Z M332.376,71 C333.538667,71 334.570667,70.76 335.472,70.28 C336.373333,69.8 337.074667,69.136 337.576,68.288 C338.077333,67.44 338.328,66.4773333 338.328,65.4 C338.328,64.3226667 338.077333,63.36 337.576,62.512 C337.074667,61.664 336.373333,61 335.472,60.52 C334.570667,60.04 333.538667,59.8 332.376,59.8 L332.376,59.8 L327.944,59.8 L327.944,71 L332.376,71 Z M332.312,70.264 L328.76,70.264 L328.76,60.536 L332.312,60.536 C333.346667,60.536 334.258667,60.7413333 335.048,61.152 C335.837333,61.5626667 336.445333,62.136 336.872,62.872 C337.298667,63.608 337.512,64.4506667 337.512,65.4 C337.512,66.3493333 337.298667,67.192 336.872,67.928 C336.445333,68.664 335.837333,69.2373333 335.048,69.648 C334.258667,70.0586667 333.346667,70.264 332.312,70.264 L332.312,70.264 Z M344.104,71.08 C344.989333,71.08 345.736,70.9466667 346.344,70.68 C346.952,70.4133333 347.402667,70.056 347.696,69.608 C347.989333,69.16 348.136,68.664 348.136,68.12 C348.136,67.4586667 347.962667,66.9333333 347.616,66.544 C347.269333,66.1546667 346.850667,65.864 346.36,65.672 C345.869333,65.48 345.213333,65.2826667 344.392,65.08 C343.656,64.8986667 343.074667,64.728 342.648,64.568 C342.221333,64.408 341.864,64.1786667 341.576,63.88 C341.288,63.5813333 341.144,63.1813333 341.144,62.68 C341.144,62.0186667 341.410667,61.48 341.944,61.064 C342.477333,60.648 343.261333,60.44 344.296,60.44 C344.818667,60.44 345.349333,60.52 345.888,60.68 C346.426667,60.84 346.92,61.0746667 347.368,61.384 L347.368,61.384 L347.672,60.728 C347.234667,60.4186667 346.717333,60.1733333 346.12,59.992 C345.522667,59.8106667 344.914667,59.72 344.296,59.72 C343.410667,59.72 342.672,59.8533333 342.08,60.12 C341.488,60.3866667 341.048,60.7466667 340.76,61.2 C340.472,61.6533333 340.328,62.152 340.328,62.696 C340.328,63.368 340.501333,63.904 340.848,64.304 C341.194667,64.704 341.616,65 342.112,65.192 C342.608,65.384 343.266667,65.5813333 344.088,65.784 C344.813333,65.9546667 345.389333,66.12 345.816,66.28 C346.242667,66.44 346.6,66.6693333 346.888,66.968 C347.176,67.2666667 347.32,67.6666667 347.32,68.168 C347.32,68.8186667 347.048,69.3466667 346.504,69.752 C345.96,70.1573333 345.154667,70.36 344.088,70.36 C343.352,70.36 342.650667,70.2293333 341.984,69.968 C341.317333,69.7066667 340.786667,69.368 340.392,68.952 L340.392,68.952 L340.024,69.56 C340.44,70.008 341.018667,70.3733333 341.76,70.656 C342.501333,70.9386667 343.282667,71.08 344.104,71.08 Z" id="CREATIVEMINDS"></path>
                </g>
            </g>
        </g>
    </g>
</svg>