<?xml version="1.0" encoding="UTF-8"?>
<svg width="567px" height="655px" viewBox="0 0 567 655" version="1.1" xmlns="http://www.w3.org/2000/svg" xmlns:xlink="http://www.w3.org/1999/xlink">
    <!-- Generator: Sketch 63.1 (92452) - https://sketch.com -->
    <title>Shape Copy 2</title>
    <desc>Created with Sketch.</desc>
    <g id="Home" stroke="none" stroke-width="1" fill="none" fill-rule="evenodd" opacity="0.025972">
        <g id="Home-page" transform="translate(-1133.000000, -877.000000)" fill="#FFFFFF" fill-rule="nonzero">
            <path d="M1171.07362,1335.6223 C1158.41152,1342.96026 1145.74942,1350.29821 1133,1357.54881 L1133,1350.1235 C1135.96904,1350.1235 1138.23949,1348.55108 1140.68458,1347.15337 C1143.39165,1345.58095 1146.0114,1344.09589 1148.71847,1342.52347 C1152.91006,1340.07749 1157.10165,1337.6315 1161.29324,1335.27287 C1164.08763,1333.6131 1165.83413,1330.55561 1165.83413,1327.32342 C1165.83413,1296.66124 1165.83413,1265.99907 1165.83413,1235.33689 C1165.83413,1231.40584 1165.83413,1227.47479 1165.83413,1223.45639 C1176.74973,1217.16671 1187.75266,1210.78968 1198.66826,1204.5 L1198.66826,1204.5 C1212.72755,1196.37583 1226.78685,1188.25167 1240.93347,1180.1275 C1245.91098,1177.24473 1250.80117,1174.36196 1255.77868,1171.56655 C1258.57308,1169.90678 1260.31957,1166.84929 1260.31957,1163.6171 C1260.31957,1158.9872 1260.31957,1154.3573 1260.31957,1149.64004 C1260.31957,1146.4952 1260.31957,1143.35036 1260.31957,1140.20552 C1260.31957,1137.32275 1260.58155,1134.26527 1259.09703,1131.64457 C1257.61251,1129.11123 1255.16741,1127.97559 1252.80964,1126.57789 C1250.10257,1125.00547 1247.48283,1123.52041 1244.77576,1121.94799 C1240.58417,1119.502 1236.39258,1117.05601 1232.20099,1114.69739 C1229.31927,1113.03761 1225.73895,1113.03761 1222.85723,1114.69739 C1196.31049,1129.9848 1169.76375,1145.35956 1143.217,1160.64697 C1139.81134,1162.65617 1136.40567,1164.57802 1133,1166.58722 C1133,1166.58722 1133,1166.58722 1133,1166.58722 L1133,1159.07455 C1134.57185,1159.16191 1136.14369,1158.72513 1137.71554,1157.85156 C1138.76344,1157.24006 1139.72401,1156.71592 1140.77191,1156.10443 C1154.65655,1148.06762 1168.62852,1140.03081 1182.51317,1131.994 C1197.53304,1123.34569 1212.46558,1114.69739 1227.48545,1106.04908 C1240.14754,1113.38704 1252.80964,1120.72499 1265.55906,1127.97559 C1265.55906,1142.65151 1265.55906,1157.24006 1265.55906,1171.91598 C1246.6969,1182.7482 1227.92207,1193.66778 1209.05991,1204.5 C1202.85985,1208.08162 1196.65979,1211.66324 1190.45973,1215.24487 C1185.83151,1217.86556 1181.29062,1220.57362 1176.66241,1223.19432 C1173.43139,1225.02881 1170.98629,1227.82422 1170.98629,1231.84262 C1170.98629,1232.97826 1170.98629,1234.20125 1170.98629,1235.33689 C1170.98629,1251.41051 1170.98629,1267.48413 1170.98629,1283.55775 C1171.07362,1300.94172 1171.07362,1318.32569 1171.07362,1335.6223 Z M1194.65132,1297.27274 C1194.65132,1281.19912 1194.65132,1265.1255 1194.65132,1249.05188 C1194.65132,1247.91624 1194.65132,1246.69325 1194.65132,1245.55762 C1194.65132,1241.53921 1197.09641,1238.7438 1200.32743,1236.90931 C1204.95564,1234.28861 1209.49653,1231.58055 1214.12475,1228.95986 C1228.18404,1220.83569 1242.24334,1212.71152 1256.38996,1204.58736 C1267.30556,1198.29768 1278.30849,1191.92065 1289.22409,1185.63097 C1289.22409,1161.86997 1289.22409,1138.19632 1289.22409,1114.43532 C1268.70276,1102.55481 1248.0941,1090.67431 1227.57277,1078.79381 C1212.5529,1087.44212 1197.62036,1096.09042 1182.60049,1104.73873 C1168.71585,1112.77554 1154.74388,1120.81235 1140.85923,1128.84916 C1139.81134,1129.46066 1138.85076,1129.9848 1137.80286,1130.59629 C1136.23102,1131.46986 1134.65917,1131.81929 1133.08732,1131.81929 L1133.08732,1139.33196 C1148.98044,1130.15951 1164.87356,1120.98706 1180.67935,1111.81462 C1194.04004,1104.12723 1207.40074,1096.35249 1220.76144,1088.66511 C1222.15863,1087.8789 1223.55583,1086.91798 1225.12768,1086.48119 C1229.23194,1085.34556 1232.37564,1087.44212 1235.60665,1089.36396 C1243.20391,1093.7318 1250.8885,1098.18698 1258.48575,1102.55481 C1265.12244,1106.39851 1271.75913,1110.2422 1278.39581,1114.08589 C1281.8888,1116.09509 1283.9846,1119.23993 1283.9846,1123.34569 C1283.9846,1126.05375 1283.9846,1128.67445 1283.9846,1131.3825 C1283.9846,1146.66991 1283.9846,1161.95732 1283.9846,1177.15738 C1283.9846,1180.38957 1282.2381,1183.53441 1279.44371,1185.10683 C1274.46619,1187.9896 1269.576,1190.87237 1264.59849,1193.66778 C1258.39843,1197.2494 1252.19837,1200.83102 1245.99831,1204.41264 C1227.13615,1215.24487 1208.36131,1226.16444 1189.49915,1236.99667 C1189.49915,1240.92771 1189.49915,1244.85876 1189.49915,1248.87717 C1189.49915,1279.53934 1189.49915,1310.20152 1189.49915,1340.8637 C1189.49915,1344.09589 1187.75266,1347.24073 1184.95826,1348.81315 C1176.22578,1353.87983 1167.4933,1358.94652 1158.67349,1364.0132 C1152.03681,1367.8569 1145.40012,1371.70059 1138.76344,1375.54428 C1136.92962,1376.59256 1135.00847,1377.20405 1133.08732,1377.20405 L1133.08732,1384.80408 C1153.60866,1372.92358 1174.21731,1361.04308 1194.73864,1349.16258 C1194.65132,1331.95332 1194.65132,1314.65671 1194.65132,1297.27274 Z M1227.48545,1406.20646 C1212.46558,1414.85476 1197.53304,1423.50307 1182.51317,1432.15137 C1168.62852,1440.18818 1154.65655,1448.22499 1140.77191,1456.2618 C1139.72401,1456.8733 1138.76344,1457.39744 1137.71554,1458.00894 C1136.14369,1458.8825 1134.57185,1459.23193 1133,1459.23193 L1133,1466.7446 C1148.89312,1457.57215 1164.78623,1448.39971 1180.59202,1439.22726 C1193.95272,1431.53988 1207.31341,1423.76514 1220.67411,1416.07775 C1222.07131,1415.29154 1223.4685,1414.33062 1225.04035,1413.89384 C1229.14462,1412.7582 1232.28831,1414.85476 1235.51933,1416.77661 C1243.11659,1421.14444 1250.80117,1425.59963 1258.39843,1429.96746 C1265.03511,1433.81115 1271.6718,1437.65484 1278.30849,1441.49853 C1281.80148,1443.50774 1283.89727,1446.65257 1283.89727,1450.75834 C1283.89727,1453.46639 1283.89727,1456.08709 1283.89727,1458.79515 C1283.89727,1474.08256 1283.89727,1489.36997 1283.89727,1504.57002 C1283.89727,1507.80221 1282.15078,1510.94705 1279.35638,1512.51947 C1274.37887,1515.40224 1269.48868,1518.28501 1264.51117,1521.08042 C1258.3111,1524.66204 1252.11104,1528.24366 1245.91098,1531.82529 L1256.30263,1531.82529 C1267.21824,1525.53561 1278.22116,1519.15858 1289.13676,1512.8689 C1289.13676,1489.1079 1289.13676,1465.43425 1289.13676,1441.67325 C1268.61543,1429.96746 1248.00678,1418.08696 1227.48545,1406.20646 Z M1241.89404,1469.10323 C1237.09118,1466.30782 1232.28831,1463.5124 1227.48545,1460.80435 C1224.07978,1462.72619 1220.67411,1464.7354 1217.26844,1466.7446 C1190.7217,1481.94465 1164.17496,1497.31942 1137.62822,1512.60683 C1136.23102,1513.48039 1134.57185,1513.91718 1133,1513.91718 L1133,1521.34249 C1133.43662,1521.08042 1133.78592,1520.90571 1134.22255,1520.64364 C1137.19159,1518.89651 1140.24796,1517.14937 1143.217,1515.40224 C1150.90159,1510.94705 1158.49884,1506.57922 1166.18343,1502.12403 C1185.04559,1491.20445 1203.90775,1480.28488 1222.85723,1469.45265 C1231.58971,1464.38597 1239.53627,1474.95612 1235.60665,1481.94465 C1234.90805,1483.255 1233.77283,1484.39064 1232.11366,1485.35156 C1227.13615,1488.23433 1222.24596,1491.1171 1217.26844,1493.91251 C1195.34992,1506.57922 1173.34406,1519.24593 1151.42554,1531.91264 L1161.81719,1531.91264 C1163.47636,1530.95172 1165.13553,1529.9908 1166.88203,1529.02987 C1191.94425,1514.61603 1216.91914,1500.11483 1241.98136,1485.70099 C1241.89404,1480.19752 1241.89404,1474.6067 1241.89404,1469.10323 Z M1265.55906,1455.47559 C1252.89697,1448.13764 1240.23487,1440.79968 1227.48545,1433.54908 C1212.46558,1442.19739 1197.53304,1450.84569 1182.51317,1459.494 C1168.62852,1467.53081 1154.65655,1475.56762 1140.77191,1483.60443 C1139.72401,1484.21592 1138.76344,1484.74006 1137.71554,1485.35156 C1136.14369,1486.22513 1134.57185,1486.57455 1133,1486.57455 L1133,1494.08722 L1133,1494.08722 C1136.40567,1492.07802 1139.81134,1490.15617 1143.217,1488.14697 C1169.76375,1472.85956 1196.31049,1457.4848 1222.85723,1442.19739 C1225.73895,1440.53761 1229.31927,1440.53761 1232.20099,1442.19739 C1236.39258,1444.64337 1240.58417,1447.08936 1244.77576,1449.44799 C1247.48283,1451.02041 1250.10257,1452.50547 1252.80964,1454.07789 C1255.16741,1455.47559 1257.69983,1456.61123 1259.09703,1459.14457 C1260.66887,1461.76527 1260.31957,1464.82275 1260.31957,1467.70552 C1260.31957,1470.85036 1260.31957,1473.9952 1260.31957,1477.14004 C1260.31957,1481.76994 1260.31957,1486.39984 1260.31957,1491.1171 C1260.31957,1494.34929 1258.57308,1497.49413 1255.77868,1499.06655 C1250.80117,1501.94932 1245.91098,1504.83209 1240.93347,1507.6275 C1226.87417,1515.75167 1212.81488,1523.87583 1198.66826,1532 L1209.05991,1532 C1227.92207,1521.16778 1246.6969,1510.2482 1265.55906,1499.41598 C1265.55906,1484.74006 1265.55906,1470.06415 1265.55906,1455.47559 Z M1680.43924,1422.19272 C1655.46435,1407.77887 1630.48945,1393.36503 1605.42723,1378.86383 C1602.02156,1380.87303 1598.61589,1382.79488 1595.21023,1384.80408 C1570.14801,1399.21792 1545.17311,1413.71913 1520.11089,1428.13297 C1520.11089,1432.06402 1520.11089,1435.99507 1520.11089,1440.01347 C1520.11089,1468.92851 1520.11089,1497.7562 1520.11089,1526.67125 C1520.28554,1526.7586 1520.54751,1526.93332 1520.72216,1527.02067 C1523.60388,1528.68045 1526.4856,1530.34022 1529.27999,1532 L1539.67165,1532 C1538.88572,1531.56322 1538.0998,1531.03908 1537.31388,1530.60229 C1532.42369,1527.80688 1525.26305,1525.01147 1525.26305,1518.37237 C1525.26305,1491.1171 1525.26305,1463.77447 1525.26305,1436.51921 C1525.26305,1433.28701 1527.00955,1430.14217 1529.80394,1428.56975 C1536.61528,1424.6387 1543.42661,1420.70766 1550.23795,1416.77661 C1565.69444,1407.86623 1581.15093,1398.95585 1596.60742,1389.95812 C1597.9173,1389.17191 1599.22717,1388.47306 1600.53704,1387.68685 C1604.11736,1385.67765 1607.785,1386.3765 1611.01602,1388.29835 C1615.64423,1390.91905 1620.18512,1393.6271 1624.81334,1396.2478 C1649.78823,1410.66164 1674.76313,1425.07549 1699.82535,1439.57669 L1699.82535,1432.06402 C1697.81688,1431.97666 1695.89573,1431.27781 1694.06191,1430.22953 C1689.60835,1427.52147 1684.98013,1424.81342 1680.43924,1422.19272 Z M1596.25812,1362.96492 C1596.25812,1359.03388 1596.25812,1355.10283 1596.25812,1351.08442 C1596.25812,1322.16938 1596.25812,1293.34169 1596.25812,1264.42665 C1592.85246,1262.41744 1589.35946,1260.4956 1585.9538,1258.4864 C1560.9789,1244.07255 1536.004,1229.65871 1510.94178,1215.15751 C1495.92192,1223.80581 1480.98937,1232.45412 1465.96951,1241.10243 C1452.08486,1249.13924 1438.11289,1257.17605 1424.22825,1265.21286 C1423.18035,1265.82435 1422.21978,1266.34849 1421.17188,1266.95999 C1417.67888,1268.96919 1414.01124,1268.27034 1410.6929,1266.34849 C1406.06469,1263.72779 1401.52379,1261.01974 1396.89558,1258.39904 C1371.92068,1243.9852 1346.94579,1229.57135 1321.88357,1215.07015 C1318.4779,1217.07935 1315.07223,1219.0012 1311.66656,1221.0104 C1286.60434,1235.42425 1261.62945,1249.92545 1236.56723,1264.33929 C1236.56723,1268.27034 1236.56723,1272.20139 1236.56723,1276.21979 C1236.56723,1305.13484 1236.56723,1333.96252 1236.56723,1362.87757 C1251.58709,1371.52587 1266.60696,1380.26154 1281.62683,1388.90984 C1295.51147,1396.94665 1309.48344,1404.98346 1323.36809,1413.02027 C1324.41599,1413.63177 1325.37656,1414.15591 1326.42446,1414.7674 C1329.91745,1416.77661 1331.05267,1420.35823 1331.05267,1424.02721 C1331.05267,1429.35596 1331.05267,1434.59736 1331.05267,1439.92611 C1331.05267,1468.84116 1331.05267,1497.66885 1331.05267,1526.58389 C1334.10904,1528.33102 1337.16541,1530.16551 1340.3091,1531.91264 L1350.70075,1531.91264 C1347.38241,1529.9908 1344.15139,1528.15631 1340.83305,1526.23446 C1338.03866,1524.57469 1336.29216,1521.5172 1336.29216,1518.28501 C1336.29216,1512.51947 1336.29216,1506.84129 1336.29216,1501.07575 C1336.29216,1472.16071 1336.29216,1443.33302 1336.29216,1414.41798 C1332.88649,1412.40878 1329.3935,1410.48693 1325.98783,1408.47773 C1299.44109,1393.19032 1272.89435,1377.81555 1246.34761,1362.52814 C1243.55321,1360.86836 1241.80671,1357.81088 1241.80671,1354.57869 C1241.80671,1345.93038 1241.80671,1337.28208 1241.80671,1328.72113 C1241.80671,1311.2498 1241.80671,1293.77847 1241.80671,1276.30715 C1241.80671,1275.17151 1241.80671,1273.94852 1241.80671,1272.81288 C1241.80671,1268.09563 1245.03773,1265.64964 1248.53073,1263.55308 C1254.64346,1260.05882 1260.7562,1256.47719 1266.78161,1252.98293 C1282.2381,1244.07255 1297.69459,1235.16218 1313.15109,1226.16444 C1314.46096,1225.37823 1315.77083,1224.67938 1317.0807,1223.89317 C1320.66102,1221.88397 1324.32866,1222.58282 1327.55968,1224.50467 C1332.18789,1227.12537 1336.72878,1229.83342 1341.357,1232.45412 C1366.3319,1246.86796 1391.30679,1261.28181 1416.36901,1275.78301 C1419.77468,1273.77381 1423.18035,1271.85196 1426.58602,1269.84276 C1453.13276,1254.55535 1479.6795,1239.18058 1506.22624,1223.89317 C1507.71077,1223.01961 1509.28261,1222.58282 1510.67981,1222.58282 C1510.76713,1222.58282 1510.85446,1222.58282 1510.85446,1222.58282 C1510.94178,1222.58282 1510.94178,1222.58282 1511.02911,1222.58282 C1512.42631,1222.58282 1513.99815,1223.01961 1515.48267,1223.89317 C1522.99261,1228.17365 1530.41522,1232.54148 1537.92515,1236.82195 C1553.03234,1245.55762 1568.22686,1254.29328 1583.33405,1263.02894 C1584.38195,1263.64044 1585.34252,1264.16458 1586.39042,1264.77607 C1590.49469,1267.1347 1590.93131,1271.15311 1590.93131,1275.25887 C1590.93131,1282.33476 1590.93131,1289.32329 1590.93131,1296.39917 C1590.93131,1314.21993 1590.93131,1332.12803 1590.93131,1349.94879 C1590.93131,1351.43385 1590.93131,1353.00627 1590.93131,1354.49133 C1590.93131,1358.50974 1588.48622,1361.30515 1585.2552,1363.13964 C1580.62698,1365.76034 1576.08609,1368.46839 1571.45788,1371.08909 C1546.39566,1385.50293 1521.42076,1400.00413 1496.35854,1414.41798 C1496.35854,1418.34903 1496.35854,1422.28007 1496.35854,1426.29848 C1496.35854,1456.96066 1496.35854,1487.62283 1496.35854,1518.28501 C1496.35854,1521.5172 1494.61204,1524.66204 1491.81765,1526.23446 C1491.81765,1526.23446 1491.73032,1526.23446 1491.73032,1526.32182 C1488.49931,1528.15631 1485.26829,1530.07815 1481.94995,1531.91264 L1492.3416,1531.91264 C1493.12752,1531.47586 1493.91345,1531.03908 1494.69937,1530.60229 C1496.96981,1529.29194 1499.32758,1527.9816 1501.59803,1526.58389 C1501.59803,1496.3585 1501.59803,1466.22046 1501.59803,1435.99507 C1501.59803,1431.71459 1501.59803,1427.34676 1501.59803,1423.06628 C1501.59803,1416.60189 1506.75019,1414.50533 1511.37841,1411.79728 C1526.22363,1403.23633 1540.98152,1394.67538 1555.82674,1386.11443 C1569.36208,1378.42705 1582.8101,1370.65231 1596.25812,1362.96492 Z M1302.49746,1422.19272 C1277.52256,1407.77887 1252.54767,1393.36503 1227.48545,1378.86383 C1212.46558,1387.51214 1197.53304,1396.16044 1182.51317,1404.80875 C1168.62852,1412.84556 1154.65655,1420.88237 1140.77191,1428.91918 C1139.72401,1429.53067 1138.76344,1430.05481 1137.71554,1430.66631 C1136.14369,1431.53988 1134.57185,1431.8893 1133,1431.8893 L1133,1439.40197 C1137.54089,1436.78128 1141.99446,1434.16058 1146.53535,1431.62723 C1163.30171,1421.93065 1180.1554,1412.23406 1196.92176,1402.53748 C1203.47112,1398.78114 1210.02048,1394.93745 1216.56984,1391.18111 C1221.37271,1388.3857 1226.52487,1384.27994 1232.20099,1387.59949 C1244.68843,1394.85009 1257.17588,1402.01334 1269.66333,1409.26394 C1277.60989,1413.80648 1285.55645,1418.43638 1293.41568,1422.97893 C1298.65517,1426.03641 1307.47497,1429.2686 1307.47497,1436.43185 C1307.47497,1463.68712 1307.47497,1491.02974 1307.47497,1518.28501 C1307.47497,1521.5172 1305.72848,1524.66204 1302.93408,1526.23446 C1299.61574,1528.15631 1296.38472,1529.9908 1293.06638,1531.91264 L1303.45803,1531.91264 C1306.5144,1530.16551 1309.57077,1528.33102 1312.71446,1526.58389 C1312.71446,1522.65284 1312.71446,1518.72179 1312.71446,1514.70339 C1312.71446,1485.78834 1312.71446,1456.96066 1312.71446,1428.04561 C1309.30879,1426.21112 1305.90313,1424.20192 1302.49746,1422.19272 Z M1218.31634,1362.96492 C1218.31634,1345.66831 1218.31634,1328.28434 1218.31634,1310.98773 C1218.31634,1294.91411 1218.31634,1278.84049 1218.31634,1262.76687 C1218.31634,1261.63123 1218.31634,1260.40824 1218.31634,1259.27261 C1218.31634,1255.2542 1220.76144,1252.45879 1223.99245,1250.6243 C1228.62067,1248.0036 1233.16156,1245.29555 1237.78977,1242.67485 C1259.7083,1230.00814 1281.71415,1217.34142 1303.63268,1204.67471 L1303.63268,1204.67471 C1306.68905,1202.92758 1309.74542,1201.09309 1312.88911,1199.34596 C1312.88911,1195.41491 1312.88911,1191.48386 1312.88911,1187.46546 C1312.88911,1158.55041 1312.88911,1129.72273 1312.88911,1100.80768 C1309.48344,1098.79848 1305.99045,1096.87663 1302.58478,1094.86743 C1277.60989,1080.45359 1252.63499,1066.03974 1227.57277,1051.53854 C1212.5529,1060.18685 1197.62036,1068.83516 1182.60049,1077.48346 C1168.71585,1085.52027 1154.74388,1093.55708 1140.85923,1101.59389 C1139.81134,1102.20539 1138.85076,1102.72953 1137.80286,1103.34102 C1136.23102,1104.21459 1134.65917,1104.56402 1133.08732,1104.56402 L1133.08732,1112.07669 C1137.62822,1109.45599 1142.08178,1106.83529 1146.62267,1104.30195 C1163.38903,1094.60536 1180.24272,1084.90878 1197.00909,1075.21219 C1203.55845,1071.45585 1210.10781,1067.61216 1216.65717,1063.85583 C1221.46003,1061.06042 1226.6122,1056.95465 1232.28831,1060.27421 C1244.77576,1067.52481 1257.26321,1074.68805 1269.75065,1081.93865 C1277.69721,1086.48119 1285.64377,1091.1111 1293.503,1095.65364 C1298.74249,1098.71112 1307.5623,1101.94332 1307.5623,1109.10656 C1307.5623,1136.36183 1307.5623,1163.70445 1307.5623,1190.95972 C1307.5623,1194.19192 1305.8158,1197.33676 1303.02141,1198.90918 C1299.70306,1200.83102 1296.47205,1202.66551 1293.1537,1204.58736 C1291.49453,1205.54828 1289.83536,1206.5092 1288.17619,1207.47013 C1263.11397,1221.88397 1238.13907,1236.38517 1213.07685,1250.79901 C1213.07685,1254.73006 1213.07685,1258.66111 1213.07685,1262.67951 C1213.07685,1293.34169 1213.07685,1324.00387 1213.07685,1354.66604 C1213.07685,1357.89824 1211.33036,1361.04308 1208.53596,1362.6155 C1208.53596,1362.6155 1208.44864,1362.6155 1208.44864,1362.70285 C1195.96119,1369.95345 1183.47374,1377.1167 1170.98629,1384.3673 C1163.03974,1388.90984 1155.09318,1393.53974 1147.23394,1398.08229 C1143.217,1400.35356 1138.06484,1404.45932 1133.08732,1404.63404 L1133.08732,1412.23406 C1136.49299,1410.22486 1139.89866,1408.30301 1143.30433,1406.29381 C1168.1919,1391.79261 1193.25412,1377.37877 1218.31634,1362.96492 Z M1497.58109,1392.66618 C1522.64331,1378.25233 1547.6182,1363.75113 1572.68043,1349.33729 C1572.68043,1325.57629 1572.68043,1301.90264 1572.68043,1278.14164 C1552.15909,1266.26114 1531.55044,1254.38063 1511.02911,1242.50013 C1496.00924,1251.14844 1481.0767,1259.79675 1466.05683,1268.44505 C1452.17219,1276.48186 1438.20022,1284.51867 1424.31557,1292.55548 C1423.26767,1293.16698 1422.3071,1293.69112 1421.2592,1294.30261 C1417.76621,1296.31182 1414.09857,1295.61296 1410.78022,1293.69112 C1406.15201,1291.07042 1401.61112,1288.36236 1396.9829,1285.74166 C1372.00801,1271.32782 1347.03311,1256.91398 1321.97089,1242.41278 C1301.44956,1254.29328 1280.84091,1266.17378 1260.31957,1278.05428 C1260.31957,1301.81528 1260.31957,1325.48893 1260.31957,1349.24993 C1275.33944,1357.89824 1290.35931,1366.6339 1305.37918,1375.28221 C1319.26382,1383.31902 1333.23579,1391.35583 1347.12044,1399.39264 C1348.16834,1400.00413 1349.12891,1400.52827 1350.17681,1401.13977 C1353.6698,1403.14897 1354.80502,1406.73059 1354.80502,1410.39957 C1354.80502,1415.72833 1354.80502,1420.96973 1354.80502,1426.29848 C1354.80502,1455.21352 1354.80502,1484.04121 1354.80502,1512.95626 C1365.72062,1519.24593 1376.72355,1525.62297 1387.63915,1531.91264 L1398.0308,1531.91264 C1386.85323,1525.44825 1375.67565,1519.07122 1364.5854,1512.60683 C1361.79101,1510.94705 1360.04451,1507.88957 1360.04451,1504.65738 C1360.04451,1498.89184 1360.04451,1493.21366 1360.04451,1487.44812 C1360.04451,1458.53308 1360.04451,1429.70539 1360.04451,1400.79034 C1356.63884,1398.78114 1353.14585,1396.8593 1349.74018,1394.85009 C1323.19344,1379.56268 1296.6467,1364.18792 1270.09995,1348.90051 C1267.30556,1347.24073 1265.55906,1344.18325 1265.55906,1340.95105 C1265.55906,1330.81768 1265.55906,1320.68432 1265.55906,1310.6383 C1265.55906,1304.34863 1265.55906,1298.05895 1265.55906,1291.76927 C1265.55906,1286.70259 1265.03511,1281.37383 1270.2746,1278.31635 C1284.07192,1270.3669 1297.86924,1262.41744 1311.66656,1254.38063 C1313.50039,1253.33236 1315.33421,1252.19672 1317.25535,1251.14844 C1320.83567,1249.05188 1324.50331,1249.83809 1327.82165,1251.67258 C1332.44987,1254.29328 1336.99076,1257.00133 1341.61897,1259.62203 C1366.59387,1274.03588 1391.56877,1288.44972 1416.63099,1302.95092 C1420.03665,1301.02907 1423.44232,1299.01987 1426.84799,1297.01067 C1453.39473,1281.72326 1479.94148,1266.34849 1506.48822,1251.06108 C1508.06006,1250.18752 1509.54459,1249.75073 1510.94178,1249.75073 C1511.02911,1249.75073 1511.02911,1249.75073 1511.11643,1249.75073 C1511.20376,1249.75073 1511.20376,1249.75073 1511.29108,1249.75073 C1512.68828,1249.75073 1514.26013,1250.18752 1515.74465,1251.06108 C1524.47713,1256.12777 1533.20961,1261.19445 1542.02942,1266.26114 C1548.6661,1270.10483 1555.30279,1273.94852 1561.93947,1277.79221 C1565.43247,1279.80141 1567.52826,1282.94625 1567.52826,1287.05201 C1567.52826,1289.76007 1567.52826,1292.38077 1567.52826,1295.08882 C1567.52826,1310.37623 1567.52826,1325.66364 1567.52826,1340.8637 C1567.52826,1344.09589 1565.78176,1347.24073 1562.98737,1348.81315 C1558.00986,1351.69592 1553.11967,1354.57869 1548.14215,1357.3741 C1523.07993,1371.78794 1498.10504,1386.28914 1473.04282,1400.70299 C1473.04282,1404.63404 1473.04282,1408.56508 1473.04282,1412.58349 C1473.04282,1443.24567 1473.04282,1473.90784 1473.04282,1504.57002 C1473.04282,1507.80221 1471.29632,1510.94705 1468.50193,1512.51947 C1459.76944,1517.58616 1451.03696,1522.65284 1442.21716,1527.71953 C1439.77206,1529.11723 1437.41429,1530.51494 1434.9692,1531.91264 L1445.36085,1531.91264 C1456.27645,1525.62297 1467.27938,1519.24593 1478.19498,1512.95626 C1478.19498,1495.65964 1478.19498,1478.27567 1478.19498,1460.97906 C1478.19498,1444.90544 1478.19498,1428.83182 1478.19498,1412.7582 C1478.19498,1411.62257 1478.19498,1410.39957 1478.19498,1409.26394 C1478.19498,1405.24553 1480.64007,1402.45012 1483.87109,1400.61563 C1488.41198,1397.90758 1492.95287,1395.28688 1497.58109,1392.66618 Z M1680.43924,1504.04588 C1655.46435,1489.63204 1630.48945,1475.21819 1605.42723,1460.71699 C1600.62436,1463.5124 1595.8215,1466.30782 1591.01864,1469.01587 C1591.01864,1474.51934 1591.01864,1480.11016 1591.01864,1485.70099 C1606.0385,1494.34929 1621.05837,1503.08496 1636.07824,1511.73326 C1647.77976,1518.45972 1659.39396,1525.18618 1671.09549,1531.91264 L1681.48714,1531.91264 C1681.13784,1531.73793 1680.78854,1531.47586 1680.43924,1531.30115 C1653.8925,1516.01374 1627.34576,1500.63897 1600.79901,1485.35156 C1597.568,1483.51707 1596.25812,1480.6343 1596.34545,1477.83889 C1596.43277,1471.63657 1603.06946,1465.34689 1610.14277,1469.45265 C1615.12028,1472.33542 1620.01047,1475.21819 1624.98799,1478.0136 C1649.96288,1492.42745 1674.93778,1506.84129 1700,1521.34249 L1700,1513.91718 C1698.42815,1513.91718 1696.76898,1513.48039 1695.37178,1512.69419 C1690.30695,1509.81142 1685.41676,1506.92865 1680.43924,1504.04588 Z M1680.43924,1449.44799 C1655.46435,1435.03414 1630.48945,1420.6203 1605.42723,1406.1191 C1584.9059,1417.9996 1564.29724,1429.8801 1543.77591,1441.7606 C1543.77591,1465.52161 1543.77591,1489.19525 1543.77591,1512.95626 C1554.69151,1519.24593 1565.69444,1525.62297 1576.61004,1531.91264 L1587.00169,1531.91264 C1580.19036,1527.9816 1573.2917,1523.96319 1566.48036,1520.03214 C1562.3761,1517.67351 1558.27183,1515.22753 1554.08024,1512.8689 C1547.79285,1509.19992 1548.92808,1502.03668 1548.92808,1495.83436 C1548.92808,1480.54695 1548.92808,1465.25954 1548.92808,1450.05948 C1548.92808,1446.82729 1550.67457,1443.68245 1553.46897,1442.11003 C1553.55629,1442.11003 1553.55629,1442.02267 1553.64362,1442.02267 C1567.44094,1434.07322 1581.23826,1426.12377 1595.03558,1418.08696 C1596.8694,1417.03868 1598.70322,1415.9904 1600.62436,1414.85476 C1604.20468,1412.7582 1607.87232,1413.54441 1611.19067,1415.3789 C1615.81888,1417.9996 1620.35977,1420.70766 1624.98799,1423.32835 C1649.96288,1437.7422 1674.93778,1452.15604 1700,1466.65724 L1700,1459.14457 C1697.99153,1459.05722 1696.07038,1458.35836 1694.23656,1457.31008 C1689.60835,1454.77674 1684.98013,1452.15604 1680.43924,1449.44799 Z M1680.43924,1476.79061 C1655.46435,1462.37677 1630.48945,1447.96292 1605.42723,1433.46172 C1592.76513,1440.79968 1580.10303,1448.13764 1567.35361,1455.38824 C1567.35361,1470.06415 1567.35361,1484.65271 1567.35361,1499.32862 C1582.37348,1507.97693 1597.39335,1516.71259 1612.41321,1525.3609 C1616.16818,1527.54481 1620.01047,1529.72873 1623.76544,1531.91264 L1634.24442,1531.91264 C1619.0499,1523.08962 1603.85538,1514.35396 1588.57354,1505.53094 C1584.81857,1503.34703 1581.15093,1501.25047 1577.39596,1499.06655 C1573.20437,1496.62057 1572.5931,1492.60216 1572.5931,1488.32169 C1572.5931,1483.77914 1572.5931,1479.2366 1572.5931,1474.6067 C1572.5931,1471.02507 1572.5931,1467.53081 1572.5931,1463.94919 C1572.5931,1458.18365 1576.78469,1455.91238 1580.97628,1453.55375 C1587.61297,1449.71006 1594.16233,1445.95372 1600.79901,1442.11003 C1603.68073,1440.45025 1607.26105,1440.45025 1610.14277,1442.11003 C1615.12028,1444.9928 1620.01047,1447.87557 1624.98799,1450.67098 C1649.96288,1465.08482 1674.93778,1479.49867 1700,1493.99987 L1700,1486.57455 C1698.42815,1486.57455 1696.76898,1486.13777 1695.37178,1485.35156 C1690.30695,1482.46879 1685.41676,1479.67338 1680.43924,1476.79061 Z M1394.36316,1372.13737 C1380.47852,1364.10056 1366.50655,1356.06375 1352.6219,1348.02694 C1337.60203,1339.37863 1322.58217,1330.64297 1307.5623,1321.99467 C1307.5623,1316.4912 1307.5623,1310.90037 1307.5623,1305.39691 C1312.36516,1302.60149 1317.16803,1299.80608 1321.97089,1297.09803 C1346.94579,1311.51187 1371.92068,1325.92571 1396.9829,1340.42691 C1401.96042,1343.30968 1406.85061,1346.19245 1411.82812,1348.98786 C1414.70984,1350.64764 1418.29016,1350.64764 1421.17188,1348.98786 C1447.71862,1333.70045 1474.26536,1318.32569 1500.81211,1303.03828 C1504.21777,1301.11643 1507.62344,1299.10723 1511.02911,1297.09803 C1515.83197,1299.89344 1520.63484,1302.68885 1525.4377,1305.39691 C1525.4377,1310.98773 1525.4377,1316.4912 1525.4377,1322.08202 C1500.37548,1336.49587 1475.40059,1350.99707 1450.33836,1365.41091 C1445.36085,1368.29368 1440.47066,1371.17645 1435.49315,1373.97186 C1432.69875,1375.63164 1430.95226,1378.68912 1430.95226,1381.92131 C1430.95226,1412.58349 1430.95226,1443.24567 1430.95226,1473.90784 C1430.95226,1477.83889 1430.95226,1481.76994 1430.95226,1485.78834 C1426.14939,1488.58376 1421.34653,1491.29181 1416.54366,1494.08722 C1411.7408,1491.29181 1406.93793,1488.58376 1402.13507,1485.78834 C1402.13507,1456.8733 1402.13507,1428.04561 1402.13507,1399.13057 C1402.13507,1393.80181 1402.13507,1388.56042 1402.13507,1383.23166 C1402.13507,1379.56268 1400.99985,1375.98106 1397.50685,1373.97186 C1396.45896,1373.36036 1395.41106,1372.74887 1394.36316,1372.13737 Z M1396.9829,1367.59483 C1400.38857,1369.60403 1403.88156,1371.52587 1407.28723,1373.53508 C1407.28723,1402.45012 1407.28723,1431.27781 1407.28723,1460.19285 C1407.28723,1465.95839 1407.28723,1471.63657 1407.28723,1477.40211 C1407.28723,1478.53774 1407.46188,1479.49867 1407.72386,1480.45959 C1410.51825,1489.19525 1425.71277,1488.23433 1425.71277,1477.40211 C1425.71277,1446.73993 1425.71277,1416.07775 1425.71277,1385.41558 C1425.71277,1381.48453 1425.71277,1377.55348 1425.71277,1373.53508 C1432.08748,1369.8661 1438.54951,1366.10976 1444.92423,1362.44078 C1463.52441,1351.69592 1482.1246,1340.95105 1500.72478,1330.20619 C1505.70229,1327.32342 1510.59248,1324.44065 1515.57,1321.64524 C1516.53057,1321.1211 1517.31649,1320.42225 1517.92777,1319.72339 C1524.04051,1312.90958 1515.57,1300.33022 1506.22624,1305.74633 C1481.94995,1319.81075 1457.58632,1333.87517 1433.31003,1347.85223 C1431.12691,1349.16258 1428.85646,1350.38557 1426.67334,1351.69592 C1423.26767,1353.70512 1419.86201,1355.62697 1416.45634,1357.63617 C1391.48144,1343.22233 1366.50655,1328.80848 1341.44432,1314.30728 C1336.46681,1311.42451 1331.57662,1308.54174 1326.59911,1305.74633 C1321.09764,1302.60149 1315.94548,1305.57162 1313.84968,1310.02681 C1312.01586,1313.95786 1312.53981,1318.93718 1317.34268,1321.64524 C1343.88942,1336.93265 1370.43616,1352.30742 1396.9829,1367.59483 Z M1378.47004,1412.67085 C1378.47004,1406.90531 1378.47004,1401.22713 1378.47004,1395.46159 C1378.47004,1392.22939 1376.72355,1389.08456 1373.92915,1387.51214 C1347.38241,1372.22473 1320.83567,1356.84996 1294.28893,1341.56255 C1290.88326,1339.55335 1287.39027,1337.6315 1283.9846,1335.6223 C1283.9846,1320.94639 1283.9846,1306.35783 1283.9846,1291.68192 C1296.6467,1284.34396 1309.30879,1277.006 1322.05822,1269.7554 C1347.03311,1284.16925 1372.00801,1298.58309 1397.07023,1313.08429 C1401.69844,1315.70499 1406.23933,1318.41304 1410.86755,1321.03374 C1414.09857,1322.95559 1417.76621,1323.65444 1421.34653,1321.64524 C1422.39442,1321.03374 1423.355,1320.5096 1424.4029,1319.89811 C1438.28754,1311.8613 1452.25951,1303.82449 1466.14416,1295.78768 C1481.16402,1287.13937 1496.09657,1278.49106 1511.11643,1269.84276 C1523.77853,1277.18071 1536.44063,1284.51867 1549.19005,1291.76927 C1549.19005,1306.44519 1549.19005,1321.03374 1549.19005,1335.70966 C1524.12783,1350.1235 1499.15293,1364.6247 1474.09071,1379.03854 C1469.4625,1381.65924 1464.92161,1384.3673 1460.29339,1386.988 C1457.06237,1388.82249 1454.61728,1391.6179 1454.61728,1395.6363 C1454.61728,1396.77194 1454.61728,1397.99493 1454.61728,1399.13057 C1454.61728,1415.20419 1454.61728,1431.27781 1454.61728,1447.35143 C1454.61728,1464.64804 1454.61728,1482.03201 1454.61728,1499.32862 C1441.95518,1506.66658 1429.29308,1514.00453 1416.54366,1521.25513 C1403.88156,1513.91718 1391.21947,1506.57922 1378.47004,1499.32862 C1378.47004,1470.50093 1378.47004,1441.58589 1378.47004,1412.67085 Z M1383.62221,1387.25007 C1383.62221,1416.16511 1383.62221,1444.9928 1383.62221,1473.90784 C1383.62221,1479.67338 1383.62221,1485.35156 1383.62221,1491.1171 C1383.62221,1494.34929 1385.3687,1497.49413 1388.1631,1499.06655 C1392.18004,1501.42518 1396.19698,1503.69645 1400.21392,1506.05508 C1402.92099,1507.6275 1405.62806,1509.19992 1408.33513,1510.77234 C1410.86755,1512.2574 1413.31264,1514.00453 1416.36901,1514.00453 C1419.33806,1514.00453 1421.6085,1512.43212 1424.0536,1511.03441 C1426.76067,1509.46199 1429.38041,1507.97693 1432.08748,1506.40451 C1436.27907,1503.95852 1440.47066,1501.51254 1444.66225,1499.15391 C1447.45665,1497.49413 1449.20314,1494.43665 1449.20314,1491.20445 C1449.20314,1460.54228 1449.20314,1429.8801 1449.20314,1399.21792 C1449.20314,1395.28688 1449.20314,1391.35583 1449.20314,1387.33742 C1474.26536,1372.92358 1499.24026,1358.42238 1524.30248,1344.00854 C1528.93069,1341.38784 1533.47158,1338.67978 1538.0998,1336.05908 C1541.41814,1334.13724 1543.77591,1331.25447 1543.77591,1327.14871 C1543.77591,1323.56708 1543.77591,1320.07282 1543.77591,1316.4912 C1543.77591,1311.94865 1543.77591,1307.40611 1543.77591,1302.77621 C1543.77591,1301.90264 1543.77591,1301.02907 1543.77591,1300.06815 C1543.77591,1296.22446 1541.41814,1293.34169 1538.27445,1291.59456 C1531.11381,1287.4888 1523.95318,1283.29568 1516.79255,1279.18992 C1516.44325,1278.92785 1516.00662,1278.75313 1515.65732,1278.49106 C1514.08548,1277.6175 1512.60095,1277.18071 1511.11643,1277.18071 C1511.11643,1277.18071 1511.02911,1277.18071 1511.02911,1277.18071 C1510.94178,1277.18071 1510.85446,1277.18071 1510.76713,1277.18071 C1509.36994,1277.18071 1507.88542,1277.6175 1506.40089,1278.49106 C1479.85415,1293.77847 1453.30741,1309.15324 1426.76067,1324.44065 C1423.355,1326.44985 1419.94933,1328.3717 1416.54366,1330.3809 C1391.56877,1315.96706 1366.59387,1301.55321 1341.53165,1287.05201 C1336.55414,1284.16925 1331.66395,1281.28648 1326.68643,1278.49106 C1323.80471,1276.83129 1320.2244,1276.83129 1317.34268,1278.49106 C1313.32574,1280.84969 1309.30879,1283.12097 1305.29185,1285.47959 C1302.58478,1287.05201 1299.87771,1288.62443 1297.17065,1290.19685 C1294.72555,1291.59456 1292.01848,1292.90491 1290.44663,1295.43825 C1288.96211,1297.97159 1289.22409,1300.767 1289.22409,1303.56242 C1289.22409,1306.6199 1289.22409,1309.67738 1289.22409,1312.82222 C1289.22409,1317.71419 1289.22409,1322.51881 1289.22409,1327.41078 C1289.22409,1330.64297 1290.97058,1333.78781 1293.76498,1335.36023 C1320.31172,1350.64764 1346.85846,1366.02241 1373.40521,1381.30982 C1376.81087,1383.23166 1380.21654,1385.24086 1383.62221,1387.25007 Z M1147.40859,1310.11416 C1147.40859,1279.45199 1147.40859,1248.78981 1147.40859,1218.12763 C1147.40859,1214.89544 1149.15509,1211.7506 1151.94948,1210.17818 C1155.26783,1208.25634 1158.49884,1206.42185 1161.81719,1204.5 C1163.47636,1203.53908 1165.13553,1202.57815 1166.88203,1201.61723 C1191.94425,1187.20339 1216.91914,1172.70219 1241.98136,1158.28834 C1241.98136,1152.69752 1241.98136,1147.19405 1241.98136,1141.69058 C1237.1785,1138.89517 1232.37564,1136.09976 1227.57277,1133.3917 C1224.1671,1135.31355 1220.76144,1137.32275 1217.35577,1139.33196 C1190.80903,1154.61937 1164.26228,1169.99413 1137.71554,1185.28154 C1136.31834,1186.06775 1134.65917,1186.50453 1133.08732,1186.50453 L1133.08732,1193.92985 C1133.52395,1193.66778 1133.87325,1193.49306 1134.30987,1193.23099 C1137.27892,1191.48386 1140.33528,1189.73673 1143.30433,1187.9896 C1150.98891,1183.53441 1158.58617,1179.16658 1166.27075,1174.71139 C1185.13291,1163.79181 1203.99507,1152.87223 1222.94456,1142.04001 C1231.67704,1136.97333 1239.62359,1147.54348 1235.69398,1154.53201 C1234.99538,1155.84236 1233.86016,1156.97799 1232.20099,1157.93892 C1227.22347,1160.82169 1222.33328,1163.70445 1217.35577,1166.49987 C1195.43724,1179.16658 1173.43139,1191.83329 1151.51286,1204.5 C1148.45649,1206.24713 1145.40012,1208.08162 1142.25643,1209.82875 C1142.25643,1213.7598 1142.25643,1217.69085 1142.25643,1221.70926 C1142.25643,1252.37143 1142.25643,1283.03361 1142.25643,1313.69579 C1142.25643,1315.18085 1141.99446,1316.4912 1141.47051,1317.62683 C1139.89866,1320.94639 1136.49299,1322.60616 1133,1322.60616 L1133,1330.29354 C1137.80286,1327.49813 1142.60573,1324.79008 1147.40859,1321.99467 C1147.40859,1318.06362 1147.40859,1314.13257 1147.40859,1310.11416 Z M1683.75759,1014.84876 C1679.74064,1012.49013 1675.7237,1010.21886 1671.70676,1007.86023 C1668.91237,1006.20045 1667.16587,1003.14297 1667.16587,999.910776 C1667.16587,994.145239 1667.16587,988.467058 1667.16587,982.70152 C1667.16587,953.786476 1667.16587,924.958789 1667.16587,896.043745 C1663.7602,894.034543 1660.26721,892.112697 1656.86154,890.103494 C1649.26428,885.735663 1641.75435,881.455188 1634.24442,877.087357 L1623.85276,877.087357 C1635.03034,883.551747 1646.12059,890.016138 1657.29817,896.393172 C1660.09256,898.052947 1661.83906,901.110429 1661.83906,904.342625 C1661.83906,910.108162 1661.83906,915.786343 1661.83906,921.551881 C1661.83906,950.466925 1661.83906,979.294612 1661.83906,1008.20966 C1674.50116,1015.54761 1687.16325,1022.88557 1699.91268,1030.13617 L1699.91268,1022.71086 C1696.85631,1022.71086 1694.41121,1020.96372 1691.87879,1019.47866 C1689.17172,1017.90624 1686.46465,1016.42118 1683.75759,1014.84876 Z M1171.07362,956.232462 C1171.07362,940.158842 1171.07362,924.085223 1171.07362,908.011603 C1171.07362,906.875967 1171.07362,905.652974 1171.07362,904.517338 C1171.07362,900.498933 1173.51871,897.703521 1176.74973,895.869032 C1181.37795,893.248333 1185.91884,890.540277 1190.54705,887.919579 C1196.65979,884.2506 1202.85985,880.668978 1209.05991,877.087357 L1198.66826,877.087357 C1187.75266,883.377034 1176.74973,889.754068 1165.83413,896.043745 C1165.83413,899.974793 1165.83413,903.905842 1165.83413,907.924246 C1165.83413,938.586423 1165.83413,969.2486 1165.83413,999.910776 C1165.83413,1003.14297 1164.08763,1006.28781 1161.29324,1007.86023 C1157.10165,1010.30621 1152.91006,1012.7522 1148.71847,1015.11083 C1146.0114,1016.68325 1143.39165,1018.16831 1140.68458,1019.74073 C1138.23949,1021.13844 1135.96904,1022.71086 1133,1022.71086 L1133,1030.13617 C1145.6621,1022.79821 1158.3242,1015.46026 1171.07362,1008.20966 C1171.07362,990.825687 1171.07362,973.529074 1171.07362,956.232462 Z M1194.65132,969.860096 C1194.65132,953.786476 1194.65132,937.712857 1194.65132,921.639237 C1194.65132,920.503601 1194.65132,919.280608 1194.65132,918.144972 C1194.65132,914.126567 1197.09641,911.331155 1200.32743,909.496666 C1204.95564,906.875967 1209.49653,904.167911 1214.12475,901.547213 C1228.18404,893.33569 1242.24334,885.211523 1256.30263,877.087357 L1245.91098,877.087357 C1227.04882,887.919579 1208.27399,898.839157 1189.41183,909.671379 C1189.41183,913.602427 1189.41183,917.533476 1189.41183,921.551881 C1189.41183,952.214057 1189.41183,982.876234 1189.41183,1013.53841 C1189.41183,1016.77061 1187.66533,1019.91544 1184.87094,1021.48786 C1176.13846,1026.55455 1167.40598,1031.62123 1158.58617,1036.68792 C1151.94948,1040.53161 1145.3128,1044.3753 1138.67611,1048.21899 C1136.84229,1049.26727 1134.92115,1049.87877 1133,1049.87877 L1133,1057.47879 C1153.52133,1045.59829 1174.12999,1033.71779 1194.65132,1021.83729 C1194.65132,1004.54068 1194.65132,987.156708 1194.65132,969.860096 Z M1690.74357,986.195786 C1690.74357,986.195786 1690.74357,986.195786 1690.74357,986.195786 C1690.74357,980.430248 1690.74357,974.752067 1690.74357,968.98653 C1690.74357,968.98653 1690.74357,968.98653 1690.74357,968.98653 C1690.74357,940.071486 1690.74357,911.243798 1690.74357,882.328754 C1687.6872,880.581622 1684.63083,878.747133 1681.48714,877 L1671.09549,877 C1673.36593,878.310349 1675.54905,879.620699 1677.8195,880.931048 C1678.8674,881.542545 1679.82797,882.066684 1680.87587,882.678181 C1684.36886,884.687383 1685.50408,888.269005 1685.50408,891.937983 C1685.50408,897.266738 1685.50408,902.508136 1685.50408,907.83689 C1685.50408,936.751934 1685.50408,965.579621 1685.50408,994.494665 C1690.30695,997.290077 1695.10981,999.998133 1699.91268,1002.79354 C1699.91268,1002.79354 1699.91268,1002.79354 1699.91268,1002.79354 L1699.91268,995.106162 C1695.37178,995.193518 1690.74357,992.223393 1690.74357,986.195786 Z M1680.43924,1094.78007 C1655.46435,1080.36623 1630.48945,1065.95239 1605.42723,1051.45119 C1602.02156,1053.46039 1598.61589,1055.38224 1595.21023,1057.39144 C1570.14801,1071.80528 1545.17311,1086.30648 1520.11089,1100.72033 C1520.11089,1104.65137 1520.11089,1108.58242 1520.11089,1112.60083 C1520.11089,1141.51587 1520.11089,1170.34356 1520.11089,1199.2586 C1520.28554,1199.34596 1520.54751,1199.52067 1520.72216,1199.60803 C1523.60388,1201.2678 1526.4856,1202.92758 1529.27999,1204.58736 C1541.24349,1211.48853 1553.20699,1218.3897 1565.17049,1225.29088 C1579.05514,1233.32769 1593.02711,1241.3645 1606.91175,1249.40131 C1607.95965,1250.0128 1608.92022,1250.53694 1609.96812,1251.14844 C1613.46111,1253.15764 1614.59633,1256.73926 1614.59633,1260.40824 C1614.59633,1265.737 1614.59633,1270.97839 1614.59633,1276.30715 C1614.59633,1305.22219 1614.59633,1334.04988 1614.59633,1362.96492 C1618.002,1364.97413 1621.49499,1366.89597 1624.90066,1368.90517 C1649.87556,1383.31902 1674.85045,1397.73286 1699.91268,1412.23406 L1699.91268,1404.63404 C1698.34083,1404.72139 1696.76898,1404.37197 1695.28446,1403.58576 C1671.61944,1389.95812 1648.04174,1376.33049 1624.37671,1362.70285 C1621.58232,1361.04308 1619.83582,1357.9856 1619.83582,1354.7534 C1619.83582,1348.98786 1619.83582,1343.30968 1619.83582,1337.54415 C1619.83582,1308.6291 1619.83582,1279.80141 1619.83582,1250.88637 C1616.43016,1248.87717 1612.93716,1246.95532 1609.5315,1244.94612 C1586.3031,1231.4932 1562.98737,1218.04028 1539.75897,1204.67471 L1539.75897,1204.67471 C1538.97305,1204.23793 1538.18712,1203.71379 1537.4012,1203.27701 C1532.51101,1200.4816 1525.35038,1197.68618 1525.35038,1191.04708 C1525.35038,1163.79181 1525.35038,1136.44919 1525.35038,1109.19392 C1525.35038,1105.96172 1527.09687,1102.81688 1529.89127,1101.24447 C1536.7026,1097.31342 1543.51394,1093.38237 1550.32527,1089.45132 C1565.78176,1080.54094 1581.23826,1071.63057 1596.69475,1062.63284 C1598.00462,1061.84663 1599.31449,1061.14777 1600.62436,1060.36156 C1604.20468,1058.35236 1607.87232,1059.05121 1611.10334,1060.97306 C1615.73156,1063.59376 1620.27245,1066.30181 1624.90066,1068.92251 C1649.87556,1083.33636 1674.85045,1097.7502 1699.91268,1112.2514 L1699.91268,1104.73873 C1697.9042,1104.65137 1695.98306,1103.95252 1694.14924,1102.90424 C1689.60835,1100.02147 1684.98013,1097.40077 1680.43924,1094.78007 Z M1687.6872,1044.3753 C1674.50116,1036.77527 1661.22778,1029.08789 1648.04174,1021.48786 C1645.24734,1019.82809 1643.50085,1016.77061 1643.50085,1013.53841 C1643.50085,1007.77287 1643.50085,1002.09469 1643.50085,996.329154 C1643.50085,967.41411 1643.50085,938.586423 1643.50085,909.671379 C1640.09518,907.662177 1636.60219,905.740331 1633.19652,903.731128 C1617.82735,894.820752 1602.37086,885.997733 1587.00169,877.087357 L1576.61004,877.087357 C1580.71431,879.445986 1584.73125,881.804615 1588.83552,884.163244 C1602.72016,892.200053 1616.69213,900.236863 1630.57677,908.273673 C1631.62467,908.885169 1632.58525,909.409309 1633.63314,910.020806 C1637.12614,912.030008 1638.26136,915.61163 1638.26136,919.280608 C1638.26136,924.609362 1638.26136,929.85076 1638.26136,935.179515 C1638.26136,964.094559 1638.26136,992.922246 1638.26136,1021.83729 C1658.78269,1033.71779 1679.39134,1045.59829 1699.91268,1057.47879 C1699.91268,1057.47879 1699.91268,1057.47879 1699.91268,1057.47879 L1699.91268,1049.87877 C1698.16618,1049.87877 1696.41968,1049.44198 1694.67319,1048.48106 C1692.31542,1047.08336 1690.04497,1045.68565 1687.6872,1044.3753 Z M1236.74188,937.014004 C1261.8041,922.60016 1286.77899,908.09896 1311.84121,893.685116 C1315.24688,891.675914 1318.65255,889.754068 1322.05822,887.744865 C1347.03311,902.158709 1372.00801,916.572553 1397.07023,931.073753 C1401.69844,933.694452 1406.23933,936.402507 1410.86755,939.023206 C1414.09857,940.945052 1417.76621,941.643905 1421.34653,939.634703 C1422.39442,939.023206 1423.355,938.499066 1424.4029,937.88757 C1438.28754,929.85076 1452.25951,921.81395 1466.14416,913.777141 C1481.16402,905.128834 1496.09657,896.480528 1511.11643,887.832222 C1536.09133,902.246066 1561.06623,916.659909 1586.12845,931.16111 C1589.53411,933.170312 1593.02711,935.092158 1596.43277,937.10136 C1596.43277,966.016404 1596.43277,994.844092 1596.43277,1023.75914 C1596.43277,1027.69018 1596.43277,1031.62123 1596.43277,1035.63964 C1582.98475,1043.41438 1569.53673,1051.18912 1556.17604,1058.8765 C1541.33082,1067.43745 1526.57292,1075.9984 1511.72771,1084.55935 C1507.09949,1087.18005 1501.94733,1089.36396 1501.94733,1095.82835 C1501.94733,1100.10883 1501.94733,1104.47666 1501.94733,1108.75714 C1501.94733,1138.98253 1501.94733,1169.12057 1501.94733,1199.34596 C1499.67688,1200.65631 1497.31911,1201.96666 1495.04867,1203.27701 C1494.26274,1203.71379 1493.47682,1204.15057 1492.6909,1204.58736 C1470.77237,1217.25407 1448.76652,1229.92078 1426.84799,1242.58749 C1423.44232,1244.50934 1420.03665,1246.51854 1416.63099,1248.52774 C1391.65609,1234.1139 1366.6812,1219.70005 1341.61897,1205.19885 C1341.26968,1205.02414 1340.92038,1204.76207 1340.57108,1204.58736 C1337.51471,1202.84022 1334.45834,1201.00573 1331.31465,1199.2586 C1331.31465,1170.34356 1331.31465,1141.51587 1331.31465,1112.60083 C1331.31465,1107.27207 1331.31465,1102.03067 1331.31465,1096.70192 C1331.31465,1093.03294 1330.17942,1089.45132 1326.68643,1087.44212 C1325.63853,1086.83062 1324.67796,1086.30648 1323.63006,1085.69499 C1309.74542,1077.65818 1295.77345,1069.62137 1281.8888,1061.58456 C1266.86894,1052.93625 1251.84907,1044.20059 1236.8292,1035.55228 C1236.8292,1006.63724 1236.8292,977.809549 1236.8292,948.894505 C1236.74188,944.8761 1236.74188,940.945052 1236.74188,937.014004 Z M1241.89404,1027.16604 C1241.89404,1030.39824 1243.64054,1033.54308 1246.43493,1035.1155 C1272.98167,1050.40291 1299.52842,1065.77767 1326.07516,1081.06508 C1329.48083,1083.07429 1332.97382,1084.99613 1336.37949,1087.00533 C1336.37949,1115.92038 1336.37949,1144.74807 1336.37949,1173.66311 C1336.37949,1179.42865 1336.37949,1185.10683 1336.37949,1190.87237 C1336.37949,1194.10456 1338.12598,1197.2494 1340.92038,1198.82182 C1344.23872,1200.74366 1347.46974,1202.57815 1350.78808,1204.5 L1350.78808,1204.5 C1371.13476,1216.20579 1391.48144,1227.99893 1411.82812,1239.70472 C1414.70984,1241.3645 1418.29016,1241.3645 1421.17188,1239.70472 C1441.51856,1227.99893 1461.86524,1216.20579 1482.21192,1204.5 L1482.21192,1204.5 C1485.44294,1202.66551 1488.67396,1200.74366 1491.9923,1198.90918 C1491.9923,1198.90918 1492.07962,1198.90918 1492.07962,1198.82182 C1494.87402,1197.16204 1496.62051,1194.10456 1496.62051,1190.87237 C1496.62051,1160.21019 1496.62051,1129.54801 1496.62051,1098.88584 C1496.62051,1094.95479 1496.62051,1091.02374 1496.62051,1087.00533 C1521.68274,1072.59149 1546.65763,1058.09029 1571.71985,1043.67645 C1576.34807,1041.05575 1580.88896,1038.34769 1585.51717,1035.72699 C1588.74819,1033.8925 1591.19329,1031.09709 1591.19329,1027.07869 C1591.19329,1025.59362 1591.19329,1024.02121 1591.19329,1022.53614 C1591.19329,1004.71539 1591.19329,986.807282 1591.19329,968.98653 C1591.19329,961.910643 1591.19329,954.922113 1591.19329,947.846226 C1591.19329,943.740464 1590.75666,939.722059 1586.65239,937.36343 C1585.6045,936.751934 1584.64392,936.227794 1583.59603,935.616298 C1568.48883,926.880635 1553.29432,918.144972 1538.18712,909.409309 C1530.67719,905.128834 1523.25458,900.761003 1515.74465,896.480528 C1514.1728,895.606962 1512.68828,895.170179 1511.29108,895.170179 C1511.20376,895.170179 1511.20376,895.170179 1511.11643,895.170179 C1511.02911,895.170179 1510.94178,895.170179 1510.94178,895.170179 C1509.54459,895.170179 1508.06006,895.606962 1506.48822,896.480528 C1479.94148,911.767938 1453.39473,927.142705 1426.84799,942.430115 C1423.44232,944.439317 1420.03665,946.361163 1416.63099,948.370365 C1391.48144,933.869165 1366.50655,919.455321 1341.53165,905.041478 C1336.90343,902.420779 1332.36254,899.712723 1327.73433,897.092025 C1324.50331,895.170179 1320.74834,894.471326 1317.25535,896.480528 C1315.94548,897.266738 1314.63561,897.965591 1313.32574,898.7518 C1297.86924,907.662177 1282.41275,916.572553 1266.95626,925.570285 C1260.84352,929.064551 1254.73079,932.646172 1248.70538,936.140437 C1245.12506,938.14964 1241.98136,940.595626 1241.98136,945.40024 C1241.98136,946.535876 1241.98136,947.758869 1241.98136,948.894505 C1241.98136,966.365831 1241.98136,983.837157 1241.98136,1001.30848 C1241.89404,1009.86943 1241.89404,1018.51774 1241.89404,1027.16604 Z M1218.31634,1035.46492 C1218.31634,1018.16831 1218.31634,1000.78434 1218.31634,983.48773 C1218.31634,967.41411 1218.31634,951.340491 1218.31634,935.266871 C1218.31634,934.131235 1218.31634,932.908242 1218.31634,931.772606 C1218.31634,927.754201 1220.76144,924.958789 1223.99245,923.1243 C1228.62067,920.503601 1233.16156,917.795545 1237.78977,915.174847 C1259.62098,902.420779 1281.62683,889.754068 1303.54536,877.087357 L1293.1537,877.087357 C1291.49453,878.04828 1289.83536,879.009202 1288.17619,879.970125 C1263.11397,894.471326 1238.13907,908.885169 1213.07685,923.38637 C1213.07685,927.317418 1213.07685,931.248466 1213.07685,935.266871 C1213.07685,965.929048 1213.07685,996.591224 1213.07685,1027.2534 C1213.07685,1030.4856 1211.33036,1033.63043 1208.53596,1035.20285 C1208.53596,1035.20285 1208.44864,1035.20285 1208.44864,1035.29021 C1195.96119,1042.54081 1183.47374,1049.70405 1170.98629,1056.95465 C1163.03974,1061.4972 1155.09318,1066.1271 1147.23394,1070.66965 C1143.217,1072.94092 1138.06484,1077.04668 1133.08732,1077.22139 L1133.08732,1084.82142 C1136.49299,1082.81222 1139.89866,1080.89037 1143.30433,1078.88117 C1168.1919,1064.37997 1193.25412,1049.96612 1218.31634,1035.46492 Z M1305.37918,1047.86957 C1290.35931,1039.22126 1275.33944,1030.4856 1260.31957,1021.83729 C1260.31957,998.076287 1260.31957,974.402641 1260.31957,950.641638 C1280.84091,938.761136 1301.44956,926.880635 1321.97089,915.000133 C1346.94579,929.413977 1371.92068,943.827821 1396.9829,958.329021 C1401.61112,960.94972 1406.15201,963.657775 1410.78022,966.278474 C1414.01124,968.20032 1417.67888,968.899173 1421.2592,966.889971 C1422.3071,966.278474 1423.26767,965.754334 1424.31557,965.142838 C1438.20022,957.106028 1452.17219,949.069218 1466.05683,941.032409 C1481.0767,932.384102 1496.00924,923.735796 1511.02911,915.08749 C1531.55044,926.967991 1552.15909,938.848493 1572.68043,950.728994 C1572.68043,974.489997 1572.68043,998.163644 1572.68043,1021.92465 C1547.6182,1036.33849 1522.64331,1050.83969 1497.58109,1065.25353 C1492.95287,1067.87423 1488.41198,1070.58229 1483.78377,1073.20299 C1480.55275,1075.03748 1478.10765,1077.83289 1478.10765,1081.85129 C1478.10765,1082.98693 1478.10765,1084.20992 1478.10765,1085.34556 C1478.10765,1101.41918 1478.10765,1117.4928 1478.10765,1133.56642 C1478.10765,1150.86303 1478.10765,1168.247 1478.10765,1185.54361 C1467.19205,1191.83329 1456.18913,1198.21032 1445.27353,1204.5 L1445.27353,1204.5 C1435.6678,1210.00347 1426.06207,1215.59429 1416.45634,1221.09776 C1406.85061,1215.59429 1397.24488,1210.00347 1387.63915,1204.5 L1387.63915,1204.5 C1376.72355,1198.21032 1365.72062,1191.83329 1354.80502,1185.54361 C1354.80502,1156.62857 1354.80502,1127.80088 1354.80502,1098.88584 C1354.80502,1093.55708 1354.80502,1088.31568 1354.80502,1082.98693 C1354.80502,1079.31795 1353.6698,1075.73633 1350.17681,1073.72713 C1349.12891,1073.11563 1348.16834,1072.59149 1347.12044,1071.97999 C1333.23579,1063.94318 1319.35115,1055.90638 1305.37918,1047.86957 Z M1270.09995,1021.48786 C1296.6467,1036.77527 1323.19344,1052.15004 1349.74018,1067.43745 C1353.14585,1069.44665 1356.63884,1071.3685 1360.04451,1073.3777 C1360.04451,1102.29274 1360.04451,1131.12043 1360.04451,1160.03548 C1360.04451,1165.80101 1360.04451,1171.47919 1360.04451,1177.24473 C1360.04451,1180.47693 1361.79101,1183.62177 1364.5854,1185.19419 C1375.76298,1191.65858 1386.94055,1198.03561 1398.0308,1204.5 L1398.0308,1204.5 C1402.65902,1207.1207 1407.19991,1209.82875 1411.82812,1212.44945 C1414.70984,1214.10923 1418.29016,1214.10923 1421.17188,1212.44945 C1425.80009,1209.82875 1430.34098,1207.1207 1434.9692,1204.5 L1434.9692,1204.5 C1437.41429,1203.10229 1439.77206,1201.70459 1442.21716,1200.30688 C1450.94964,1195.2402 1459.76944,1190.17351 1468.50193,1185.10683 C1471.29632,1183.44705 1473.04282,1180.38957 1473.04282,1177.15738 C1473.04282,1146.4952 1473.04282,1115.83302 1473.04282,1085.17085 C1473.04282,1081.2398 1473.04282,1077.30875 1473.04282,1073.29034 C1498.10504,1058.8765 1523.07993,1044.3753 1548.14215,1029.96146 C1553.11967,1027.07869 1558.00986,1024.19592 1562.98737,1021.40051 C1565.78176,1019.74073 1567.52826,1016.68325 1567.52826,1013.45105 C1567.52826,998.163644 1567.52826,982.876234 1567.52826,967.67618 C1567.52826,964.968125 1567.52826,962.347426 1567.52826,959.63937 C1567.52826,955.446252 1565.34514,952.38877 1561.93947,950.379568 C1555.30279,946.535876 1548.6661,942.692185 1542.02942,938.848493 C1533.29694,933.781808 1524.56445,928.715124 1515.74465,923.64844 C1514.1728,922.774873 1512.68828,922.33809 1511.29108,922.33809 C1511.20376,922.33809 1511.20376,922.33809 1511.11643,922.33809 C1511.02911,922.33809 1511.02911,922.33809 1510.94178,922.33809 C1509.54459,922.33809 1507.97274,922.774873 1506.48822,923.64844 C1479.94148,938.93585 1453.39473,954.310616 1426.84799,969.598026 C1423.44232,971.519872 1420.03665,973.529074 1416.63099,975.538277 C1391.65609,961.124433 1366.6812,946.710589 1341.61897,932.209389 C1336.99076,929.58869 1332.44987,926.880635 1327.82165,924.259936 C1324.50331,922.33809 1320.83567,921.639237 1317.25535,923.735796 C1315.42153,924.784076 1313.58771,925.832355 1311.66656,926.967991 C1297.86924,934.917445 1284.07192,942.866898 1270.2746,950.903708 C1264.94779,953.96119 1265.55906,959.289944 1265.55906,964.356628 C1265.55906,970.646306 1265.55906,976.935983 1265.55906,983.22566 C1265.55906,993.359029 1265.55906,1003.40504 1265.55906,1013.53841 C1265.55906,1016.77061 1267.30556,1019.82809 1270.09995,1021.48786 Z M1416.45634,921.027741 C1419.86201,919.018538 1423.26767,917.096692 1426.67334,915.08749 C1448.59187,902.420779 1470.59772,889.754068 1492.51625,877.087357 L1482.1246,877.087357 C1461.77791,888.793145 1441.43123,900.58629 1421.08455,912.292078 C1418.20283,913.951854 1414.62252,913.951854 1411.7408,912.292078 C1391.48144,900.58629 1371.13476,888.793145 1350.78808,877.087357 L1340.39643,877.087357 C1340.74573,877.26207 1341.09503,877.52414 1341.44432,877.698853 C1366.50655,892.112697 1391.48144,906.613897 1416.45634,921.027741 Z M1680.43924,1176.63324 C1655.46435,1162.21939 1630.48945,1147.80555 1605.42723,1133.30435 C1600.62436,1136.09976 1595.8215,1138.89517 1591.01864,1141.60323 C1591.01864,1147.19405 1591.01864,1152.69752 1591.01864,1158.28834 C1606.0385,1166.93665 1621.05837,1175.67231 1636.07824,1184.32062 C1647.77976,1191.04708 1659.39396,1197.77354 1671.09549,1204.5 L1671.09549,1204.5 C1673.36593,1205.81035 1675.54905,1207.1207 1677.8195,1208.43105 C1678.8674,1209.04254 1679.82797,1209.56668 1680.87587,1210.17818 C1684.36886,1212.18738 1685.50408,1215.76901 1685.50408,1219.43798 C1685.50408,1224.76674 1685.50408,1230.00814 1685.50408,1235.33689 C1685.50408,1264.25193 1685.50408,1293.07962 1685.50408,1321.99467 C1690.30695,1324.79008 1695.10981,1327.49813 1699.91268,1330.29354 C1699.91268,1330.29354 1699.91268,1330.29354 1699.91268,1330.29354 L1699.91268,1322.60616 C1695.28446,1322.60616 1690.65625,1319.63604 1690.65625,1313.69579 C1690.65625,1313.69579 1690.65625,1313.69579 1690.65625,1313.69579 C1690.65625,1307.93025 1690.65625,1302.25207 1690.65625,1296.48653 C1690.65625,1296.48653 1690.65625,1296.48653 1690.65625,1296.48653 C1690.65625,1267.57149 1690.65625,1238.7438 1690.65625,1209.82875 C1687.59988,1208.08162 1684.54351,1206.24713 1681.39982,1204.5 L1681.39982,1204.5 C1681.05052,1204.32529 1680.70122,1204.06322 1680.35192,1203.8885 C1653.80517,1188.60109 1627.25843,1173.22633 1600.71169,1157.93892 C1597.48067,1156.10443 1596.1708,1153.22166 1596.25812,1150.42625 C1596.34545,1144.22393 1602.98213,1137.93425 1610.05544,1142.04001 C1615.03296,1144.92278 1619.92315,1147.80555 1624.90066,1150.60096 C1649.87556,1165.0148 1674.85045,1179.42865 1699.91268,1193.92985 L1699.91268,1186.50453 C1698.34083,1186.50453 1696.68166,1186.06775 1695.28446,1185.28154 C1690.30695,1182.31142 1685.41676,1179.516 1680.43924,1176.63324 Z M1695.28446,1076.08576 C1671.61944,1062.45812 1648.04174,1048.83049 1624.37671,1035.20285 C1621.58232,1033.54308 1619.83582,1030.4856 1619.83582,1027.2534 C1619.83582,1021.48786 1619.83582,1015.80968 1619.83582,1010.04415 C1619.83582,981.129101 1619.83582,952.301414 1619.83582,923.38637 C1616.43016,921.377167 1612.93716,919.455321 1609.5315,917.446119 C1586.3031,903.993198 1563.0747,890.540277 1539.75897,877.087357 L1529.36732,877.087357 C1541.33082,883.98853 1553.29432,890.889704 1565.25782,897.790878 C1579.14246,905.827687 1593.11443,913.864497 1606.99908,921.901307 C1608.04697,922.512803 1609.00755,923.036943 1610.05544,923.64844 C1613.54844,925.657642 1614.68366,929.239264 1614.68366,932.908242 C1614.68366,938.236997 1614.68366,943.478394 1614.68366,948.807149 C1614.68366,977.722193 1614.68366,1006.54988 1614.68366,1035.46492 C1618.08933,1037.47413 1621.58232,1039.39597 1624.98799,1041.40517 C1649.96288,1055.81902 1674.93778,1070.23286 1700,1084.73406 L1700,1077.13404 C1698.34083,1077.22139 1696.76898,1076.95932 1695.28446,1076.08576 Z M1445.27353,877.087357 L1434.88187,877.087357 C1430.25366,879.708055 1425.71277,882.416111 1421.08455,885.03681 C1418.20283,886.696586 1414.62252,886.696586 1411.7408,885.03681 C1407.19991,882.416111 1402.65902,879.708055 1398.0308,877.087357 L1387.63915,877.087357 C1397.24488,882.590824 1406.85061,888.181648 1416.45634,893.685116 C1426.06207,888.181648 1435.6678,882.590824 1445.27353,877.087357 Z M1680.43924,1122.03534 C1655.46435,1107.6215 1630.48945,1093.20766 1605.42723,1078.70646 C1584.9059,1090.58696 1564.29724,1102.46746 1543.77591,1114.34796 C1543.77591,1138.10896 1543.77591,1161.78261 1543.77591,1185.54361 C1554.69151,1191.83329 1565.69444,1198.21032 1576.61004,1204.5 L1576.61004,1204.5 C1580.71431,1206.85863 1584.73125,1209.21726 1588.83552,1211.57589 C1602.72016,1219.6127 1616.69213,1227.64951 1630.57677,1235.68632 C1631.62467,1236.29781 1632.58525,1236.82195 1633.63314,1237.43345 C1637.12614,1239.44265 1638.26136,1243.02427 1638.26136,1246.69325 C1638.26136,1252.02201 1638.26136,1257.2634 1638.26136,1262.59216 C1638.26136,1291.5072 1638.26136,1320.33489 1638.26136,1349.24993 C1658.78269,1361.13043 1679.39134,1373.01094 1699.91268,1384.89144 L1699.91268,1384.89144 L1699.91268,1377.29141 C1698.16618,1377.29141 1696.41968,1376.85463 1694.67319,1375.8937 C1692.31542,1374.58336 1690.04497,1373.18565 1687.6872,1371.8753 C1674.50116,1364.27527 1661.22778,1356.58789 1648.04174,1348.98786 C1645.24734,1347.32809 1643.50085,1344.27061 1643.50085,1341.03841 C1643.50085,1335.27287 1643.50085,1329.59469 1643.50085,1323.82915 C1643.50085,1294.91411 1643.50085,1266.08642 1643.50085,1237.17138 C1640.09518,1235.16218 1636.60219,1233.24033 1633.19652,1231.23113 C1617.82735,1222.32075 1602.45819,1213.49773 1587.00169,1204.58736 L1587.00169,1204.58736 C1580.19036,1200.65631 1573.2917,1196.6379 1566.48036,1192.70686 C1562.3761,1190.34823 1558.27183,1187.9896 1554.08024,1185.54361 C1547.79285,1181.87463 1548.92808,1174.71139 1548.92808,1168.50907 C1548.92808,1153.22166 1548.92808,1137.93425 1548.92808,1122.7342 C1548.92808,1119.502 1550.67457,1116.35716 1553.46897,1114.78474 C1553.55629,1114.78474 1553.55629,1114.69739 1553.64362,1114.69739 C1567.44094,1106.74793 1581.23826,1098.79848 1595.03558,1090.76167 C1596.8694,1089.71339 1598.70322,1088.66511 1600.62436,1087.52947 C1604.20468,1085.43292 1607.87232,1086.21913 1611.19067,1088.05361 C1615.81888,1090.67431 1620.35977,1093.38237 1624.98799,1096.00307 C1649.96288,1110.41691 1674.93778,1124.83075 1700,1139.33196 L1700,1131.81929 C1697.99153,1131.73193 1696.07038,1131.03308 1694.23656,1129.9848 C1689.60835,1127.3641 1684.98013,1124.65604 1680.43924,1122.03534 Z M1680.43924,1149.29061 C1655.46435,1134.87677 1630.48945,1120.46292 1605.42723,1105.96172 C1592.76513,1113.29968 1580.10303,1120.63764 1567.35361,1127.88824 C1567.35361,1142.56415 1567.35361,1157.15271 1567.35361,1171.82862 C1582.37348,1180.47693 1597.39335,1189.21259 1612.41321,1197.8609 C1616.16818,1200.04481 1620.01047,1202.22873 1623.76544,1204.41264 C1634.94302,1210.87703 1646.03327,1217.34142 1657.21084,1223.71846 C1660.00524,1225.37823 1661.75173,1228.43572 1661.75173,1231.66791 C1661.75173,1237.43345 1661.75173,1243.11163 1661.75173,1248.87717 C1661.75173,1277.79221 1661.75173,1306.6199 1661.75173,1335.53494 C1674.41383,1342.8729 1687.07593,1350.21086 1699.82535,1357.46146 L1699.82535,1350.03614 C1696.76898,1350.03614 1694.32389,1348.28901 1691.79147,1346.80395 C1689.0844,1345.23153 1686.37733,1343.65911 1683.67026,1342.08669 C1679.65332,1339.72806 1675.63638,1337.45679 1671.61944,1335.09816 C1668.82504,1333.43838 1667.07855,1330.3809 1667.07855,1327.14871 C1667.07855,1321.38317 1667.07855,1315.70499 1667.07855,1309.93945 C1667.07855,1281.02441 1667.07855,1252.19672 1667.07855,1223.28168 C1663.67288,1221.27247 1660.17989,1219.35063 1656.77422,1217.34142 C1649.26428,1212.97359 1641.75435,1208.69312 1634.24442,1204.32529 L1634.24442,1204.32529 C1619.0499,1195.50227 1603.85538,1186.7666 1588.57354,1177.94358 C1584.81857,1175.75967 1581.15093,1173.66311 1577.39596,1171.47919 C1573.20437,1169.03321 1572.5931,1165.0148 1572.5931,1160.73433 C1572.5931,1156.19178 1572.5931,1151.64924 1572.5931,1147.01934 C1572.5931,1143.43772 1572.5931,1139.94345 1572.5931,1136.36183 C1572.5931,1130.59629 1576.78469,1128.32502 1580.97628,1125.96639 C1587.61297,1122.1227 1594.16233,1118.36636 1600.79901,1114.52267 C1603.68073,1112.8629 1607.26105,1112.8629 1610.14277,1114.52267 C1615.12028,1117.40544 1620.01047,1120.28821 1624.98799,1123.08362 C1649.96288,1137.49747 1674.93778,1151.91131 1700,1166.41251 L1700,1158.9872 C1698.42815,1158.9872 1696.76898,1158.55041 1695.37178,1157.7642 C1690.30695,1155.05615 1685.41676,1152.17338 1680.43924,1149.29061 Z M1394.36316,1044.72473 C1380.47852,1036.68792 1366.50655,1028.65111 1352.6219,1020.6143 C1337.60203,1011.96599 1322.58217,1003.23033 1307.5623,994.582022 C1307.5623,988.991198 1307.5623,983.48773 1307.5623,977.984262 C1312.36516,975.18885 1317.16803,972.393438 1321.97089,969.685383 C1346.94579,984.099226 1371.92068,998.51307 1396.9829,1013.01427 C1401.96042,1015.89704 1406.85061,1018.77981 1411.82812,1021.57522 C1414.70984,1023.235 1418.29016,1023.235 1421.17188,1021.57522 C1447.71862,1006.28781 1474.26536,990.913043 1500.81211,975.625634 C1504.21777,973.703788 1507.62344,971.694585 1511.02911,969.685383 C1515.83197,972.480795 1520.63484,975.276207 1525.4377,977.984262 C1525.4377,983.575087 1525.4377,989.078554 1525.4377,994.669379 C1500.37548,1009.08322 1475.40059,1023.58442 1450.33836,1037.99827 C1445.36085,1040.88103 1440.47066,1043.7638 1435.49315,1046.55922 C1432.69875,1048.21899 1430.95226,1051.27647 1430.95226,1054.50867 C1430.95226,1085.17085 1430.95226,1115.83302 1430.95226,1146.4952 C1430.95226,1150.42625 1430.95226,1154.3573 1430.95226,1158.3757 C1426.14939,1161.17111 1421.34653,1163.87917 1416.54366,1166.67458 C1411.7408,1163.87917 1406.93793,1161.17111 1402.13507,1158.3757 C1402.13507,1129.46066 1402.13507,1100.63297 1402.13507,1071.71792 C1402.13507,1066.38917 1402.13507,1061.14777 1402.13507,1055.81902 C1402.13507,1052.15004 1400.99985,1048.56842 1397.50685,1046.55922 C1396.45896,1045.86036 1395.41106,1045.24887 1394.36316,1044.72473 Z M1396.9829,1040.18218 C1400.38857,1042.19138 1403.88156,1044.11323 1407.28723,1046.12243 C1407.28723,1075.03748 1407.28723,1103.86516 1407.28723,1132.78021 C1407.28723,1138.54575 1407.28723,1144.22393 1407.28723,1149.98946 C1407.28723,1151.1251 1407.46188,1152.08602 1407.72386,1153.04695 C1410.51825,1161.78261 1425.71277,1160.82169 1425.71277,1149.98946 C1425.71277,1119.32729 1425.71277,1088.66511 1425.71277,1058.00293 C1425.71277,1054.07189 1425.71277,1050.14084 1425.71277,1046.12243 C1432.08748,1042.45345 1438.54951,1038.69712 1444.92423,1035.02814 C1463.52441,1024.28328 1482.1246,1013.53841 1500.72478,1002.79354 C1505.70229,999.910776 1510.59248,997.028007 1515.57,994.232595 C1516.53057,993.708456 1517.31649,993.009603 1517.92777,992.31075 C1524.04051,985.496933 1515.57,972.917578 1506.22624,978.333689 C1481.94995,992.398106 1457.58632,1006.46252 1433.31003,1020.43958 C1431.12691,1021.74993 1428.85646,1022.97293 1426.67334,1024.28328 C1423.26767,1026.20512 1419.86201,1028.21432 1416.45634,1030.22353 C1391.48144,1015.80968 1366.50655,1001.39584 1341.44432,986.894639 C1336.46681,984.01187 1331.57662,981.129101 1326.59911,978.333689 C1321.09764,975.18885 1315.94548,978.158976 1313.84968,982.614164 C1312.01586,986.545212 1312.53981,991.52454 1317.34268,994.232595 C1343.88942,1009.52001 1370.43616,1024.89477 1396.9829,1040.18218 Z M1373.84183,1060.09949 C1347.29509,1044.81208 1320.74834,1029.43732 1294.2016,1014.14991 C1290.79593,1012.1407 1287.30294,1010.21886 1283.89727,1008.20966 C1283.89727,993.533742 1283.89727,978.945185 1283.89727,964.269272 C1296.55937,956.931315 1309.22147,949.593358 1321.97089,942.342758 C1346.94579,956.756602 1371.92068,971.170445 1396.9829,985.671646 C1401.61112,988.292345 1406.15201,991.0004 1410.78022,993.621099 C1414.01124,995.542945 1417.67888,996.241798 1421.2592,994.232595 C1422.3071,993.621099 1423.26767,993.096959 1424.31557,992.485463 C1438.20022,984.448653 1452.17219,976.411843 1466.05683,968.375033 C1481.0767,959.726727 1496.00924,951.078421 1511.02911,942.430115 C1523.69121,949.768071 1536.3533,957.106028 1549.10273,964.356628 C1549.10273,979.032542 1549.10273,993.621099 1549.10273,1008.29701 C1524.04051,1022.71086 1499.06561,1037.21206 1474.00339,1051.6259 C1469.37517,1054.2466 1464.83428,1056.95465 1460.20607,1059.57535 C1456.97505,1061.40984 1454.52996,1064.20525 1454.52996,1068.22366 C1454.52996,1069.3593 1454.52996,1070.58229 1454.52996,1071.71792 C1454.52996,1087.79154 1454.52996,1103.86516 1454.52996,1119.93878 C1454.52996,1137.2354 1454.52996,1154.61937 1454.52996,1171.91598 C1441.86786,1179.25393 1429.20576,1186.59189 1416.45634,1193.84249 C1403.79424,1186.50453 1391.13214,1179.16658 1378.38272,1171.91598 C1378.38272,1143.00093 1378.38272,1114.17325 1378.38272,1085.2582 C1378.38272,1079.49266 1378.38272,1073.81448 1378.38272,1068.04895 C1378.47004,1064.90411 1376.72355,1061.75927 1373.84183,1060.09949 Z M1373.31788,1053.80982 C1376.72355,1055.81902 1380.21654,1057.74086 1383.62221,1059.75007 C1383.62221,1088.66511 1383.62221,1117.4928 1383.62221,1146.40784 C1383.62221,1152.17338 1383.62221,1157.85156 1383.62221,1163.6171 C1383.62221,1166.84929 1385.3687,1169.99413 1388.1631,1171.56655 C1392.18004,1173.92518 1396.19698,1176.19645 1400.21392,1178.55508 C1402.92099,1180.1275 1405.62806,1181.69992 1408.33513,1183.27234 C1410.86755,1184.7574 1413.31264,1186.50453 1416.36901,1186.50453 C1419.33806,1186.50453 1421.6085,1184.93212 1424.0536,1183.53441 C1426.76067,1181.96199 1429.38041,1180.47693 1432.08748,1178.90451 C1436.27907,1176.45852 1440.47066,1174.01254 1444.66225,1171.65391 C1447.45665,1169.99413 1449.20314,1166.93665 1449.20314,1163.70445 C1449.20314,1133.04228 1449.20314,1102.3801 1449.20314,1071.71792 C1449.20314,1067.78688 1449.20314,1063.85583 1449.20314,1059.83742 C1474.26536,1045.42358 1499.24026,1030.92238 1524.30248,1016.50854 C1528.93069,1013.88784 1533.47158,1011.17978 1538.0998,1008.55908 C1541.41814,1006.63724 1543.77591,1003.75447 1543.77591,999.648706 C1543.77591,996.067085 1543.77591,992.572819 1543.77591,988.991198 C1543.77591,984.448653 1543.77591,979.906108 1543.77591,975.276207 C1543.77591,974.402641 1543.77591,973.529074 1543.77591,972.568152 C1543.77591,968.72446 1541.41814,965.841691 1538.27445,964.094559 C1531.11381,959.988797 1523.95318,955.795679 1516.79255,951.689917 C1516.44325,951.427847 1516.00662,951.253134 1515.65732,950.991064 C1514.08548,950.117498 1512.60095,949.680715 1511.11643,949.680715 C1511.11643,949.680715 1511.02911,949.680715 1511.02911,949.680715 C1510.94178,949.680715 1510.85446,949.680715 1510.76713,949.680715 C1509.36994,949.680715 1507.88542,950.117498 1506.40089,950.991064 C1479.85415,966.278474 1453.30741,981.653241 1426.76067,996.940651 C1423.355,998.949853 1419.94933,1000.8717 1416.54366,1002.8809 C1391.56877,988.467058 1366.59387,974.053214 1341.53165,959.552014 C1336.55414,956.669245 1331.66395,953.786476 1326.68643,950.991064 C1323.80471,949.331288 1320.2244,949.331288 1317.34268,950.991064 C1313.32574,953.349693 1309.30879,955.620966 1305.29185,957.979595 C1302.58478,959.552014 1299.87771,961.124433 1297.17065,962.696852 C1294.72555,964.094559 1292.01848,965.404908 1290.44663,967.93825 C1288.96211,970.471592 1289.22409,973.267005 1289.22409,976.062417 C1289.22409,979.119899 1289.22409,982.177381 1289.22409,985.322219 C1289.22409,990.21419 1289.22409,995.018805 1289.22409,999.910776 C1289.22409,1003.14297 1290.97058,1006.28781 1293.76498,1007.86023 C1320.2244,1023.14764 1346.77114,1038.52241 1373.31788,1053.80982 Z M1147.40859,982.70152 C1147.40859,952.039344 1147.40859,921.377167 1147.40859,890.714991 C1147.40859,887.482795 1149.15509,884.337957 1151.94948,882.765537 C1155.26783,880.843692 1158.49884,879.009202 1161.81719,877.087357 L1151.42554,877.087357 C1148.36917,878.834489 1145.3128,880.668978 1142.16911,882.416111 C1142.16911,886.347159 1142.16911,890.278208 1142.16911,894.296612 C1142.16911,924.958789 1142.16911,955.620966 1142.16911,986.283142 C1142.16911,987.768205 1141.90713,989.078554 1141.38318,990.21419 C1139.89866,993.533742 1136.40567,995.193518 1133,995.193518 L1133,1002.8809 C1137.80286,1000.08549 1142.60573,997.377434 1147.40859,994.582022 C1147.40859,990.650974 1147.40859,986.632569 1147.40859,982.70152 Z" id="Shape-Copy-2"></path>
        </g>
    </g>
</svg>