<?xml version="1.0" encoding="UTF-8"?>
<svg width="159px" height="22px" viewBox="0 0 159 22" version="1.1" xmlns="http://www.w3.org/2000/svg" xmlns:xlink="http://www.w3.org/1999/xlink">
    <!-- Generator: Sketch 63.1 (92452) - https://sketch.com -->
    <title>Shape</title>
    <desc>Created with Sketch.</desc>
    <g id="About" stroke="none" stroke-width="1" fill="none" fill-rule="evenodd">
        <g transform="translate(-1299.000000, -3409.000000)" fill="#D9DDDF" id="Group-7">
            <g transform="translate(205.000000, 3345.000000)">
                <path d="M1156.04972,83.2527066 L1142.24767,83.2432372 L1142.24767,77.1250592 C1142.24767,76.3083236 1142.94353,75.6137432 1143.76896,75.6137432 L1156.04972,75.6137432 C1158.19009,75.6137432 1159.91775,77.3229696 1159.91775,79.424229 C1159.91775,81.5491619 1158.19009,83.2579148 1156.04972,83.2579148 L1156.04972,83.2527066 Z M1142.24767,66.328525 L1156.1121,66.3441495 C1158.05572,66.3441495 1159.6298,67.8994981 1159.6298,69.8194186 C1159.6298,71.7284492 1158.05572,73.2814305 1156.1121,73.2814305 L1143.55781,73.2814305 C1143.1019,73.3145734 1142.65079,73.4163694 1142.24767,73.5877655 L1142.24767,66.3280515 L1142.24767,66.328525 Z M1159.6538,74.4248603 C1161.05992,73.3671285 1161.98613,71.6995675 1161.98613,69.8085288 C1161.98613,66.6126069 1159.35146,64.0085225 1156.10731,64.0085225 L1139.7488,64.0004735 L1139.7488,85.5703418 L1156.04972,85.5703418 C1159.48583,85.5703418 1162.26928,82.8185347 1162.26928,79.4190208 C1162.26928,77.3594268 1161.23748,75.5413023 1159.6538,74.4248603 L1159.6538,74.4248603 Z M1232.29213,74.8045832 C1231.76423,74.8045832 1231.26513,74.9106404 1230.80442,75.0957672 L1230.75643,66.3280515 L1244.4577,66.3233168 C1246.83323,66.3233168 1248.75765,68.2138821 1248.75765,70.5627663 C1248.75765,72.9092831 1246.83323,74.8121587 1244.4577,74.8121587 L1232.26813,74.8026893 L1232.29213,74.8045832 Z M1251.44511,83.2522332 C1250.84523,83.7290174 1249.991,83.632903 1249.4679,83.0865187 L1244.68326,77.0952306 C1248.25854,76.9863325 1251.11398,74.10006 1251.11398,70.5575581 C1251.11398,66.9317256 1248.13857,64 1244.4673,64 L1228.28013,64 L1228.28013,85.5717622 L1230.78043,85.5717622 L1230.82842,78.5440485 C1230.87641,77.7609292 1231.52908,77.1084877 1232.34012,77.1084877 L1241.54948,77.1084877 L1247.52909,84.6020958 C1248.90642,86.2071588 1251.32033,86.4746693 1253,85.1721536 L1251.46911,83.2512862 L1251.44511,83.2522332 Z M1187.31069,83.1021432 L1187.31069,77.2159654 C1187.31069,76.4077523 1188.00655,75.743474 1188.81759,75.7283229 L1199.68742,75.7283229 L1199.68742,73.2473407 L1188.7792,73.2473407 C1188.27391,73.2576186 1187.77535,73.3637101 1187.31069,73.5598308 L1187.31069,66.4686721 L1205.05755,66.4686721 L1205.05755,64.0004735 L1184.79119,64.0004735 L1184.79119,85.5703418 L1205.79181,85.5703418 L1205.79181,83.1026167 L1187.31069,83.1026167 L1187.31069,83.1021432 Z M1114.81633,64.0525552 L1114.81633,76.6184464 C1114.81633,80.9175531 1112.71435,83.4591395 1106.40025,83.4591395 C1100.06791,83.4591395 1097.95393,80.9180265 1097.95393,76.6184464 L1097.95393,67.7853919 C1097.87379,65.691708 1096.13365,64.0099429 1094,64.0099429 L1094,66.4483129 C1094.77361,66.4483129 1095.38884,67.0410972 1095.46179,67.7853919 L1095.46179,77.4763738 C1095.46179,82.4572772 1099.421,85.9978851 1106.39977,85.9978851 C1113.36798,85.9978851 1117.31184,82.4572772 1117.31184,77.4763738 L1117.31184,64.0535021 L1114.81633,64.0535021 L1114.81633,64.0525552 Z" id="Shape"></path>
            </g>
        </g>
    </g>
</svg>