<?xml version="1.0" encoding="UTF-8"?>
<svg width="38px" height="32px" viewBox="0 0 38 32" version="1.1" xmlns="http://www.w3.org/2000/svg" xmlns:xlink="http://www.w3.org/1999/xlink">
    <!-- Generator: Sketch 63.1 (92452) - https://sketch.com -->
    <title>web</title>
    <desc>Created with Sketch.</desc>
    <g id="Home" stroke="none" stroke-width="1" fill="none" fill-rule="evenodd">
        <g id="Home-page" transform="translate(-250.000000, -1777.000000)" fill="#FFFFFF" fill-rule="nonzero">
            <g id="Group-4" transform="translate(205.000000, 1550.000000)">
                <g id="item" transform="translate(0.000000, 182.000000)">
                    <g id="web" transform="translate(45.000000, 45.000000)">
                        <path d="M11.0040816,31.1836735 C10.4489796,31.1836735 10.0244898,30.7591837 10.0244898,30.2040816 L10.0244898,12.6693878 C10.0244898,12.1142857 10.4489796,11.6897959 11.0040816,11.6897959 C11.5591837,11.6897959 11.9836735,12.1142857 11.9836735,12.6693878 L11.9836735,30.2367347 C11.9836735,30.7591837 11.5591837,31.1836735 11.0040816,31.1836735 Z" id="Path"></path>
                        <path d="M16.9142857,11.5265306 L31.4122449,11.5265306 C31.9673469,11.5265306 32.3918367,11.9510204 32.3918367,12.5061224 L32.3918367,16.522449 C32.3918367,17.077551 31.9673469,17.5020408 31.4122449,17.5020408 L16.9142857,17.5020408 C16.3591837,17.5020408 15.9346939,17.077551 15.9346939,16.522449 L15.9346939,12.5061224 C15.9346939,11.9510204 16.3591837,11.5265306 16.9142857,11.5265306 Z" id="Path"></path>
                        <path d="M16.9142857,20.5061224 L20.9306122,20.5061224 C21.4857143,20.5061224 21.9102041,20.9306122 21.9102041,21.4857143 L21.9102041,25.5020408 C21.9102041,26.0571429 21.4857143,26.4816327 20.9306122,26.4816327 L16.9142857,26.4816327 C16.3591837,26.4816327 15.9346939,26.0571429 15.9346939,25.5020408 L15.9346939,21.4857143 C15.9346939,20.9306122 16.3591837,20.5061224 16.9142857,20.5061224 Z" id="Path"></path>
                        <path d="M33.9265306,0.0326530612 L3.98367347,0.0326530612 C1.79591837,0.0326530612 0,1.82857143 0,4.01632653 L0,27.9510204 C0,30.1387755 1.79591837,31.9346939 3.98367347,31.9346939 L33.8938776,31.9346939 C36.0816327,31.9346939 37.877551,30.1714286 37.9102041,27.9510204 L37.9102041,4.01632653 C37.9102041,1.82857143 36.1142857,0.0326530612 33.9265306,0.0326530612 Z M1.95918367,4.04897959 C1.95918367,2.93877551 2.87346939,2.0244898 3.98367347,2.0244898 L3.98367347,1.99183673 L33.8938776,1.99183673 C35.0040816,1.99183673 35.9183673,2.90612245 35.9183673,4.01632653 L35.9183673,6.04081633 L1.95918367,6.04081633 L1.95918367,4.04897959 Z M33.9265306,30.0081633 L3.98367347,30.0081633 C2.87346939,30.0081633 1.95918367,29.0938776 1.95918367,27.9836735 L1.95918367,8 L35.9510204,8 L35.9510204,27.9836735 C35.9510204,29.0938776 35.0367347,30.0081633 33.9265306,30.0081633 Z" id="Shape"></path>
                        <path d="M31.0857143,22.3673469 L25.1102041,22.3673469 C24.555102,22.3673469 24.1306122,21.9428571 24.1306122,21.3877551 C24.1306122,20.8326531 24.555102,20.4081633 25.1102041,20.4081633 L31.0857143,20.4081633 C31.6408163,20.4081633 32.0653061,20.8326531 32.0653061,21.3877551 C32.0653061,21.9428571 31.6408163,22.3673469 31.0857143,22.3673469 Z M31.0857143,26.5469388 L25.1102041,26.5469388 C24.555102,26.5469388 24.1306122,26.122449 24.1306122,25.5673469 C24.1306122,25.0122449 24.555102,24.5877551 25.1102041,24.5877551 L31.0857143,24.5877551 C31.6408163,24.5877551 32.0653061,25.0122449 32.0653061,25.5673469 C32.0653061,26.122449 31.6408163,26.5469388 31.0857143,26.5469388 Z" id="Shape"></path>
                    </g>
                </g>
            </g>
        </g>
    </g>
</svg>