<svg width="564.3400024414062px" height="124.67750549316406px" xmlns="http://www.w3.org/2000/svg" viewBox="-32.170001220703114 12.661247253417969 564.3400024414062 124.67750549316406" style="background: rgba(0, 0, 0, 0);" preserveAspectRatio="xMidYMid"><defs><filter id="editing-extrude-glow"><feFlood flood-color="#333333" result="flood-1"></feFlood><feMorphology operator="erode" radius="1" in="SourceAlpha" result="erode"></feMorphology><feComposite operator="in" in="flood-1" in2="erode" result="comp1"></feComposite><feConvolveMatrix order="3,3" divisor="1" in="comp1" result="convolve" kernelMatrix="0 0 0 1 1 1 0 0 0"></feConvolveMatrix><feOffset dx="-3" dy="0" in="convolve" result="extrude"></feOffset><feComposite operator="in" in="flood-1" in2="extrude" result="comp-extrude"></feComposite><feFlood flood-color="#000000" result="flood-2"></feFlood><feComposite operator="in" in="flood-2" in2="SourceAlpha" result="comp2"></feComposite><feMorphology operator="dilate" radius="1" in="comp2" result="dilate"></feMorphology><feOffset dx="-4.5" dy="0" in="dilate" result="offset"></feOffset><feGaussianBlur in="offset" stdDeviation="5.8" result="blur"></feGaussianBlur><feComponentTransfer in="blur" result="shadow"><feFuncA type="linear" slope="0.8" intercept="-0.2"></feFuncA></feComponentTransfer><feMerge><feMergeNode in="shadow"></feMergeNode><feMergeNode in="comp-extrude"></feMergeNode><feMergeNode in="SourceGraphic"></feMergeNode></feMerge></filter></defs><g filter="url(#editing-extrude-glow)"><g transform="translate(49.55999755859375, 104.76499938964844)"><path d="M5.75-6.41L5.75-44.81L12.16-44.81L12.16-6.41L37.75-6.41L37.75-44.81L44.16-44.81L44.16-6.41L44.16-6.41Q44.16-5.09 43.66-3.92L43.66-3.92L43.66-3.92Q43.16-2.75 42.28-1.88L42.28-1.88L42.28-1.88Q41.41-1 40.23-0.50L40.23-0.50L40.23-0.50Q39.06 0 37.75 0L37.75 0L12.16 0L12.16 0Q10.84 0 9.67-0.50L9.67-0.50L9.67-0.50Q8.50-1 7.63-1.88L7.63-1.88L7.63-1.88Q6.75-2.75 6.25-3.92L6.25-3.92L6.25-3.92Q5.75-5.09 5.75-6.41L5.75-6.41ZM55.66-44.81L62.06-44.81L62.06 0L55.66 0L55.66-44.81ZM73.56-6.41L73.56-44.81L79.97-44.81L79.97-6.41L105.56-6.41L105.56-44.81L111.97-44.81L111.97-6.41L111.97-6.41Q111.97-5.09 111.47-3.92L111.47-3.92L111.47-3.92Q110.97-2.75 110.09-1.88L110.09-1.88L110.09-1.88Q109.22-1 108.05-0.50L108.05-0.50L108.05-0.50Q106.88 0 105.56 0L105.56 0L79.97 0L79.97 0Q78.66 0 77.48-0.50L77.48-0.50L77.48-0.50Q76.31-1 75.44-1.88L75.44-1.88L75.44-1.88Q74.56-2.75 74.06-3.92L74.06-3.92L74.06-3.92Q73.56-5.09 73.56-6.41L73.56-6.41ZM119.97-44.81L127.69-44.81L139.66-28.03L151.69-44.81L159.44-44.81L143.56-22.59L159.78 0L152.03 0L139.66-17.22L127.38 0L119.63 0L135.84-22.59L119.97-44.81ZM193.03-6.41L209.41-6.41L209.41-6.41Q213.88-6.41 216.28-8.81L216.28-8.81L216.28-8.81Q218.69-11.22 218.69-15.69L218.69-15.69L218.69-29.13L218.69-29.13Q218.69-31.31 218.06-33.03L218.06-33.03L218.06-33.03Q217.44-34.75 216.23-35.95L216.23-35.95L216.23-35.95Q215.03-37.16 213.31-37.78L213.31-37.78L213.31-37.78Q211.59-38.41 209.41-38.41L209.41-38.41L193.03-38.41L193.03-6.41ZM209.41 0L186.63 0L186.63-44.81L209.41-44.81L209.41-44.81Q213-44.81 215.89-43.70L215.89-43.70L215.89-43.70Q218.78-42.59 220.83-40.55L220.83-40.55L220.83-40.55Q222.88-38.50 223.98-35.59L223.98-35.59L223.98-35.59Q225.09-32.69 225.09-29.13L225.09-29.13L225.09-15.69L225.09-15.69Q225.09-12.13 223.98-9.22L223.98-9.22L223.98-9.22Q222.88-6.31 220.83-4.27L220.83-4.27L220.83-4.27Q218.78-2.22 215.89-1.11L215.89-1.11L215.89-1.11Q213 0 209.41 0L209.41 0ZM262.88-27.13L262.88-13.50L240.84-13.50L240.84-6.16L262.88-6.16L262.88 0L240.84 0L240.84 0Q239.59 0 238.47-0.48L238.47-0.48L238.47-0.48Q237.34-0.97 236.52-1.80L236.52-1.80L236.52-1.80Q235.69-2.63 235.20-3.75L235.20-3.75L235.20-3.75Q234.72-4.88 234.72-6.16L234.72-6.16L234.72-27.13L234.72-27.13Q234.72-28.41 235.20-29.53L235.20-29.53L235.20-29.53Q235.69-30.66 236.52-31.48L236.52-31.48L236.52-31.48Q237.34-32.31 238.47-32.80L238.47-32.80L238.47-32.80Q239.59-33.28 240.84-33.28L240.84-33.28L256.72-33.28L256.72-33.28Q258-33.28 259.13-32.80L259.13-32.80L259.13-32.80Q260.25-32.31 261.08-31.48L261.08-31.48L261.08-31.48Q261.91-30.66 262.39-29.53L262.39-29.53L262.39-29.53Q262.88-28.41 262.88-27.13L262.88-27.13ZM256.72-27.13L240.84-27.13L240.84-19.66L256.72-19.66L256.72-27.13ZM272.47-6.16L293.22-6.16L293.22-13.88L278.63-13.88L278.63-13.88Q277.34-13.88 276.22-14.36L276.22-14.36L276.22-14.36Q275.09-14.84 274.27-15.67L274.27-15.67L274.27-15.67Q273.44-16.50 272.95-17.63L272.95-17.63L272.95-17.63Q272.47-18.75 272.47-20.03L272.47-20.03L272.47-27.13L272.47-27.13Q272.47-28.41 272.95-29.53L272.95-29.53L272.95-29.53Q273.44-30.66 274.27-31.48L274.27-31.48L274.27-31.48Q275.09-32.31 276.22-32.80L276.22-32.80L276.22-32.80Q277.34-33.28 278.63-33.28L278.63-33.28L298.09-33.28L298.09-27.13L278.63-27.13L278.63-20.03L293.22-20.03L293.22-20.03Q294.50-20.03 295.61-19.55L295.61-19.55L295.61-19.55Q296.72-19.06 297.56-18.23L297.56-18.23L297.56-18.23Q298.41-17.41 298.89-16.28L298.89-16.28L298.89-16.28Q299.38-15.16 299.38-13.88L299.38-13.88L299.38-6.16L299.38-6.16Q299.38-4.88 298.89-3.75L298.89-3.75L298.89-3.75Q298.41-2.63 297.56-1.80L297.56-1.80L297.56-1.80Q296.72-0.97 295.61-0.48L295.61-0.48L295.61-0.48Q294.50 0 293.22 0L293.22 0L272.47 0L272.47-6.16ZM309.28-33.28L315.44-33.28L315.44 0L309.28 0L309.28-33.28ZM308.97-39.69L308.97-46.09L315.75-46.09L315.75-39.69L308.97-39.69ZM326-7.44L326-27.13L326-27.13Q326-28.41 326.48-29.53L326.48-29.53L326.48-29.53Q326.97-30.66 327.80-31.48L327.80-31.48L327.80-31.48Q328.63-32.31 329.75-32.80L329.75-32.80L329.75-32.80Q330.88-33.28 332.13-33.28L332.13-33.28L343.16-33.28L343.16-33.28Q344.38-33.28 345.47-32.83L345.47-32.83L345.47-32.83Q346.56-32.38 347.39-31.58L347.39-31.58L347.39-31.58Q348.22-30.78 348.73-29.70L348.73-29.70L348.73-29.70Q349.25-28.63 349.28-27.41L349.28-27.41L349.28-33.28L355.44-33.28L355.44 7.28L355.44 7.28Q355.44 8.56 354.95 9.69L354.95 9.69L354.95 9.69Q354.47 10.81 353.64 11.64L353.64 11.64L353.64 11.64Q352.81 12.47 351.69 12.95L351.69 12.95L351.69 12.95Q350.56 13.44 349.28 13.44L349.28 13.44L329.84 13.44L329.84 7.28L349.28 7.28L349.28-1.28L332.13-1.28L332.13-1.28Q330.88-1.28 329.75-1.77L329.75-1.77L329.75-1.77Q328.63-2.25 327.80-3.08L327.80-3.08L327.80-3.08Q326.97-3.91 326.48-5.03L326.48-5.03L326.48-5.03Q326-6.16 326-7.44L326-7.44ZM332.13-7.44L349.28-7.44L349.28-27.13L332.13-27.13L332.13-7.44ZM395.13-27.13L395.13 0L388.97 0L388.97-27.13L371.81-27.13L371.81 0L365.69 0L365.69-33.28L371.81-33.28L371.81-27.41L371.81-27.41Q371.88-28.63 372.38-29.70L372.38-29.70L372.38-29.70Q372.88-30.78 373.70-31.58L373.70-31.58L373.70-31.58Q374.53-32.38 375.63-32.83L375.63-32.83L375.63-32.83Q376.72-33.28 377.97-33.28L377.97-33.28L388.97-33.28L388.97-33.28Q390.25-33.28 391.38-32.80L391.38-32.80L391.38-32.80Q392.50-32.31 393.33-31.48L393.33-31.48L393.33-31.48Q394.16-30.66 394.64-29.53L394.64-29.53L394.64-29.53Q395.13-28.41 395.13-27.13L395.13-27.13Z" fill="#ffffff"></path></g></g><style>text {
  font-size: 64px;
  font-family: Arial Black;
  dominant-baseline: central;
  text-anchor: middle;
}</style></svg>