<svg xmlns="http://www.w3.org/2000/svg" width="567" height="655" viewBox="0 0 567 655"><path d="M38.074 458.622C25.412 465.96 12.749 473.298 0 480.55v-7.425c2.969 0 5.24-1.573 7.685-2.97 2.707-1.573 5.326-3.058 8.033-4.63 4.192-2.447 8.384-4.892 12.575-7.251 2.795-1.66 4.541-4.717 4.541-7.95v-91.986-11.88c10.916-6.29 21.919-12.667 32.834-18.957 14.06-8.124 28.119-16.248 42.265-24.372 4.978-2.883 9.868-5.766 14.846-8.561 2.794-1.66 4.54-4.718 4.54-7.95V272.64v-9.434c0-2.883.263-5.94-1.222-8.561-1.484-2.534-3.93-3.67-6.287-5.067-2.707-1.573-5.327-3.058-8.034-4.63-4.192-2.446-8.383-4.892-12.575-7.25a9.39 9.39 0 00-9.344 0c-26.547 15.287-53.093 30.662-79.64 45.949-3.406 2.01-6.811 3.931-10.217 5.94v-7.512c1.572.087 3.144-.35 4.716-1.223 1.047-.612 2.008-1.136 3.056-1.748 13.885-8.036 27.857-16.073 41.741-24.11 15.02-8.648 29.953-17.297 44.972-25.945 12.663 7.338 25.325 14.676 38.074 21.927v43.94c-18.862 10.832-37.637 21.752-56.5 32.584l-18.6 10.745c-4.627 2.62-9.168 5.329-13.797 7.95-3.23 1.834-5.676 4.63-5.676 8.648v51.714c.088 17.385.088 34.769.088 52.065zm23.577-38.35v-48.22-3.494c0-4.019 2.445-6.814 5.676-8.649 4.629-2.62 9.17-5.328 13.798-7.95 14.059-8.123 28.118-16.247 42.265-24.372 10.916-6.29 21.918-12.666 32.834-18.956v-71.196c-20.521-11.88-41.13-23.76-61.651-35.641-15.02 8.648-29.953 17.296-44.973 25.945-13.884 8.037-27.856 16.073-41.74 24.11-1.049.612-2.01 1.136-3.057 1.747a9.503 9.503 0 01-4.716 1.223v7.513a23047.31 23047.31 0 0047.592-27.517c13.361-7.688 26.722-15.463 40.082-23.15 1.398-.786 2.795-1.747 4.367-2.184 4.104-1.135 7.248.961 10.479 2.883 7.597 4.368 15.281 8.823 22.879 13.19 6.636 3.845 13.273 7.688 19.91 11.532 3.493 2.01 5.589 5.154 5.589 9.26v53.811c0 3.233-1.747 6.377-4.541 7.95-4.978 2.883-9.868 5.765-14.846 8.56l-18.6 10.746c-18.862 10.832-37.637 21.751-56.499 32.584V463.864c0 3.232-1.746 6.377-4.54 7.95a7029.783 7029.783 0 01-26.286 15.2l-19.91 11.53c-1.833 1.049-3.755 1.66-5.676 1.66v7.6c20.522-11.88 41.13-23.76 61.652-35.641-.088-17.21-.088-34.506-.088-51.89zm32.834 108.934c-15.02 8.649-29.952 17.297-44.972 25.945-13.884 8.037-27.856 16.074-41.741 24.11-1.048.612-2.009 1.136-3.056 1.748A9.503 9.503 0 010 582.232v7.513a23047.307 23047.307 0 0047.592-27.518c13.36-7.687 26.721-15.462 40.082-23.15 1.397-.785 2.795-1.746 4.366-2.183 4.105-1.136 7.248.96 10.48 2.883 7.597 4.367 15.281 8.823 22.878 13.19l19.91 11.532c3.493 2.009 5.59 5.154 5.59 9.26v53.811c0 3.232-1.747 6.377-4.542 7.95-4.977 2.882-9.867 5.765-14.845 8.56l-18.6 10.745h10.392c10.915-6.29 21.918-12.666 32.834-18.956v-71.196c-20.522-11.706-41.13-23.586-61.652-35.467zm14.409 62.897c-4.803-2.795-9.606-5.59-14.409-8.299-3.405 1.922-6.81 3.931-10.217 5.94-26.546 15.2-53.093 30.575-79.64 45.863-1.397.873-3.056 1.31-4.628 1.31v7.425c.437-.262.786-.436 1.223-.698 2.969-1.747 6.025-3.495 8.994-5.242 7.685-4.455 15.282-8.823 22.966-13.278 18.863-10.92 37.725-21.84 56.674-32.671 8.733-5.067 16.68 5.503 12.75 12.492-.699 1.31-1.834 2.446-3.493 3.407-4.978 2.882-9.868 5.765-14.846 8.56-21.918 12.667-43.924 25.334-65.842 38h10.391c1.66-.96 3.319-1.921 5.065-2.882 25.062-14.414 50.037-28.915 75.1-43.329-.088-5.503-.088-11.094-.088-16.598zm23.665-13.627c-12.662-7.338-25.324-14.676-38.074-21.927-15.02 8.648-29.952 17.297-44.972 25.945-13.884 8.037-27.856 16.074-41.741 24.11-1.048.612-2.009 1.136-3.056 1.748A9.503 9.503 0 010 609.575v7.512c3.406-2.009 6.811-3.93 10.217-5.94 26.547-15.287 53.093-30.662 79.64-45.95a9.39 9.39 0 019.344 0c4.192 2.446 8.383 4.892 12.575 7.251 2.707 1.572 5.327 3.057 8.034 4.63 2.357 1.398 4.89 2.533 6.287 5.067 1.572 2.62 1.223 5.678 1.223 8.56v23.412c0 3.232-1.747 6.377-4.541 7.95-4.978 2.882-9.868 5.765-14.846 8.56-14.059 8.125-28.118 16.249-42.265 24.373H76.06c18.862-10.832 37.637-21.752 56.5-32.584v-43.94zm414.88-33.283c-24.975-14.414-49.95-28.828-75.012-43.33-3.405 2.01-6.811 3.932-10.217 5.941-25.062 14.414-50.037 28.915-75.1 43.329v98.538c.176.088.438.262.612.35 2.882 1.66 5.764 3.32 8.558 4.979h10.392c-.786-.437-1.572-.96-2.358-1.398-4.89-2.795-12.05-5.59-12.05-12.23V559.52c0-3.232 1.746-6.377 4.54-7.95l20.434-11.792c15.456-8.91 30.913-17.821 46.37-26.819 1.31-.786 2.62-1.485 3.929-2.271 3.58-2.01 7.248-1.31 10.479.611 4.628 2.621 9.17 5.33 13.797 7.95 24.975 14.414 49.95 28.827 75.012 43.329v-7.513c-2.008-.087-3.93-.786-5.763-1.834-4.454-2.709-9.082-5.417-13.623-8.037zm-84.18-59.228v-11.88-86.658c-3.407-2.01-6.9-3.931-10.305-5.94a78251.234 78251.234 0 01-75.012-43.33c-15.02 8.649-29.953 17.297-44.972 25.945-13.885 8.037-27.857 16.074-41.742 24.11-1.048.612-2.008 1.136-3.056 1.748-3.493 2.01-7.16 1.31-10.48-.612-4.627-2.62-9.168-5.328-13.796-7.949-24.975-14.414-49.95-28.828-75.012-43.329-3.406 2.01-6.812 3.931-10.217 5.94-25.063 14.414-50.038 28.915-75.1 43.33v98.538c15.02 8.648 30.04 17.384 45.06 26.032 13.884 8.037 27.856 16.073 41.741 24.11 1.048.612 2.009 1.136 3.056 1.747 3.493 2.01 4.629 5.591 4.629 9.26v102.557c3.056 1.747 6.112 3.582 9.256 5.329h10.392c-3.319-1.922-6.55-3.757-9.868-5.679-2.794-1.66-4.54-4.717-4.54-7.949v-17.21-86.657c-3.407-2.01-6.9-3.931-10.305-5.94-26.547-15.288-53.094-30.662-79.64-45.95-2.795-1.66-4.541-4.717-4.541-7.95v-25.857-52.414-3.494c0-4.717 3.23-7.163 6.724-9.26 6.112-3.494 12.225-7.076 18.25-10.57 15.457-8.91 30.914-17.82 46.37-26.819 1.31-.786 2.62-1.485 3.93-2.27 3.58-2.01 7.248-1.311 10.479.61 4.628 2.621 9.169 5.33 13.797 7.95 24.975 14.414 49.95 28.828 75.012 43.329 3.406-2.01 6.811-3.931 10.217-5.94 26.547-15.288 53.094-30.662 79.64-45.95 1.485-.873 3.057-1.31 4.454-1.31h.349c1.397 0 2.97.437 4.454 1.31 7.51 4.28 14.932 8.648 22.442 12.929 15.107 8.736 30.302 17.471 45.41 26.207 1.047.611 2.008 1.136 3.055 1.747 4.105 2.359 4.541 6.377 4.541 10.483v79.232c0 4.019-2.445 6.814-5.676 8.649-4.628 2.62-9.169 5.328-13.797 7.95-25.062 14.413-50.037 28.914-75.1 43.328V641.285c0 3.232-1.746 6.377-4.54 7.95 0 0-.088 0-.088.087-3.23 1.834-6.462 3.756-9.78 5.59h10.392l2.357-1.31c2.27-1.31 4.629-2.62 6.899-4.018v-90.589-12.929c0-6.464 5.152-8.56 9.78-11.269 14.846-8.56 29.604-17.122 44.449-25.683 13.535-7.687 26.983-15.462 40.431-23.15zm-293.762 59.228c-24.974-14.414-49.95-28.828-75.012-43.33-15.02 8.65-29.952 17.297-44.972 25.946-13.884 8.037-27.856 16.073-41.741 24.11-1.048.612-2.009 1.136-3.056 1.747A9.503 9.503 0 010 554.89v7.513c4.54-2.62 8.994-5.241 13.535-7.775 16.767-9.696 33.62-19.393 50.387-29.09 6.55-3.756 13.098-7.6 19.648-11.356 4.803-2.795 9.955-6.901 15.631-3.582 12.487 7.251 24.975 14.414 37.462 21.665 7.947 4.542 15.893 9.172 23.753 13.715 5.24 3.057 14.059 6.29 14.059 13.453v81.853c0 3.232-1.747 6.377-4.54 7.95-3.32 1.921-6.55 3.756-9.869 5.678h10.392c3.056-1.747 6.113-3.582 9.256-5.33v-11.88-86.657c-3.405-1.835-6.81-3.844-10.217-5.853zm-84.18-59.228v-51.977-48.221-3.494c0-4.019 2.444-6.814 5.675-8.649 4.629-2.62 9.17-5.328 13.798-7.95 21.918-12.666 43.924-25.333 65.843-38 3.056-1.746 6.112-3.58 9.256-5.328v-11.88-86.658c-3.406-2.01-6.899-3.931-10.304-5.94a78251.602 78251.602 0 01-75.012-43.33c-15.02 8.649-29.953 17.297-44.973 25.945-13.884 8.037-27.856 16.074-41.74 24.11-1.049.612-2.01 1.137-3.057 1.748a9.503 9.503 0 01-4.716 1.223v7.513c4.541-2.621 8.995-5.242 13.536-7.775 16.766-9.697 33.62-19.393 50.386-29.09 6.55-3.756 13.099-7.6 19.648-11.356 4.803-2.796 9.955-6.901 15.631-3.582 12.488 7.25 24.975 14.414 37.463 21.665 7.946 4.542 15.893 9.172 23.752 13.715 5.24 3.057 14.06 6.29 14.06 13.453v81.853c0 3.232-1.747 6.377-4.542 7.95-3.318 1.921-6.549 3.756-9.867 5.677l-4.978 2.883c-25.062 14.414-50.037 28.915-75.1 43.329V477.666c0 3.232-1.746 6.377-4.54 7.95 0 0-.087 0-.087.087-12.488 7.25-24.975 14.414-37.463 21.664-7.946 4.543-15.893 9.173-23.752 13.715-4.017 2.272-9.17 6.377-14.147 6.552v7.6c3.406-2.01 6.812-3.931 10.217-5.94 24.888-14.501 49.95-28.915 75.012-43.33zm279.264 29.701c25.062-14.414 50.037-28.915 75.1-43.329v-71.195c-20.522-11.88-41.13-23.761-61.652-35.642-15.02 8.648-29.952 17.297-44.972 25.945-13.885 8.037-27.857 16.074-41.741 24.11-1.048.612-2.009 1.136-3.057 1.748-3.493 2.009-7.16 1.31-10.479-.612-4.628-2.62-9.169-5.329-13.797-7.95a78251.234 78251.234 0 01-75.012-43.328c-20.521 11.88-41.13 23.76-61.651 35.641v71.196c15.02 8.648 30.04 17.384 45.06 26.032 13.884 8.037 27.856 16.074 41.74 24.11 1.048.612 2.009 1.136 3.057 1.748 3.493 2.009 4.628 5.59 4.628 9.26v102.556c10.916 6.29 21.919 12.667 32.834 18.957h10.392c-11.178-6.465-22.355-12.842-33.446-19.306-2.794-1.66-4.54-4.717-4.54-7.95v-17.209-86.658c-3.406-2.009-6.9-3.93-10.305-5.94-26.547-15.287-53.093-30.662-79.64-45.95-2.794-1.66-4.54-4.717-4.54-7.949v-30.313-18.869c0-5.066-.525-10.395 4.715-13.453 13.797-7.95 27.594-15.899 41.392-23.935 1.833-1.049 3.667-2.184 5.588-3.233 3.58-2.096 7.248-1.31 10.567.525 4.628 2.62 9.169 5.328 13.797 7.949a78251.234 78251.234 0 0175.012 43.329c3.406-1.922 6.811-3.931 10.217-5.94 26.547-15.288 53.093-30.663 79.64-45.95 1.572-.873 3.057-1.31 4.454-1.31h.349c1.397 0 2.97.437 4.454 1.31 8.732 5.067 17.465 10.133 26.284 15.2l19.91 11.531c3.493 2.01 5.59 5.154 5.59 9.26v53.812c0 3.232-1.747 6.377-4.542 7.95-4.977 2.882-9.867 5.765-14.845 8.56-25.062 14.414-50.037 28.915-75.1 43.329V627.57c0 3.232-1.746 6.377-4.54 7.95-8.733 5.066-17.465 10.133-26.285 15.2-2.445 1.397-4.803 2.795-7.248 4.193h10.392c10.915-6.29 21.918-12.667 32.834-18.957V583.98v-48.22-3.495c0-4.018 2.445-6.814 5.676-8.648a701.334 701.334 0 0113.71-7.95zm182.858 111.38c-24.975-14.414-49.95-28.828-75.012-43.329-4.803 2.795-9.606 5.59-14.408 8.299V608.7c15.02 8.648 30.04 17.384 45.06 26.032 11.7 6.727 23.315 13.453 35.016 20.18h10.392c-.35-.175-.698-.437-1.048-.612-26.546-15.287-53.093-30.662-79.64-45.95-3.231-1.834-4.54-4.717-4.454-7.512.088-6.202 6.724-12.492 13.798-8.386 4.977 2.882 9.867 5.765 14.845 8.56A78251.234 78251.234 0 01567 644.344v-7.426a9.643 9.643 0 01-4.628-1.223c-5.065-2.883-9.955-5.765-14.933-8.648zm0-54.598c-24.975-14.414-49.95-28.828-75.012-43.329-20.521 11.88-41.13 23.761-61.651 35.642v71.195c10.916 6.29 21.918 12.667 32.834 18.957h10.392c-6.812-3.931-13.71-7.95-20.522-11.88-4.104-2.36-8.208-4.805-12.4-7.164-6.287-3.67-5.152-10.832-5.152-17.035V573.06c0-3.232 1.747-6.377 4.541-7.949.087 0 .087-.087.175-.087 13.797-7.95 27.594-15.9 41.392-23.936 1.833-1.048 3.667-2.097 5.588-3.232 3.58-2.097 7.248-1.31 10.567.524 4.628 2.62 9.169 5.329 13.797 7.95 24.975 14.413 49.95 28.827 75.012 43.328v-7.512c-2.008-.088-3.93-.787-5.763-1.835a431.041 431.041 0 01-13.798-7.862zm0 27.343c-24.975-14.414-49.95-28.828-75.012-43.33-12.662 7.339-25.324 14.677-38.073 21.927v43.94c15.02 8.649 30.04 17.385 45.06 26.033 3.754 2.184 7.596 4.368 11.351 6.552h10.48c-15.195-8.823-30.39-17.559-45.671-26.382-3.755-2.184-7.423-4.28-11.178-6.464-4.192-2.446-4.803-6.465-4.803-10.745v-13.715-10.658c0-5.765 4.192-8.037 8.383-10.395 6.637-3.844 13.186-7.6 19.823-11.444a9.39 9.39 0 019.344 0c4.977 2.883 9.867 5.766 14.845 8.561C516.963 588.085 541.938 602.499 567 617v-7.425a9.643 9.643 0 01-4.628-1.223 2273.759 2273.759 0 01-14.933-8.561zM261.363 495.137c-13.884-8.036-27.856-16.073-41.741-24.11-15.02-8.648-30.04-17.384-45.06-26.032v-16.598c4.803-2.796 9.606-5.59 14.409-8.299a78253.358 78253.358 0 0175.012 43.329c4.977 2.883 9.868 5.765 14.845 8.56a9.39 9.39 0 009.344 0c26.547-15.287 53.093-30.661 79.64-45.949 3.406-1.922 6.811-3.93 10.217-5.94 4.803 2.795 9.606 5.59 14.409 8.299v16.685c-25.063 14.414-50.037 28.915-75.1 43.329-4.977 2.883-9.867 5.765-14.845 8.56-2.794 1.66-4.54 4.718-4.54 7.95V608.788c-4.804 2.796-9.606 5.504-14.41 8.3-4.802-2.796-9.605-5.504-14.408-8.3v-86.657-15.9c0-3.668-1.135-7.25-4.628-9.26-1.048-.61-2.096-1.222-3.144-1.834zm2.62-4.542c3.406 2.009 6.899 3.93 10.304 5.94v103.868c0 1.135.175 2.096.437 3.057 2.794 8.735 17.989 7.774 17.989-3.058v-91.986-11.88c6.374-3.67 12.837-7.426 19.211-11.095l55.8-32.235c4.978-2.883 9.868-5.765 14.846-8.56.96-.525 1.746-1.224 2.358-1.923 6.113-6.813-2.358-19.393-11.702-13.977a31238.64 31238.64 0 01-72.916 42.106c-2.183 1.31-4.454 2.534-6.637 3.844-3.405 2.01-6.811 3.931-10.217 5.94-24.975-14.414-49.95-28.828-75.012-43.329-4.977-2.882-9.867-5.765-14.845-8.56-5.501-3.146-10.654-.175-12.75 4.28-1.833 3.93-1.31 8.91 3.494 11.618 26.546 15.288 53.093 30.662 79.64 45.95zM245.47 535.67v-17.21c0-3.232-1.746-6.376-4.54-7.949-26.548-15.287-53.094-30.662-79.641-45.95-3.406-2.009-6.899-3.93-10.304-5.94v-43.94c12.662-7.338 25.324-14.676 38.073-21.927 24.975 14.414 49.95 28.828 75.012 43.33 4.628 2.62 9.17 5.328 13.798 7.949 3.23 1.922 6.898 2.62 10.479.611 1.047-.611 2.008-1.135 3.056-1.747 13.885-8.037 27.857-16.074 41.741-24.11 15.02-8.649 29.953-17.297 44.972-25.945 12.663 7.338 25.325 14.676 38.074 21.926v43.94c-25.062 14.414-50.037 28.916-75.1 43.33-4.628 2.62-9.168 5.328-13.797 7.949-3.23 1.834-5.676 4.63-5.676 8.648V622.33c-12.662 7.338-25.324 14.676-38.073 21.926-12.662-7.338-25.325-14.676-38.074-21.926V535.67zm5.152-25.42V614.117c0 3.231 1.747 6.376 4.541 7.949 4.017 2.358 8.034 4.63 12.05 6.988l8.122 4.717c2.533 1.485 4.978 3.233 8.034 3.233 2.97 0 5.24-1.573 7.685-2.97 2.707-1.573 5.326-3.058 8.033-4.63 4.192-2.446 8.384-4.892 12.575-7.251 2.795-1.66 4.541-4.717 4.541-7.95v-91.986-11.88c25.062-14.414 50.037-28.916 75.1-43.33 4.628-2.62 9.169-5.328 13.797-7.949 3.318-1.922 5.676-4.805 5.676-8.91V439.49v-13.715-2.708c0-3.844-2.358-6.726-5.502-8.473-7.16-4.106-14.32-8.3-21.481-12.405-.35-.262-.786-.437-1.136-.699-1.572-.874-3.056-1.31-4.54-1.31h-.35c-1.397 0-2.882.436-4.366 1.31-26.547 15.287-53.094 30.662-79.64 45.95-3.406 2.009-6.812 3.93-10.217 5.94a78253.358 78253.358 0 01-75.012-43.329c-4.978-2.883-9.868-5.766-14.846-8.56a9.39 9.39 0 00-9.343 0c-4.017 2.358-8.034 4.629-12.051 6.988l-8.121 4.717c-2.445 1.398-5.153 2.708-6.724 5.241-1.485 2.534-1.223 5.329-1.223 8.124v23.849c0 3.232 1.747 6.377 4.541 7.95 26.547 15.287 53.093 30.661 79.64 45.949 3.406 1.922 6.812 3.93 10.217 5.94zM14.41 433.113v-91.986c0-3.233 1.746-6.377 4.54-7.95 3.319-1.922 6.55-3.756 9.868-5.678 1.66-.96 3.319-1.922 5.065-2.883 25.062-14.414 50.037-28.915 75.1-43.329v-16.597c-4.803-2.796-9.606-5.591-14.41-8.3-3.405 1.923-6.81 3.932-10.216 5.941-26.547 15.287-53.094 30.662-79.64 45.95a9.643 9.643 0 01-4.629 1.223v7.425c.437-.262.786-.437 1.223-.699 2.969-1.747 6.025-3.494 8.994-5.241 7.685-4.456 15.282-8.823 22.967-13.279 18.862-10.92 37.724-21.839 56.674-32.671 8.732-5.067 16.679 5.503 12.749 12.492-.699 1.31-1.834 2.446-3.493 3.407-4.978 2.883-9.868 5.765-14.845 8.56-21.919 12.668-43.925 25.334-65.843 38.001-3.057 1.747-6.113 3.582-9.257 5.329V436.696c0 1.485-.262 2.795-.785 3.93-1.572 3.32-4.978 4.98-8.471 4.98v7.688c4.803-2.796 9.606-5.504 14.409-8.3v-11.88zM550.758 137.85c-4.017-2.359-8.034-4.63-12.051-6.989-2.795-1.66-4.541-4.717-4.541-7.95v-17.208-86.658c-3.406-2.01-6.899-3.931-10.304-5.94-7.598-4.368-15.108-8.649-22.618-13.017h-10.391c11.177 6.465 22.268 12.93 33.445 19.306 2.795 1.66 4.541 4.717 4.541 7.95V131.21c12.662 7.338 25.324 14.676 38.074 21.926v-7.425c-3.057 0-5.502-1.747-8.034-3.232-2.707-1.573-5.414-3.058-8.121-4.63zM38.074 79.232v-48.22-3.495c0-4.018 2.445-6.813 5.676-8.648 4.628-2.62 9.169-5.329 13.797-7.95C63.66 7.252 69.86 3.67 76.06.088H65.668C54.753 6.377 43.75 12.754 32.834 19.044V122.91c0 3.232-1.746 6.377-4.54 7.95-4.192 2.445-8.384 4.891-12.576 7.25-2.707 1.572-5.326 3.057-8.033 4.63-2.446 1.397-4.716 2.97-7.685 2.97v7.425c12.662-7.338 25.324-14.676 38.074-21.926V79.232zM61.65 92.86V44.64v-3.495c0-4.018 2.445-6.814 5.676-8.648 4.629-2.621 9.17-5.33 13.798-7.95 14.059-8.211 28.118-16.335 42.178-24.46H112.91C94.049 10.92 75.274 21.84 56.411 32.671V136.538c0 3.233-1.746 6.377-4.54 7.95a7029.783 7029.783 0 01-26.285 15.2l-19.91 11.531c-1.834 1.048-3.755 1.66-5.676 1.66v7.6c20.521-11.88 41.13-23.761 61.651-35.642V92.86zm496.093 16.336v-17.21V5.33c-3.057-1.747-6.113-3.582-9.257-5.329h-10.392c2.27 1.31 4.454 2.62 6.724 3.931 1.048.612 2.009 1.136 3.057 1.747 3.493 2.01 4.628 5.591 4.628 9.26v102.557c4.803 2.795 9.606 5.503 14.409 8.299v-7.688c-4.541.088-9.17-2.883-9.17-8.91zM547.439 217.78a78253.358 78253.358 0 01-75.012-43.329c-3.405 2.01-6.811 3.931-10.217 5.94-25.062 14.414-50.037 28.915-75.1 43.33v98.538c.176.087.438.262.612.349 2.882 1.66 5.764 3.32 8.558 4.98l35.89 20.703c13.885 8.037 27.857 16.073 41.742 24.11 1.048.612 2.008 1.136 3.056 1.747 3.493 2.01 4.628 5.591 4.628 9.26v102.557c3.406 2.01 6.899 3.931 10.305 5.94a78251.234 78251.234 0 0175.012 43.33v-7.601c-1.572.087-3.144-.262-4.629-1.048-23.665-13.628-47.242-27.256-70.907-40.883-2.795-1.66-4.541-4.717-4.541-7.95v-17.209-86.658c-3.406-2.009-6.899-3.93-10.305-5.94a28593.02 28593.02 0 00-69.772-40.271c-.786-.437-1.572-.961-2.358-1.398-4.89-2.795-12.05-5.59-12.05-12.23v-81.853c0-3.232 1.746-6.377 4.54-7.95 6.812-3.93 13.623-7.862 20.434-11.793 15.457-8.91 30.913-17.82 46.37-26.818 1.31-.786 2.62-1.485 3.93-2.271 3.58-2.01 7.247-1.31 10.478.611 4.629 2.62 9.17 5.329 13.798 7.95a78251.234 78251.234 0 0175.012 43.328v-7.512c-2.009-.088-3.93-.786-5.764-1.835-4.54-2.883-9.169-5.503-13.71-8.124zm7.248-50.405c-13.186-7.6-26.46-15.287-39.645-22.887-2.795-1.66-4.541-4.717-4.541-7.95V119.33 32.671c-3.406-2.009-6.899-3.93-10.304-5.94-15.37-8.91-30.826-17.733-46.195-26.644H443.61c4.104 2.359 8.121 4.718 12.226 7.076 13.884 8.037 27.856 16.074 41.74 24.11 1.049.612 2.01 1.136 3.057 1.748 3.493 2.009 4.628 5.59 4.628 9.26v102.556c20.522 11.88 41.13 23.761 61.652 35.642v-7.6c-1.747 0-3.493-.437-5.24-1.398-2.358-1.398-4.628-2.795-6.986-4.106zM103.742 60.014c25.062-14.414 50.037-28.915 75.1-43.329 3.405-2.01 6.81-3.93 10.216-5.94 24.975 14.414 49.95 28.828 75.012 43.329 4.628 2.62 9.17 5.329 13.798 7.95 3.23 1.921 6.898 2.62 10.479.61 1.047-.61 2.008-1.135 3.056-1.746 13.885-8.037 27.857-16.074 41.741-24.11 15.02-8.65 29.953-17.297 44.972-25.946a78252.085 78252.085 0 0175.012 43.33c3.406 2.008 6.9 3.93 10.305 5.94V158.638a22503.732 22503.732 0 01-40.257 23.237c-14.845 8.561-29.603 17.122-44.448 25.683-4.629 2.621-9.78 4.805-9.78 11.27v103.517c-2.271 1.31-4.629 2.62-6.9 3.931l-2.357 1.31c-21.919 12.667-43.924 25.334-65.843 38-3.406 1.922-6.811 3.932-10.217 5.94-24.975-14.413-49.95-28.827-75.012-43.328-.35-.175-.699-.437-1.048-.612-3.056-1.747-6.113-3.581-9.256-5.328V235.6v-15.9c0-3.668-1.136-7.25-4.629-9.259-1.047-.611-2.008-1.136-3.056-1.747-13.885-8.037-27.857-16.074-41.741-24.11-15.02-8.649-30.04-17.384-45.06-26.033V71.895c-.087-4.019-.087-7.95-.087-11.881zm5.152 90.152c0 3.232 1.747 6.377 4.54 7.95 26.548 15.287 53.094 30.662 79.641 45.95 3.406 2.008 6.899 3.93 10.304 5.94V313.872c0 3.232 1.747 6.376 4.541 7.949 3.319 1.922 6.55 3.756 9.868 5.678 20.347 11.706 40.693 23.499 61.04 35.205a9.39 9.39 0 009.344 0c20.347-11.706 40.693-23.5 61.04-35.205 3.23-1.834 6.462-3.756 9.78-5.59 0 0 .088 0 .088-.088 2.794-1.66 4.54-4.717 4.54-7.95v-91.986-11.88c25.063-14.415 50.038-28.916 75.1-43.33 4.628-2.62 9.169-5.328 13.797-7.949 3.231-1.834 5.676-4.63 5.676-8.648v-4.543-53.55-21.14c0-4.106-.436-8.124-4.54-10.483-1.049-.611-2.01-1.135-3.057-1.747-15.107-8.735-30.302-17.471-45.409-26.207-7.51-4.28-14.932-8.648-22.442-12.928-1.572-.874-3.057-1.31-4.454-1.31h-.349c-1.397 0-2.882.436-4.454 1.31-26.547 15.287-53.093 30.662-79.64 45.95-3.406 2.008-6.811 3.93-10.217 5.94-25.15-14.502-50.124-28.916-75.1-43.33-4.628-2.62-9.168-5.328-13.797-7.949-3.23-1.922-6.986-2.62-10.479-.611-1.31.786-2.62 1.485-3.93 2.27-15.456 8.911-30.912 17.822-46.369 26.82-6.112 3.494-12.225 7.075-18.25 10.57-3.58 2.009-6.725 4.455-6.725 9.26v55.907c-.087 8.561-.087 17.21-.087 25.858zm-23.578 8.299v-51.977-48.221-3.494c0-4.019 2.445-6.814 5.676-8.649 4.629-2.62 9.17-5.328 13.798-7.95 21.831-12.753 43.837-25.42 65.755-38.087h-10.391l-4.978 2.883c-25.062 14.501-50.037 28.915-75.1 43.416V150.253c0 3.233-1.746 6.377-4.54 7.95 0 0-.087 0-.087.087-12.488 7.25-24.975 14.414-37.463 21.665-7.946 4.542-15.893 9.172-23.752 13.715-4.017 2.27-9.17 6.377-14.147 6.551v7.6c3.406-2.009 6.812-3.93 10.217-5.94 24.888-14.501 49.95-28.915 75.012-43.416zm87.063 12.405c-15.02-8.649-30.04-17.384-45.06-26.033V73.642C147.842 61.762 168.45 49.88 188.972 38a78252.085 78252.085 0 0175.012 43.329c4.628 2.62 9.169 5.329 13.797 7.95 3.231 1.921 6.899 2.62 10.48.611 1.047-.612 2.008-1.136 3.056-1.747 13.884-8.037 27.856-16.074 41.74-24.11 15.02-8.649 29.953-17.297 44.973-25.946 20.521 11.881 41.13 23.761 61.651 35.642v71.196c-25.062 14.413-50.037 28.915-75.099 43.329-4.628 2.62-9.169 5.328-13.797 7.949-3.231 1.834-5.676 4.63-5.676 8.648v103.693c-10.916 6.29-21.919 12.666-32.834 18.956-9.606 5.503-19.212 11.094-28.818 16.598-9.605-5.504-19.211-11.095-28.817-16.598-10.915-6.29-21.918-12.667-32.834-18.956v-86.658-15.9c0-3.668-1.135-7.25-4.628-9.259-1.048-.611-2.009-1.136-3.057-1.747-13.884-8.037-27.769-16.074-41.74-24.11zM137.1 144.488c26.547 15.287 53.093 30.662 79.64 45.95 3.406 2.009 6.899 3.93 10.305 5.94V300.245c0 3.232 1.746 6.377 4.54 7.95 11.178 6.464 22.356 12.84 33.446 19.305 4.628 2.62 9.169 5.329 13.797 7.95a9.39 9.39 0 009.344 0c4.628-2.621 9.169-5.33 13.797-7.95 2.445-1.398 4.803-2.795 7.248-4.193 8.733-5.067 17.552-10.133 26.285-15.2 2.794-1.66 4.54-4.717 4.54-7.95v-91.986-11.88c25.063-14.415 50.038-28.916 75.1-43.33 4.978-2.882 9.868-5.765 14.845-8.56 2.795-1.66 4.541-4.718 4.541-7.95V90.676 82.64c0-4.193-2.183-7.25-5.589-9.26l-19.91-11.53c-8.732-5.067-17.465-10.134-26.284-15.2-1.572-.874-3.057-1.31-4.454-1.31h-.349c-1.397 0-2.97.436-4.454 1.31-26.547 15.287-53.093 30.662-79.64 45.949-3.406 1.922-6.811 3.931-10.217 5.94a78252.085 78252.085 0 01-75.012-43.329c-4.628-2.62-9.17-5.328-13.797-7.95-3.319-1.92-6.986-2.62-10.567-.523-1.833 1.048-3.667 2.096-5.588 3.232-13.798 7.95-27.595 15.899-41.392 23.936-5.327 3.057-4.716 8.386-4.716 13.453v49.181c0 3.233 1.747 6.29 4.541 7.95zm146.356-100.46c3.406-2.01 6.812-3.931 10.217-5.94 21.919-12.667 43.925-25.334 65.843-38h-10.391c-20.347 11.705-40.694 23.498-61.04 35.204a9.39 9.39 0 01-9.344 0C258.48 23.586 238.135 11.793 217.788.087h-10.392c.35.175.699.437 1.048.612 25.063 14.414 50.037 28.915 75.012 43.329zM547.44 299.633a78253.358 78253.358 0 01-75.012-43.329c-4.803 2.796-9.606 5.591-14.408 8.3v16.684c15.02 8.649 30.04 17.384 45.06 26.033 11.7 6.726 23.315 13.453 35.016 20.179 2.27 1.31 4.454 2.62 6.724 3.931 1.048.612 2.009 1.136 3.057 1.747 3.493 2.01 4.628 5.591 4.628 9.26v102.557c4.803 2.795 9.606 5.503 14.409 8.299v-7.688c-4.629 0-9.257-2.97-9.257-8.91v-17.21-86.657c-3.056-1.747-6.112-3.582-9.256-5.329-.35-.175-.699-.437-1.048-.611-26.547-15.288-53.094-30.663-79.64-45.95-3.231-1.835-4.541-4.717-4.454-7.513.087-6.202 6.724-12.492 13.797-8.386 4.978 2.883 9.868 5.766 14.846 8.561 24.975 14.414 49.95 28.828 75.012 43.329v-7.425a9.643 9.643 0 01-4.629-1.223c-4.977-2.97-9.867-5.766-14.845-8.649zm14.845-100.547c-23.665-13.628-47.242-27.256-70.907-40.883-2.795-1.66-4.541-4.717-4.541-7.95v-17.209-86.658c-3.406-2.009-6.899-3.93-10.305-5.94A49530.161 49530.161 0 00406.76.087h-10.392l35.89 20.704C446.143 28.828 460.115 36.864 474 44.9c1.048.612 2.009 1.136 3.056 1.747 3.493 2.01 4.629 5.591 4.629 9.26v102.557c3.405 2.01 6.898 3.931 10.304 5.94A78251.234 78251.234 0 01567 207.735v-7.601c-1.66.087-3.231-.175-4.716-1.048zM312.274.087h-10.392c-4.628 2.621-9.17 5.33-13.797 7.95a9.39 9.39 0 01-9.344 0c-4.541-2.62-9.082-5.329-13.71-7.95h-10.392c9.606 5.504 19.212 11.095 28.817 16.598 9.606-5.503 19.212-11.094 28.818-16.598zm235.165 244.948a78253.358 78253.358 0 01-75.012-43.329c-20.521 11.881-41.13 23.761-61.651 35.642v71.196c10.916 6.29 21.918 12.666 32.834 18.956 4.104 2.359 8.121 4.717 12.226 7.076 13.884 8.037 27.856 16.074 41.74 24.11 1.049.612 2.01 1.136 3.057 1.747 3.493 2.01 4.628 5.591 4.628 9.26V472.25c20.522 11.88 41.13 23.76 61.652 35.641v-7.6c-1.747 0-3.493-.436-5.24-1.397-2.358-1.31-4.628-2.708-6.986-4.019-13.186-7.6-26.46-15.287-39.645-22.887-2.795-1.66-4.541-4.717-4.541-7.95V446.83v-86.658c-3.406-2.009-6.899-3.93-10.304-5.94-15.37-8.91-30.739-17.733-46.195-26.644-6.812-3.93-13.71-7.95-20.522-11.88-4.104-2.359-8.208-4.717-12.4-7.163-6.287-3.67-5.152-10.833-5.152-17.035v-45.775c0-3.232 1.747-6.377 4.541-7.95.087 0 .087-.087.175-.087 13.797-7.95 27.594-15.899 41.392-23.935 1.833-1.049 3.667-2.097 5.588-3.233 3.58-2.096 7.248-1.31 10.567.525 4.628 2.62 9.169 5.328 13.797 7.95A78253.358 78253.358 0 01567 262.331v-7.513c-2.008-.087-3.93-.786-5.763-1.834-4.629-2.62-9.257-5.329-13.798-7.95zm0 27.256c-24.975-14.414-49.95-28.828-75.012-43.33-12.662 7.339-25.324 14.677-38.073 21.927v43.94c15.02 8.649 30.04 17.385 45.06 26.033 3.754 2.184 7.596 4.368 11.351 6.552 11.178 6.464 22.268 12.928 33.446 19.305 2.794 1.66 4.54 4.718 4.54 7.95V458.535c12.663 7.338 25.325 14.676 38.074 21.926v-7.425c-3.056 0-5.501-1.747-8.034-3.232l-8.12-4.717c-4.018-2.359-8.035-4.63-12.052-6.989-2.794-1.66-4.54-4.717-4.54-7.95V432.94v-86.657c-3.406-2.01-6.9-3.931-10.305-5.94-7.51-4.368-15.02-8.649-22.53-13.017-15.194-8.823-30.389-17.558-45.67-26.381-3.755-2.184-7.423-4.28-11.178-6.465-4.192-2.446-4.803-6.464-4.803-10.745V270.02v-10.657c0-5.766 4.192-8.037 8.383-10.396 6.637-3.843 13.186-7.6 19.823-11.443a9.39 9.39 0 019.344 0c4.977 2.882 9.867 5.765 14.845 8.56A78253.358 78253.358 0 01567 289.414v-7.426a9.643 9.643 0 01-4.628-1.223c-5.065-2.708-9.955-5.59-14.933-8.473zM261.363 167.725c-13.884-8.037-27.856-16.074-41.741-24.11-15.02-8.649-30.04-17.385-45.06-26.033v-16.598c4.803-2.795 9.606-5.59 14.409-8.299a78251.66 78251.66 0 0175.012 43.33c4.977 2.882 9.868 5.765 14.845 8.56a9.39 9.39 0 009.344 0c26.547-15.287 53.093-30.662 79.64-45.95 3.406-1.921 6.811-3.93 10.217-5.94 4.803 2.796 9.606 5.591 14.409 8.3v16.684c-25.063 14.414-50.037 28.915-75.1 43.33-4.977 2.882-9.867 5.765-14.845 8.56-2.794 1.66-4.54 4.717-4.54 7.95v103.866c-4.804 2.796-9.606 5.504-14.41 8.3-4.802-2.796-9.605-5.504-14.408-8.3v-86.657-15.899c0-3.669-1.135-7.25-4.628-9.26a29.283 29.283 0 00-3.144-1.834zm2.62-4.543c3.406 2.01 6.899 3.931 10.304 5.94V272.99c0 1.135.175 2.096.437 3.057 2.794 8.736 17.989 7.775 17.989-3.058v-91.986-11.88c6.374-3.67 12.837-7.426 19.211-11.095l55.8-32.234c4.978-2.883 9.868-5.766 14.846-8.561.96-.525 1.746-1.223 2.358-1.922 6.113-6.814-2.358-19.393-11.702-13.977a31239.356 31239.356 0 01-72.916 42.106c-2.183 1.31-4.454 2.533-6.637 3.843-3.405 1.922-6.811 3.931-10.217 5.94a78251.234 78251.234 0 01-75.012-43.328c-4.977-2.883-9.867-5.766-14.845-8.561-5.501-3.145-10.654-.175-12.75 4.28-1.833 3.931-1.31 8.91 3.494 11.619 26.546 15.287 53.093 30.662 79.64 45.95zM240.842 183.1c-26.547-15.287-53.094-30.662-79.64-45.95-3.406-2.008-6.9-3.93-10.305-5.94V87.27c12.662-7.338 25.324-14.676 38.074-21.926a78251.662 78251.662 0 0175.012 43.329c4.628 2.62 9.169 5.328 13.797 7.95 3.231 1.92 6.899 2.62 10.48.61 1.047-.61 2.008-1.135 3.056-1.747 13.884-8.036 27.856-16.073 41.74-24.11 15.02-8.648 29.953-17.297 44.973-25.945 12.662 7.338 25.324 14.676 38.074 21.927v43.94c-25.062 14.414-50.037 28.915-75.1 43.329-4.628 2.62-9.169 5.329-13.797 7.95-3.231 1.834-5.676 4.63-5.676 8.648V294.916c-12.662 7.338-25.324 14.676-38.074 21.926-12.662-7.337-25.324-14.675-38.073-21.926v-86.658-17.21c.087-3.144-1.66-6.289-4.541-7.949zm-.524-6.29c3.406 2.01 6.899 3.932 10.304 5.941v103.868c0 3.231 1.747 6.376 4.541 7.949 4.017 2.358 8.034 4.63 12.05 6.988l8.122 4.717c2.533 1.485 4.978 3.233 8.034 3.233 2.97 0 5.24-1.573 7.685-2.97 2.707-1.573 5.326-3.058 8.033-4.63 4.192-2.446 8.384-4.892 12.575-7.251 2.795-1.66 4.541-4.717 4.541-7.95v-91.986-11.88c25.062-14.414 50.037-28.916 75.1-43.33 4.628-2.62 9.169-5.328 13.797-7.949 3.318-1.922 5.676-4.805 5.676-8.91V111.99 98.276v-2.708c0-3.844-2.358-6.726-5.502-8.473-7.16-4.106-14.32-8.3-21.481-12.405-.35-.262-.786-.437-1.136-.699-1.572-.874-3.056-1.31-4.54-1.31h-.35c-1.397 0-2.882.436-4.366 1.31-26.547 15.287-53.094 30.662-79.64 45.95-3.406 2.009-6.812 3.93-10.217 5.94-24.975-14.414-49.95-28.828-75.012-43.329-4.978-2.883-9.868-5.766-14.846-8.56a9.39 9.39 0 00-9.343 0c-4.017 2.358-8.034 4.629-12.051 6.988l-8.121 4.717c-2.445 1.398-5.153 2.708-6.724 5.241-1.485 2.534-1.223 5.329-1.223 8.124v23.849c0 3.232 1.747 6.377 4.541 7.95 26.46 15.287 53.006 30.661 79.553 45.949zm-225.91-71.107V13.715c0-3.232 1.747-6.377 4.541-7.95C22.268 3.845 25.5 2.01 28.817.088H18.426c-3.057 1.747-6.113 3.582-9.257 5.33v103.866c0 1.485-.262 2.796-.786 3.931-1.484 3.32-4.977 4.98-8.383 4.98v7.687c4.803-2.796 9.606-5.504 14.409-8.299v-11.88z" fill="#FFF" fill-rule="nonzero"></path></svg>