<svg width="381" height="227" viewBox="0 0 381 227" fill="none" xmlns="http://www.w3.org/2000/svg">
<path d="M9.36 64.928H38.16V164H9.36V64.928ZM44.208 111.152H47.664C50.736 111.152 52.992 111.056 54.432 110.864C55.968 110.576 57.168 110 58.032 109.136C58.896 108.368 59.424 107.264 59.616 105.824C59.904 104.288 60.048 102.032 60.048 99.056C60.048 96.08 59.904 93.872 59.616 92.432C59.424 90.896 58.896 89.696 58.032 88.832C57.168 88.064 55.968 87.584 54.432 87.392C52.896 87.104 50.64 86.96 47.664 86.96H44.208V64.928H56.16C63.264 64.928 69.024 65.648 73.44 67.088C77.952 68.432 81.36 70.544 83.664 73.424C85.872 76.112 87.36 79.52 88.128 83.648C88.896 87.68 89.28 92.816 89.28 99.056C89.28 105.008 88.896 109.952 88.128 113.888C87.456 117.824 86.064 121.136 83.952 123.824C81.552 126.896 78.096 129.248 73.584 130.88C69.168 132.416 63.36 133.184 56.16 133.184H44.208V111.152ZM138.605 118.496C138.605 116 138.509 114.224 138.317 113.168C138.125 112.112 137.549 111.344 136.589 110.864C135.725 110.384 134.093 110.048 131.693 109.856C130.253 109.76 127.133 109.712 122.333 109.712C117.725 109.712 113.453 109.904 109.517 110.288L101.885 110.72V92C110.909 90.272 120.653 89.408 131.117 89.408C139.181 89.408 145.469 89.984 149.981 91.136C154.589 92.288 158.045 94.112 160.349 96.608C162.365 98.912 163.661 101.84 164.237 105.392C164.909 108.944 165.245 113.888 165.245 120.224V164H138.605V118.496ZM117.293 165.008C110.669 165.008 105.773 163.184 102.605 159.536C99.4365 155.792 97.8525 150.176 97.8525 142.688C97.8525 138.08 98.1885 134.384 98.8605 131.6C99.5325 128.72 100.685 126.464 102.316 124.832C103.949 123.104 106.205 121.904 109.085 121.232C111.965 120.464 115.757 120.08 120.461 120.08L132.557 120.368V133.184H131.117C128.909 133.184 127.469 133.232 126.797 133.328C124.877 133.424 123.869 134.336 123.773 136.064C123.677 136.64 123.629 137.84 123.629 139.664C123.629 141.104 123.677 142.208 123.773 142.976C123.965 143.744 124.253 144.368 124.637 144.848C125.117 145.52 125.837 145.904 126.797 146C128.141 146.192 129.581 146.288 131.117 146.288H132.557V160.976C130.445 162.608 128.189 163.664 125.789 164.144C123.485 164.72 120.653 165.008 117.293 165.008ZM214.005 94.736C216.021 92.816 218.373 91.472 221.061 90.704C223.845 89.84 227.253 89.408 231.285 89.408V113.456C226.965 113.456 223.413 113.744 220.629 114.32C217.941 114.896 215.733 115.904 214.005 117.344V94.736ZM181.317 90.56H207.957V164H181.317V90.56ZM236.873 90.56H250.409V69.248H277.049V90.56H293.177V110.864H236.873V90.56ZM250.409 116.624H277.049V164H250.409V116.624ZM303.942 57.008H330.582V164H303.942V57.008ZM345.558 129.296C345.558 124.208 345.51 120.848 345.414 119.216C345.222 116.528 344.982 114.752 344.694 113.888C344.31 112.928 343.638 112.352 342.678 112.16C341.718 111.872 340.182 111.728 338.07 111.728H336.63V94.16C340.47 91.088 345.366 89.552 351.318 89.552C359.958 89.552 365.766 92.192 368.742 97.472C370.086 99.776 370.998 102.608 371.478 105.968C371.958 109.232 372.198 113.264 372.198 118.064V164H345.558V129.296Z" fill="white"/>
</svg>
