<svg width="454" height="150" viewBox="0 0 454 150" fill="none" xmlns="http://www.w3.org/2000/svg">
<g filter="url(#filter0_d)">
<path d="M15.36 9.928H44.16V109H15.36V9.928ZM50.208 56.152H53.664C56.736 56.152 58.992 56.056 60.432 55.864C61.968 55.576 63.168 55 64.032 54.136C64.896 53.368 65.424 52.264 65.616 50.824C65.904 49.288 66.048 47.032 66.048 44.056C66.048 41.08 65.904 38.872 65.616 37.432C65.424 35.896 64.896 34.696 64.032 33.832C63.168 33.064 61.968 32.584 60.432 32.392C58.896 32.104 56.64 31.96 53.664 31.96H50.208V9.928H62.16C69.264 9.928 75.024 10.648 79.44 12.088C83.952 13.432 87.36 15.544 89.664 18.424C91.872 21.112 93.36 24.52 94.128 28.648C94.896 32.68 95.28 37.816 95.28 44.056C95.28 50.008 94.896 54.952 94.128 58.888C93.456 62.824 92.064 66.136 89.952 68.824C87.552 71.896 84.096 74.248 79.584 75.88C75.168 77.416 69.36 78.184 62.16 78.184H50.208V56.152ZM161.885 63.496C161.885 61 161.789 59.224 161.597 58.168C161.405 57.112 160.829 56.344 159.869 55.864C159.005 55.384 157.373 55.048 154.973 54.856C153.533 54.76 150.413 54.712 145.613 54.712C141.004 54.712 136.732 54.904 132.796 55.288L125.164 55.72V37C134.188 35.272 143.932 34.408 154.396 34.408C162.461 34.408 168.749 34.984 173.261 36.136C177.869 37.288 181.325 39.112 183.629 41.608C185.645 43.912 186.941 46.84 187.517 50.392C188.189 53.944 188.525 58.888 188.525 65.224V109H161.885V63.496ZM140.572 110.008C133.948 110.008 129.052 108.184 125.884 104.536C122.716 100.792 121.132 95.176 121.132 87.688C121.132 83.08 121.468 79.384 122.14 76.6C122.812 73.72 123.964 71.464 125.596 69.832C127.228 68.104 129.484 66.904 132.364 66.232C135.244 65.464 139.036 65.08 143.74 65.08L155.837 65.368V78.184H154.396C152.189 78.184 150.749 78.232 150.077 78.328C148.157 78.424 147.148 79.336 147.052 81.064C146.957 81.64 146.909 82.84 146.909 84.664C146.909 86.104 146.957 87.208 147.052 87.976C147.244 88.744 147.533 89.368 147.917 89.848C148.397 90.52 149.117 90.904 150.077 91C151.42 91.192 152.86 91.288 154.396 91.288H155.837V105.976C153.725 107.608 151.469 108.664 149.069 109.144C146.765 109.72 143.933 110.008 140.572 110.008ZM254.565 39.736C256.581 37.816 258.933 36.472 261.621 35.704C264.405 34.84 267.813 34.408 271.845 34.408V58.456C267.525 58.456 263.973 58.744 261.189 59.32C258.501 59.896 256.293 60.904 254.565 62.344V39.736ZM221.877 35.56H248.517V109H221.877V35.56ZM294.713 35.56H308.249V14.248H334.889V35.56H351.017V55.864H294.713V35.56ZM308.249 61.624H334.889V109H308.249V61.624ZM379.062 2.008H405.702V109H379.062V2.008ZM420.678 74.296C420.678 69.208 420.63 65.848 420.534 64.216C420.342 61.528 420.102 59.752 419.814 58.888C419.43 57.928 418.758 57.352 417.798 57.16C416.838 56.872 415.302 56.728 413.19 56.728H411.75V39.16C415.59 36.088 420.486 34.552 426.438 34.552C435.078 34.552 440.886 37.192 443.862 42.472C445.206 44.776 446.118 47.608 446.598 50.968C447.078 54.232 447.318 58.264 447.318 63.064V109H420.678V74.296Z" fill="white"/>
<path d="M6 128.44H292.149V139.96H6V128.44Z" fill="white"/>
<path d="M15.36 9.928V7.928H13.36V9.928H15.36ZM44.16 9.928H46.16V7.928H44.16V9.928ZM44.16 109V111H46.16V109H44.16ZM15.36 109H13.36V111H15.36V109ZM50.208 56.152V54.152H48.208V56.152H50.208ZM60.432 55.864L60.6963 57.8465L60.7487 57.8395L60.8006 57.8297L60.432 55.864ZM64.032 54.136L62.7033 52.6412L62.6593 52.6802L62.6178 52.7218L64.032 54.136ZM65.616 50.824L63.6503 50.4554L63.6405 50.5073L63.6335 50.5597L65.616 50.824ZM65.616 37.432L63.6314 37.6801L63.6405 37.7526L63.6548 37.8242L65.616 37.432ZM64.032 33.832L65.4462 32.4178L65.4047 32.3762L65.3607 32.3372L64.032 33.832ZM60.432 32.392L60.0634 34.3577L60.1234 34.369L60.1839 34.3766L60.432 32.392ZM50.208 31.96H48.208V33.96H50.208V31.96ZM50.208 9.928V7.928H48.208V9.928H50.208ZM79.44 12.088L78.82 13.9895L78.8444 13.9974L78.8691 14.0048L79.44 12.088ZM89.664 18.424L88.1023 19.6734L88.1103 19.6835L88.1186 19.6935L89.664 18.424ZM94.128 28.648L92.1617 29.0138L92.1633 29.0222L94.128 28.648ZM94.128 58.888L92.165 58.505L92.1605 58.5281L92.1565 58.5514L94.128 58.888ZM89.952 68.824L88.3794 67.5883L88.376 67.5927L89.952 68.824ZM79.584 75.88L80.241 77.769L80.2527 77.7649L80.2643 77.7608L79.584 75.88ZM50.208 78.184H48.208V80.184H50.208V78.184ZM15.36 11.928H44.16V7.928H15.36V11.928ZM42.16 9.928V109H46.16V9.928H42.16ZM44.16 107H15.36V111H44.16V107ZM17.36 109V9.928H13.36V109H17.36ZM50.208 58.152H53.664V54.152H50.208V58.152ZM53.664 58.152C56.7496 58.152 59.1171 58.057 60.6963 57.8465L60.1677 53.8815C58.8669 54.055 56.7224 54.152 53.664 54.152V58.152ZM60.8006 57.8297C62.6226 57.4881 64.2271 56.7693 65.4462 55.5502L62.6178 52.7218C62.1089 53.2307 61.3134 53.6639 60.0634 53.8983L60.8006 57.8297ZM65.3607 55.6308C66.6678 54.469 67.3599 52.8777 67.5985 51.0883L63.6335 50.5597C63.4881 51.6503 63.1242 52.267 62.7033 52.6412L65.3607 55.6308ZM67.5817 51.1926C67.9046 49.4707 68.048 47.0661 68.048 44.056H64.048C64.048 46.9979 63.9034 49.1052 63.6503 50.4554L67.5817 51.1926ZM68.048 44.056C68.048 41.0535 67.9056 38.6822 67.5772 37.0398L63.6548 37.8242C63.9024 39.0618 64.048 41.1065 64.048 44.056H68.048ZM67.6006 37.1839C67.3683 35.3262 66.7004 33.672 65.4462 32.4178L62.6178 35.2462C63.0916 35.72 63.4797 36.4658 63.6314 37.6801L67.6006 37.1839ZM65.3607 32.3372C64.1073 31.223 62.4839 30.6329 60.6801 30.4074L60.1839 34.3766C61.4521 34.5351 62.2287 34.905 62.7033 35.3268L65.3607 32.3372ZM60.8006 30.4263C59.0788 30.1034 56.6741 29.96 53.664 29.96V33.96C56.6059 33.96 58.7133 34.1046 60.0634 34.3577L60.8006 30.4263ZM53.664 29.96H50.208V33.96H53.664V29.96ZM52.208 31.96V9.928H48.208V31.96H52.208ZM50.208 11.928H62.16V7.928H50.208V11.928ZM62.16 11.928C69.1526 11.928 74.6806 12.6397 78.82 13.9895L80.06 10.1865C75.3674 8.65633 69.3754 7.928 62.16 7.928V11.928ZM78.8691 14.0048C83.0984 15.2646 86.1151 17.1894 88.1023 19.6734L91.2257 17.1746C88.6049 13.8986 84.8056 11.5994 80.011 10.1712L78.8691 14.0048ZM88.1186 19.6935C90.0721 22.0717 91.4428 25.1493 92.1617 29.0138L96.0943 28.2822C95.2772 23.8907 93.672 20.1523 91.2095 17.1545L88.1186 19.6935ZM92.1633 29.0222C92.8991 32.8849 93.28 37.884 93.28 44.056H97.28C97.28 37.748 96.8929 32.4751 96.0927 28.2738L92.1633 29.0222ZM93.28 44.056C93.28 49.9348 92.8997 54.7399 92.165 58.505L96.091 59.271C96.8923 55.1641 97.28 50.0812 97.28 44.056H93.28ZM92.1565 58.5514C91.5311 62.2146 90.2535 65.203 88.3794 67.5884L91.5246 70.0596C93.8745 67.0689 95.3809 63.4334 96.0995 59.2246L92.1565 58.5514ZM88.376 67.5927C86.2558 70.3066 83.1437 72.4656 78.9037 73.9992L80.2643 77.7608C85.0483 76.0304 88.8483 73.4854 91.5281 70.0553L88.376 67.5927ZM78.927 73.991C74.8042 75.425 69.2437 76.184 62.16 76.184V80.184C69.4763 80.184 75.5318 79.407 80.241 77.769L78.927 73.991ZM62.16 76.184H50.208V80.184H62.16V76.184ZM52.208 78.184V56.152H48.208V78.184H52.208ZM159.869 55.864L158.897 57.6123L158.935 57.6334L158.974 57.6529L159.869 55.864ZM154.973 54.856L155.132 52.8624L155.119 52.8613L155.106 52.8604L154.973 54.856ZM132.796 55.288L132.91 57.2848L132.95 57.2825L132.991 57.2785L132.796 55.288ZM125.164 55.72H123.164V57.8364L125.278 57.7168L125.164 55.72ZM125.164 37L124.788 35.0357L123.164 35.3466V37H125.164ZM173.261 36.136L172.766 38.0739L172.775 38.0763L173.261 36.136ZM183.629 41.608L185.134 40.291L185.116 40.271L185.098 40.2514L183.629 41.608ZM187.517 50.392L185.542 50.7121L185.546 50.738L185.551 50.7638L187.517 50.392ZM188.525 109V111H190.525V109H188.525ZM161.885 109H159.885V111H161.885V109ZM125.884 104.536L124.358 105.828L124.366 105.838L124.374 105.847L125.884 104.536ZM122.14 76.6L124.085 77.0693L124.086 77.0619L124.088 77.0545L122.14 76.6ZM125.596 69.832L127.011 71.2462L127.031 71.226L127.051 71.2052L125.596 69.832ZM132.364 66.232L132.819 68.1797L132.85 68.1726L132.88 68.1645L132.364 66.232ZM143.74 65.08L143.788 63.0806L143.764 63.08H143.74V65.08ZM155.837 65.368H157.837V63.4151L155.884 63.3686L155.837 65.368ZM155.837 78.184V80.184H157.837V78.184H155.837ZM150.077 78.328L150.176 80.3255L150.268 80.3209L150.359 80.3079L150.077 78.328ZM147.052 81.064L149.025 81.3928L149.043 81.2845L149.049 81.1749L147.052 81.064ZM147.052 87.976L145.068 88.2241L145.083 88.3439L145.112 88.4611L147.052 87.976ZM147.917 89.848L149.544 88.6855L149.512 88.6412L149.478 88.5986L147.917 89.848ZM150.077 91L150.359 89.0201L150.318 89.0141L150.276 89.0099L150.077 91ZM155.837 91.288H157.837V89.288H155.837V91.288ZM155.837 105.976L157.059 107.559L157.837 106.958V105.976H155.837ZM149.069 109.144L148.676 107.183L148.63 107.192L148.583 107.204L149.069 109.144ZM163.885 63.496C163.885 60.9953 163.791 59.06 163.564 57.8102L159.629 58.5258C159.786 59.388 159.885 61.0047 159.885 63.496H163.885ZM163.564 57.8102C163.26 56.1349 162.286 54.8367 160.763 54.0751L158.974 57.6529C159.371 57.8513 159.549 58.0891 159.629 58.5258L163.564 57.8102ZM160.84 54.1157C159.555 53.4021 157.52 53.0534 155.132 52.8624L154.813 56.8496C157.225 57.0426 158.454 57.3659 158.897 57.6123L160.84 54.1157ZM155.106 52.8604C153.586 52.7592 150.396 52.712 145.613 52.712V56.712C150.429 56.712 153.479 56.7608 154.839 56.8516L155.106 52.8604ZM145.613 52.712C140.95 52.712 136.612 52.9062 132.602 53.2974L132.991 57.2785C136.853 56.9018 141.059 56.712 145.613 56.712V52.712ZM132.683 53.2912L125.051 53.7232L125.278 57.7168L132.91 57.2848L132.683 53.2912ZM127.164 55.72V37H123.164V55.72H127.164ZM125.541 38.9643C134.425 37.2631 144.042 36.408 154.396 36.408V32.408C143.823 32.408 133.952 33.2809 124.788 35.0357L125.541 38.9643ZM154.396 36.408C162.396 36.408 168.491 36.9825 172.766 38.0738L173.755 34.1982C169.006 32.9855 162.525 32.408 154.396 32.408V36.408ZM172.775 38.0763C177.15 39.17 180.205 40.8478 182.159 42.9646L185.098 40.2514C182.444 37.3762 178.587 35.406 173.746 34.1957L172.775 38.0763ZM182.123 42.925C183.852 44.9009 185.016 47.464 185.542 50.7121L189.491 50.0719C188.865 46.216 187.437 42.9231 185.134 40.291L182.123 42.925ZM185.551 50.7638C186.189 54.135 186.525 58.9347 186.525 65.224H190.525C190.525 58.8413 190.188 53.753 189.482 50.0202L185.551 50.7638ZM186.525 65.224V109H190.525V65.224H186.525ZM188.525 107H161.885V111H188.525V107ZM163.885 109V63.496H159.885V109H163.885ZM140.572 108.008C134.303 108.008 130.057 106.29 127.395 103.225L124.374 105.847C128.048 110.078 133.594 112.008 140.572 112.008V108.008ZM127.411 103.244C124.674 100.009 123.132 94.9417 123.132 87.688H119.132C119.132 95.4103 120.759 101.575 124.358 105.828L127.411 103.244ZM123.132 87.688C123.132 83.1548 123.465 79.6356 124.085 77.0693L120.196 76.1307C119.472 79.1324 119.132 83.0052 119.132 87.688H123.132ZM124.088 77.0545C124.699 74.437 125.707 72.5496 127.011 71.2462L124.182 68.4178C122.222 70.3784 120.926 73.003 120.193 76.1455L124.088 77.0545ZM127.051 71.2052C128.354 69.8254 130.228 68.7843 132.819 68.1797L131.91 64.2843C128.741 65.0237 126.103 66.3826 124.142 68.4588L127.051 71.2052ZM132.88 68.1645C135.524 67.4594 139.123 67.08 143.74 67.08V63.08C138.95 63.08 134.965 63.4686 131.849 64.2995L132.88 68.1645ZM143.693 67.0794L155.789 67.3674L155.884 63.3686L143.788 63.0806L143.693 67.0794ZM153.837 65.368V78.184H157.837V65.368H153.837ZM155.837 76.184H154.396V80.184H155.837V76.184ZM154.396 76.184C152.221 76.184 150.633 76.2283 149.794 76.3481L150.359 80.3079C150.864 80.2357 152.156 80.184 154.396 80.184V76.184ZM149.977 76.3305C148.743 76.3922 147.502 76.7292 146.539 77.6009C145.545 78.4999 145.124 79.7138 145.056 80.9531L149.049 81.1749C149.077 80.6862 149.208 80.5801 149.222 80.5671C149.267 80.5268 149.49 80.3598 150.176 80.3255L149.977 76.3305ZM145.08 80.7352C144.952 81.5033 144.909 82.8731 144.909 84.664H148.909C148.909 82.8069 148.961 81.7767 149.025 81.3928L145.08 80.7352ZM144.909 84.664C144.909 86.1294 144.956 87.3316 145.068 88.2241L149.037 87.7279C148.957 87.0844 148.909 86.0786 148.909 84.664H144.909ZM145.112 88.4611C145.355 89.4308 145.747 90.338 146.355 91.0974L149.478 88.5986C149.318 88.398 149.134 88.0572 148.993 87.4909L145.112 88.4611ZM146.289 91.0105C147.161 92.2316 148.451 92.8474 149.877 92.9901L150.276 89.0099C149.782 88.9606 149.632 88.8084 149.544 88.6855L146.289 91.0105ZM149.794 92.9799C151.243 93.1869 152.778 93.288 154.396 93.288V89.288C152.943 89.288 151.598 89.1971 150.359 89.0201L149.794 92.9799ZM154.396 93.288H155.837V89.288H154.396V93.288ZM153.837 91.288V105.976H157.837V91.288H153.837ZM154.614 104.393C152.723 105.854 150.747 106.769 148.676 107.183L149.461 111.105C152.19 110.559 154.726 109.362 157.059 107.559L154.614 104.393ZM148.583 107.204C146.488 107.727 143.831 108.008 140.572 108.008V112.008C144.034 112.008 147.041 111.713 149.554 111.084L148.583 107.204ZM254.565 39.736L253.186 38.2877L252.565 38.8789V39.736H254.565ZM261.621 35.704L262.171 37.627L262.193 37.6208L262.214 37.6141L261.621 35.704ZM271.845 34.408H273.845V32.408H271.845V34.408ZM271.845 58.456V60.456H273.845V58.456H271.845ZM261.189 59.32L260.784 57.3615L260.777 57.3629L260.77 57.3644L261.189 59.32ZM254.565 62.344H252.565V66.6141L255.846 63.8804L254.565 62.344ZM221.877 35.56V33.56H219.877V35.56H221.877ZM248.517 35.56H250.517V33.56H248.517V35.56ZM248.517 109V111H250.517V109H248.517ZM221.877 109H219.877V111H221.877V109ZM255.945 41.1843C257.725 39.4883 259.792 38.3066 262.171 37.627L261.072 33.781C258.074 34.6374 255.437 36.1437 253.186 38.2877L255.945 41.1843ZM262.214 37.6141C264.748 36.8276 267.943 36.408 271.845 36.408V32.408C267.683 32.408 264.062 32.8524 261.029 33.7939L262.214 37.6141ZM269.845 34.408V58.456H273.845V34.408H269.845ZM271.845 56.456C267.452 56.456 263.751 56.7476 260.784 57.3615L261.595 61.2785C264.196 60.7404 267.599 60.456 271.845 60.456V56.456ZM260.77 57.3644C257.835 57.9934 255.311 59.119 253.285 60.8076L255.846 63.8804C257.275 62.689 259.168 61.7986 261.608 61.2756L260.77 57.3644ZM256.565 62.344V39.736H252.565V62.344H256.565ZM221.877 37.56H248.517V33.56H221.877V37.56ZM246.517 35.56V109H250.517V35.56H246.517ZM248.517 107H221.877V111H248.517V107ZM223.877 109V35.56H219.877V109H223.877ZM294.713 35.56V33.56H292.713V35.56H294.713ZM308.249 35.56V37.56H310.249V35.56H308.249ZM308.249 14.248V12.248H306.249V14.248H308.249ZM334.889 14.248H336.889V12.248H334.889V14.248ZM334.889 35.56H332.889V37.56H334.889V35.56ZM351.017 35.56H353.017V33.56H351.017V35.56ZM351.017 55.864V57.864H353.017V55.864H351.017ZM294.713 55.864H292.713V57.864H294.713V55.864ZM308.249 61.624V59.624H306.249V61.624H308.249ZM334.889 61.624H336.889V59.624H334.889V61.624ZM334.889 109V111H336.889V109H334.889ZM308.249 109H306.249V111H308.249V109ZM294.713 37.56H308.249V33.56H294.713V37.56ZM310.249 35.56V14.248H306.249V35.56H310.249ZM308.249 16.248H334.889V12.248H308.249V16.248ZM332.889 14.248V35.56H336.889V14.248H332.889ZM334.889 37.56H351.017V33.56H334.889V37.56ZM349.017 35.56V55.864H353.017V35.56H349.017ZM351.017 53.864H294.713V57.864H351.017V53.864ZM296.713 55.864V35.56H292.713V55.864H296.713ZM308.249 63.624H334.889V59.624H308.249V63.624ZM332.889 61.624V109H336.889V61.624H332.889ZM334.889 107H308.249V111H334.889V107ZM310.249 109V61.624H306.249V109H310.249ZM379.062 2.008V0.00799561H377.062V2.008H379.062ZM405.702 2.008H407.702V0.00799561H405.702V2.008ZM405.702 109V111H407.702V109H405.702ZM379.062 109H377.062V111H379.062V109ZM420.534 64.216L422.531 64.0986L422.53 64.086L422.529 64.0735L420.534 64.216ZM419.814 58.888L421.712 58.2555L421.693 58.1998L421.671 58.1452L419.814 58.888ZM417.798 57.16L417.224 59.0757L417.314 59.1027L417.406 59.1212L417.798 57.16ZM411.75 56.728H409.75V58.728H411.75V56.728ZM411.75 39.16L410.501 37.5983L409.75 38.1987V39.16H411.75ZM443.862 42.472L442.12 43.454L442.127 43.4669L442.135 43.4797L443.862 42.472ZM446.598 50.968L444.618 51.2508L444.62 51.259L446.598 50.968ZM447.318 109V111H449.318V109H447.318ZM420.678 109H418.678V111H420.678V109ZM379.062 4.008H405.702V0.00799561H379.062V4.008ZM403.702 2.008V109H407.702V2.008H403.702ZM405.702 107H379.062V111H405.702V107ZM381.062 109V2.008H377.062V109H381.062ZM422.678 74.296C422.678 69.2194 422.631 65.7995 422.531 64.0986L418.538 64.3334C418.63 65.8965 418.678 69.1966 418.678 74.296H422.678ZM422.529 64.0735C422.34 61.4266 422.092 59.3975 421.712 58.2555L417.917 59.5205C418.112 60.1065 418.345 61.6294 418.539 64.3585L422.529 64.0735ZM421.671 58.1452C421.053 56.5999 419.857 55.5321 418.191 55.1988L417.406 59.1212C417.66 59.1719 417.808 59.2561 417.957 59.6308L421.671 58.1452ZM418.373 55.2443C417.116 54.8672 415.331 54.728 413.19 54.728V58.728C415.274 58.728 416.561 58.8768 417.224 59.0757L418.373 55.2443ZM413.19 54.728H411.75V58.728H413.19V54.728ZM413.75 56.728V39.16H409.75V56.728H413.75ZM413 40.7217C416.415 37.9895 420.842 36.552 426.438 36.552V32.552C420.131 32.552 414.766 34.1865 410.501 37.5983L413 40.7217ZM426.438 36.552C434.699 36.552 439.64 39.0533 442.12 43.454L445.605 41.49C442.133 35.3307 435.458 32.552 426.438 32.552V36.552ZM442.135 43.4797C443.319 45.509 444.165 48.0797 444.618 51.2508L448.578 50.6852C448.071 47.1363 447.094 44.043 445.59 41.4643L442.135 43.4797ZM444.62 51.259C445.081 54.3941 445.318 58.3218 445.318 63.064H449.318C449.318 58.2062 449.076 54.0699 448.577 50.677L444.62 51.259ZM445.318 63.064V109H449.318V63.064H445.318ZM447.318 107H420.678V111H447.318V107ZM422.678 109V74.296H418.678V109H422.678Z" fill="url(#paint0_linear)"/>
<path d="M15.36 9.928V7.928H13.36V9.928H15.36ZM44.16 9.928H46.16V7.928H44.16V9.928ZM44.16 109V111H46.16V109H44.16ZM15.36 109H13.36V111H15.36V109ZM50.208 56.152V54.152H48.208V56.152H50.208ZM60.432 55.864L60.6963 57.8465L60.7487 57.8395L60.8006 57.8297L60.432 55.864ZM64.032 54.136L62.7033 52.6412L62.6593 52.6802L62.6178 52.7218L64.032 54.136ZM65.616 50.824L63.6503 50.4554L63.6405 50.5073L63.6335 50.5597L65.616 50.824ZM65.616 37.432L63.6314 37.6801L63.6405 37.7526L63.6548 37.8242L65.616 37.432ZM64.032 33.832L65.4462 32.4178L65.4047 32.3762L65.3607 32.3372L64.032 33.832ZM60.432 32.392L60.0634 34.3577L60.1234 34.369L60.1839 34.3766L60.432 32.392ZM50.208 31.96H48.208V33.96H50.208V31.96ZM50.208 9.928V7.928H48.208V9.928H50.208ZM79.44 12.088L78.82 13.9895L78.8444 13.9974L78.8691 14.0048L79.44 12.088ZM89.664 18.424L88.1023 19.6734L88.1103 19.6835L88.1186 19.6935L89.664 18.424ZM94.128 28.648L92.1617 29.0138L92.1633 29.0222L94.128 28.648ZM94.128 58.888L92.165 58.505L92.1605 58.5281L92.1565 58.5514L94.128 58.888ZM89.952 68.824L88.3794 67.5883L88.376 67.5927L89.952 68.824ZM79.584 75.88L80.241 77.769L80.2527 77.7649L80.2643 77.7608L79.584 75.88ZM50.208 78.184H48.208V80.184H50.208V78.184ZM15.36 11.928H44.16V7.928H15.36V11.928ZM42.16 9.928V109H46.16V9.928H42.16ZM44.16 107H15.36V111H44.16V107ZM17.36 109V9.928H13.36V109H17.36ZM50.208 58.152H53.664V54.152H50.208V58.152ZM53.664 58.152C56.7496 58.152 59.1171 58.057 60.6963 57.8465L60.1677 53.8815C58.8669 54.055 56.7224 54.152 53.664 54.152V58.152ZM60.8006 57.8297C62.6226 57.4881 64.2271 56.7693 65.4462 55.5502L62.6178 52.7218C62.1089 53.2307 61.3134 53.6639 60.0634 53.8983L60.8006 57.8297ZM65.3607 55.6308C66.6678 54.469 67.3599 52.8777 67.5985 51.0883L63.6335 50.5597C63.4881 51.6503 63.1242 52.267 62.7033 52.6412L65.3607 55.6308ZM67.5817 51.1926C67.9046 49.4707 68.048 47.0661 68.048 44.056H64.048C64.048 46.9979 63.9034 49.1052 63.6503 50.4554L67.5817 51.1926ZM68.048 44.056C68.048 41.0535 67.9056 38.6822 67.5772 37.0398L63.6548 37.8242C63.9024 39.0618 64.048 41.1065 64.048 44.056H68.048ZM67.6006 37.1839C67.3683 35.3262 66.7004 33.672 65.4462 32.4178L62.6178 35.2462C63.0916 35.72 63.4797 36.4658 63.6314 37.6801L67.6006 37.1839ZM65.3607 32.3372C64.1073 31.223 62.4839 30.6329 60.6801 30.4074L60.1839 34.3766C61.4521 34.5351 62.2287 34.905 62.7033 35.3268L65.3607 32.3372ZM60.8006 30.4263C59.0788 30.1034 56.6741 29.96 53.664 29.96V33.96C56.6059 33.96 58.7133 34.1046 60.0634 34.3577L60.8006 30.4263ZM53.664 29.96H50.208V33.96H53.664V29.96ZM52.208 31.96V9.928H48.208V31.96H52.208ZM50.208 11.928H62.16V7.928H50.208V11.928ZM62.16 11.928C69.1526 11.928 74.6806 12.6397 78.82 13.9895L80.06 10.1865C75.3674 8.65633 69.3754 7.928 62.16 7.928V11.928ZM78.8691 14.0048C83.0984 15.2646 86.1151 17.1894 88.1023 19.6734L91.2257 17.1746C88.6049 13.8986 84.8056 11.5994 80.011 10.1712L78.8691 14.0048ZM88.1186 19.6935C90.0721 22.0717 91.4428 25.1493 92.1617 29.0138L96.0943 28.2822C95.2772 23.8907 93.672 20.1523 91.2095 17.1545L88.1186 19.6935ZM92.1633 29.0222C92.8991 32.8849 93.28 37.884 93.28 44.056H97.28C97.28 37.748 96.8929 32.4751 96.0927 28.2738L92.1633 29.0222ZM93.28 44.056C93.28 49.9348 92.8997 54.7399 92.165 58.505L96.091 59.271C96.8923 55.1641 97.28 50.0812 97.28 44.056H93.28ZM92.1565 58.5514C91.5311 62.2146 90.2535 65.203 88.3794 67.5884L91.5246 70.0596C93.8745 67.0689 95.3809 63.4334 96.0995 59.2246L92.1565 58.5514ZM88.376 67.5927C86.2558 70.3066 83.1437 72.4656 78.9037 73.9992L80.2643 77.7608C85.0483 76.0304 88.8483 73.4854 91.5281 70.0553L88.376 67.5927ZM78.927 73.991C74.8042 75.425 69.2437 76.184 62.16 76.184V80.184C69.4763 80.184 75.5318 79.407 80.241 77.769L78.927 73.991ZM62.16 76.184H50.208V80.184H62.16V76.184ZM52.208 78.184V56.152H48.208V78.184H52.208ZM159.869 55.864L158.897 57.6123L158.935 57.6334L158.974 57.6529L159.869 55.864ZM154.973 54.856L155.132 52.8624L155.119 52.8613L155.106 52.8604L154.973 54.856ZM132.796 55.288L132.91 57.2848L132.95 57.2825L132.991 57.2785L132.796 55.288ZM125.164 55.72H123.164V57.8364L125.278 57.7168L125.164 55.72ZM125.164 37L124.788 35.0357L123.164 35.3466V37H125.164ZM173.261 36.136L172.766 38.0739L172.775 38.0763L173.261 36.136ZM183.629 41.608L185.134 40.291L185.116 40.271L185.098 40.2514L183.629 41.608ZM187.517 50.392L185.542 50.7121L185.546 50.738L185.551 50.7638L187.517 50.392ZM188.525 109V111H190.525V109H188.525ZM161.885 109H159.885V111H161.885V109ZM125.884 104.536L124.358 105.828L124.366 105.838L124.374 105.847L125.884 104.536ZM122.14 76.6L124.085 77.0693L124.086 77.0619L124.088 77.0545L122.14 76.6ZM125.596 69.832L127.011 71.2462L127.031 71.226L127.051 71.2052L125.596 69.832ZM132.364 66.232L132.819 68.1797L132.85 68.1726L132.88 68.1645L132.364 66.232ZM143.74 65.08L143.788 63.0806L143.764 63.08H143.74V65.08ZM155.837 65.368H157.837V63.4151L155.884 63.3686L155.837 65.368ZM155.837 78.184V80.184H157.837V78.184H155.837ZM150.077 78.328L150.176 80.3255L150.268 80.3209L150.359 80.3079L150.077 78.328ZM147.052 81.064L149.025 81.3928L149.043 81.2845L149.049 81.1749L147.052 81.064ZM147.052 87.976L145.068 88.2241L145.083 88.3439L145.112 88.4611L147.052 87.976ZM147.917 89.848L149.544 88.6855L149.512 88.6412L149.478 88.5986L147.917 89.848ZM150.077 91L150.359 89.0201L150.318 89.0141L150.276 89.0099L150.077 91ZM155.837 91.288H157.837V89.288H155.837V91.288ZM155.837 105.976L157.059 107.559L157.837 106.958V105.976H155.837ZM149.069 109.144L148.676 107.183L148.63 107.192L148.583 107.204L149.069 109.144ZM163.885 63.496C163.885 60.9953 163.791 59.06 163.564 57.8102L159.629 58.5258C159.786 59.388 159.885 61.0047 159.885 63.496H163.885ZM163.564 57.8102C163.26 56.1349 162.286 54.8367 160.763 54.0751L158.974 57.6529C159.371 57.8513 159.549 58.0891 159.629 58.5258L163.564 57.8102ZM160.84 54.1157C159.555 53.4021 157.52 53.0534 155.132 52.8624L154.813 56.8496C157.225 57.0426 158.454 57.3659 158.897 57.6123L160.84 54.1157ZM155.106 52.8604C153.586 52.7592 150.396 52.712 145.613 52.712V56.712C150.429 56.712 153.479 56.7608 154.839 56.8516L155.106 52.8604ZM145.613 52.712C140.95 52.712 136.612 52.9062 132.602 53.2974L132.991 57.2785C136.853 56.9018 141.059 56.712 145.613 56.712V52.712ZM132.683 53.2912L125.051 53.7232L125.278 57.7168L132.91 57.2848L132.683 53.2912ZM127.164 55.72V37H123.164V55.72H127.164ZM125.541 38.9643C134.425 37.2631 144.042 36.408 154.396 36.408V32.408C143.823 32.408 133.952 33.2809 124.788 35.0357L125.541 38.9643ZM154.396 36.408C162.396 36.408 168.491 36.9825 172.766 38.0738L173.755 34.1982C169.006 32.9855 162.525 32.408 154.396 32.408V36.408ZM172.775 38.0763C177.15 39.17 180.205 40.8478 182.159 42.9646L185.098 40.2514C182.444 37.3762 178.587 35.406 173.746 34.1957L172.775 38.0763ZM182.123 42.925C183.852 44.9009 185.016 47.464 185.542 50.7121L189.491 50.0719C188.865 46.216 187.437 42.9231 185.134 40.291L182.123 42.925ZM185.551 50.7638C186.189 54.135 186.525 58.9347 186.525 65.224H190.525C190.525 58.8413 190.188 53.753 189.482 50.0202L185.551 50.7638ZM186.525 65.224V109H190.525V65.224H186.525ZM188.525 107H161.885V111H188.525V107ZM163.885 109V63.496H159.885V109H163.885ZM140.572 108.008C134.303 108.008 130.057 106.29 127.395 103.225L124.374 105.847C128.048 110.078 133.594 112.008 140.572 112.008V108.008ZM127.411 103.244C124.674 100.009 123.132 94.9417 123.132 87.688H119.132C119.132 95.4103 120.759 101.575 124.358 105.828L127.411 103.244ZM123.132 87.688C123.132 83.1548 123.465 79.6356 124.085 77.0693L120.196 76.1307C119.472 79.1324 119.132 83.0052 119.132 87.688H123.132ZM124.088 77.0545C124.699 74.437 125.707 72.5496 127.011 71.2462L124.182 68.4178C122.222 70.3784 120.926 73.003 120.193 76.1455L124.088 77.0545ZM127.051 71.2052C128.354 69.8254 130.228 68.7843 132.819 68.1797L131.91 64.2843C128.741 65.0237 126.103 66.3826 124.142 68.4588L127.051 71.2052ZM132.88 68.1645C135.524 67.4594 139.123 67.08 143.74 67.08V63.08C138.95 63.08 134.965 63.4686 131.849 64.2995L132.88 68.1645ZM143.693 67.0794L155.789 67.3674L155.884 63.3686L143.788 63.0806L143.693 67.0794ZM153.837 65.368V78.184H157.837V65.368H153.837ZM155.837 76.184H154.396V80.184H155.837V76.184ZM154.396 76.184C152.221 76.184 150.633 76.2283 149.794 76.3481L150.359 80.3079C150.864 80.2357 152.156 80.184 154.396 80.184V76.184ZM149.977 76.3305C148.743 76.3922 147.502 76.7292 146.539 77.6009C145.545 78.4999 145.124 79.7138 145.056 80.9531L149.049 81.1749C149.077 80.6862 149.208 80.5801 149.222 80.5671C149.267 80.5268 149.49 80.3598 150.176 80.3255L149.977 76.3305ZM145.08 80.7352C144.952 81.5033 144.909 82.8731 144.909 84.664H148.909C148.909 82.8069 148.961 81.7767 149.025 81.3928L145.08 80.7352ZM144.909 84.664C144.909 86.1294 144.956 87.3316 145.068 88.2241L149.037 87.7279C148.957 87.0844 148.909 86.0786 148.909 84.664H144.909ZM145.112 88.4611C145.355 89.4308 145.747 90.338 146.355 91.0974L149.478 88.5986C149.318 88.398 149.134 88.0572 148.993 87.4909L145.112 88.4611ZM146.289 91.0105C147.161 92.2316 148.451 92.8474 149.877 92.9901L150.276 89.0099C149.782 88.9606 149.632 88.8084 149.544 88.6855L146.289 91.0105ZM149.794 92.9799C151.243 93.1869 152.778 93.288 154.396 93.288V89.288C152.943 89.288 151.598 89.1971 150.359 89.0201L149.794 92.9799ZM154.396 93.288H155.837V89.288H154.396V93.288ZM153.837 91.288V105.976H157.837V91.288H153.837ZM154.614 104.393C152.723 105.854 150.747 106.769 148.676 107.183L149.461 111.105C152.19 110.559 154.726 109.362 157.059 107.559L154.614 104.393ZM148.583 107.204C146.488 107.727 143.831 108.008 140.572 108.008V112.008C144.034 112.008 147.041 111.713 149.554 111.084L148.583 107.204ZM254.565 39.736L253.186 38.2877L252.565 38.8789V39.736H254.565ZM261.621 35.704L262.171 37.627L262.193 37.6208L262.214 37.6141L261.621 35.704ZM271.845 34.408H273.845V32.408H271.845V34.408ZM271.845 58.456V60.456H273.845V58.456H271.845ZM261.189 59.32L260.784 57.3615L260.777 57.3629L260.77 57.3644L261.189 59.32ZM254.565 62.344H252.565V66.6141L255.846 63.8804L254.565 62.344ZM221.877 35.56V33.56H219.877V35.56H221.877ZM248.517 35.56H250.517V33.56H248.517V35.56ZM248.517 109V111H250.517V109H248.517ZM221.877 109H219.877V111H221.877V109ZM255.945 41.1843C257.725 39.4883 259.792 38.3066 262.171 37.627L261.072 33.781C258.074 34.6374 255.437 36.1437 253.186 38.2877L255.945 41.1843ZM262.214 37.6141C264.748 36.8276 267.943 36.408 271.845 36.408V32.408C267.683 32.408 264.062 32.8524 261.029 33.7939L262.214 37.6141ZM269.845 34.408V58.456H273.845V34.408H269.845ZM271.845 56.456C267.452 56.456 263.751 56.7476 260.784 57.3615L261.595 61.2785C264.196 60.7404 267.599 60.456 271.845 60.456V56.456ZM260.77 57.3644C257.835 57.9934 255.311 59.119 253.285 60.8076L255.846 63.8804C257.275 62.689 259.168 61.7986 261.608 61.2756L260.77 57.3644ZM256.565 62.344V39.736H252.565V62.344H256.565ZM221.877 37.56H248.517V33.56H221.877V37.56ZM246.517 35.56V109H250.517V35.56H246.517ZM248.517 107H221.877V111H248.517V107ZM223.877 109V35.56H219.877V109H223.877ZM294.713 35.56V33.56H292.713V35.56H294.713ZM308.249 35.56V37.56H310.249V35.56H308.249ZM308.249 14.248V12.248H306.249V14.248H308.249ZM334.889 14.248H336.889V12.248H334.889V14.248ZM334.889 35.56H332.889V37.56H334.889V35.56ZM351.017 35.56H353.017V33.56H351.017V35.56ZM351.017 55.864V57.864H353.017V55.864H351.017ZM294.713 55.864H292.713V57.864H294.713V55.864ZM308.249 61.624V59.624H306.249V61.624H308.249ZM334.889 61.624H336.889V59.624H334.889V61.624ZM334.889 109V111H336.889V109H334.889ZM308.249 109H306.249V111H308.249V109ZM294.713 37.56H308.249V33.56H294.713V37.56ZM310.249 35.56V14.248H306.249V35.56H310.249ZM308.249 16.248H334.889V12.248H308.249V16.248ZM332.889 14.248V35.56H336.889V14.248H332.889ZM334.889 37.56H351.017V33.56H334.889V37.56ZM349.017 35.56V55.864H353.017V35.56H349.017ZM351.017 53.864H294.713V57.864H351.017V53.864ZM296.713 55.864V35.56H292.713V55.864H296.713ZM308.249 63.624H334.889V59.624H308.249V63.624ZM332.889 61.624V109H336.889V61.624H332.889ZM334.889 107H308.249V111H334.889V107ZM310.249 109V61.624H306.249V109H310.249ZM379.062 2.008V0.00799561H377.062V2.008H379.062ZM405.702 2.008H407.702V0.00799561H405.702V2.008ZM405.702 109V111H407.702V109H405.702ZM379.062 109H377.062V111H379.062V109ZM420.534 64.216L422.531 64.0986L422.53 64.086L422.529 64.0735L420.534 64.216ZM419.814 58.888L421.712 58.2555L421.693 58.1998L421.671 58.1452L419.814 58.888ZM417.798 57.16L417.224 59.0757L417.314 59.1027L417.406 59.1212L417.798 57.16ZM411.75 56.728H409.75V58.728H411.75V56.728ZM411.75 39.16L410.501 37.5983L409.75 38.1987V39.16H411.75ZM443.862 42.472L442.12 43.454L442.127 43.4669L442.135 43.4797L443.862 42.472ZM446.598 50.968L444.618 51.2508L444.62 51.259L446.598 50.968ZM447.318 109V111H449.318V109H447.318ZM420.678 109H418.678V111H420.678V109ZM379.062 4.008H405.702V0.00799561H379.062V4.008ZM403.702 2.008V109H407.702V2.008H403.702ZM405.702 107H379.062V111H405.702V107ZM381.062 109V2.008H377.062V109H381.062ZM422.678 74.296C422.678 69.2194 422.631 65.7995 422.531 64.0986L418.538 64.3334C418.63 65.8965 418.678 69.1966 418.678 74.296H422.678ZM422.529 64.0735C422.34 61.4266 422.092 59.3975 421.712 58.2555L417.917 59.5205C418.112 60.1065 418.345 61.6294 418.539 64.3585L422.529 64.0735ZM421.671 58.1452C421.053 56.5999 419.857 55.5321 418.191 55.1988L417.406 59.1212C417.66 59.1719 417.808 59.2561 417.957 59.6308L421.671 58.1452ZM418.373 55.2443C417.116 54.8672 415.331 54.728 413.19 54.728V58.728C415.274 58.728 416.561 58.8768 417.224 59.0757L418.373 55.2443ZM413.19 54.728H411.75V58.728H413.19V54.728ZM413.75 56.728V39.16H409.75V56.728H413.75ZM413 40.7217C416.415 37.9895 420.842 36.552 426.438 36.552V32.552C420.131 32.552 414.766 34.1865 410.501 37.5983L413 40.7217ZM426.438 36.552C434.699 36.552 439.64 39.0533 442.12 43.454L445.605 41.49C442.133 35.3307 435.458 32.552 426.438 32.552V36.552ZM442.135 43.4797C443.319 45.509 444.165 48.0797 444.618 51.2508L448.578 50.6852C448.071 47.1363 447.094 44.043 445.59 41.4643L442.135 43.4797ZM444.62 51.259C445.081 54.3941 445.318 58.3218 445.318 63.064H449.318C449.318 58.2062 449.076 54.0699 448.577 50.677L444.62 51.259ZM445.318 63.064V109H449.318V63.064H445.318ZM447.318 107H420.678V111H447.318V107ZM422.678 109V74.296H418.678V109H422.678Z" fill="url(#paint1_linear)"/>
<path d="M6 128.44V126.44H4V128.44H6ZM292.149 128.44H294.149V126.44H292.149V128.44ZM292.149 139.96V141.96H294.149V139.96H292.149ZM6 139.96H4V141.96H6V139.96ZM6 130.44H292.149V126.44H6V130.44ZM290.149 128.44V139.96H294.149V128.44H290.149ZM292.149 137.96H6V141.96H292.149V137.96ZM8 139.96V128.44H4V139.96H8Z" fill="url(#paint2_linear)"/>
<path d="M6 128.44V126.44H4V128.44H6ZM292.149 128.44H294.149V126.44H292.149V128.44ZM292.149 139.96V141.96H294.149V139.96H292.149ZM6 139.96H4V141.96H6V139.96ZM6 130.44H292.149V126.44H6V130.44ZM290.149 128.44V139.96H294.149V128.44H290.149ZM292.149 137.96H6V141.96H292.149V137.96ZM8 139.96V128.44H4V139.96H8Z" fill="url(#paint3_linear)"/>
</g>
<defs>
<filter id="filter0_d" x="0" y="0.00799561" width="453.318" height="149.952" filterUnits="userSpaceOnUse" color-interpolation-filters="sRGB">
<feFlood flood-opacity="0" result="BackgroundImageFix"/>
<feColorMatrix in="SourceAlpha" type="matrix" values="0 0 0 0 0 0 0 0 0 0 0 0 0 0 0 0 0 0 127 0"/>
<feOffset dy="4"/>
<feGaussianBlur stdDeviation="2"/>
<feColorMatrix type="matrix" values="0 0 0 0 0 0 0 0 0 0 0 0 0 0 0 0 0 0 0.25 0"/>
<feBlend mode="normal" in2="BackgroundImageFix" result="effect1_dropShadow"/>
<feBlend mode="normal" in="SourceGraphic" in2="effect1_dropShadow" result="shape"/>
</filter>
<linearGradient id="paint0_linear" x1="183.5" y1="-5" x2="231" y2="172" gradientUnits="userSpaceOnUse">
<stop stop-color="#007BFF"/>
<stop offset="1" stop-color="white" stop-opacity="0"/>
</linearGradient>
<linearGradient id="paint1_linear" x1="124.5" y1="183" x2="231" y2="172" gradientUnits="userSpaceOnUse">
<stop offset="0.0289519" stop-color="#2C8DFF"/>
<stop offset="1" stop-color="white" stop-opacity="0"/>
</linearGradient>
<linearGradient id="paint2_linear" x1="183.5" y1="-5" x2="231" y2="172" gradientUnits="userSpaceOnUse">
<stop stop-color="#007BFF"/>
<stop offset="1" stop-color="white" stop-opacity="0"/>
</linearGradient>
<linearGradient id="paint3_linear" x1="124.5" y1="183" x2="231" y2="172" gradientUnits="userSpaceOnUse">
<stop offset="0.0289519" stop-color="#2C8DFF"/>
<stop offset="1" stop-color="white" stop-opacity="0"/>
</linearGradient>
</defs>
</svg>
